<?xml version="1.0" encoding="UTF-8"?>
<svg id="Layer_1" xmlns="http://www.w3.org/2000/svg" version="1.1" viewBox="0 0 283.5 283.5">
  <!-- Generator: Adobe Illustrator 29.7.1, SVG Export Plug-In . SVG Version: 2.1.1 Build 8)  -->
  <defs>
    <style>
      .st0 {
        fill: #718660;
      }
    </style>
  </defs>
  <path class="st0" d="M165.8,214.4c.1,3.5,2.2,6.3,4.7,7.9,2.4,1.5,5.7,2.3,8.9.9,5.8-2.5,9.8-6.7,9.5-13.6-.1-3.4.3-6.8.4-10.2.3,0,.5-.1.8-.2l-.8-.3c0-4.8,0-9.7-.1-14.5,0-1.1,0-2.2,0-3.3-.2-5.9-.3-11.7-.5-17.6,0-.4.4-.8.6-1.2.3-.3.7-.6,1-.8,1,.5,2.3.7,3,1.5,4.2,4.7,8.2,9.5,12.3,14.2.1.2.1.4.2.7.3.3.6.6.8.9,1,.8,1.9,1.6,3.5,3-.2-3-.4-5.3-.6-7.6l.4-.9c0-3.6,0-7.2,0-10.8.4-.1.8-.2,1.9-.5-1.1-.3-1.5-.4-1.9-.5-.2-4.7-.4-9.5-.6-14.2-.2-3.7-2-5.5-5.4-7.1-2.9-1.3-5.5-1.9-8.1.1-1,.8-1.6,2-2.4,3-1.3,0-1.2.5-.5,1.3.4,1.7.7,3.6,1.4,5.2.8,1.8,3.6,2.3,6,1.3.3-.1.7-.6,1-.5.3,0,.7,0,1,.1,1.2.2,2,1.5,1.4,2.6s-.2.3-.3.4c-4.8,3.7-9.6,2.4-12.9-2.2-2.1-3-2.7-8.5.8-12.5,2.8-3.3,5.9-4.9,10-4.3,4.8.7,8.8,2.8,11.1,7.6,1.3,2.7,1.3,5.5,1.3,8.3,0,3,0,6,0,9.5,2.8-1.8,5.2-3.3,7.5-4.9s2.3-.9,2.9-1c1.7-.5,3.8-.5,5.1-.4s4.6.9,5.2,1.3c0,.2.2.3.2.5.2-.1.4-.3.6-.4,3.7.9,6,3.7,7.4,6.8,2.4,5.2,2.6,10.7-1.1,15.5-1.6,2.1-3.9,4.2-6.3,4.8-2.4.7-5.6,0-8-.9-3.4-1.3-5.6-4.3-6.3-8-.2-1,0-2.2.4-3,.3-.5,1.5-.7,2.2-.6.5,0,1.1.9,1.3,1.6,1,4.8,3.4,7,7.5,6.8,2.7-.1,7.8-3.7,7.8-6,0-2.7-.2-5.6-1.3-8-1.2-2.8-3.5-5.5-6.7-5.8-2.5-.3-5-1.1-7.7,0-2.8,1-4.9,2.6-7,4.7-3.1,3.2-3.4,7.1-3.5,11.1,0,2.4.4,4.8-.2,7-.6,2.4-.2,4.8-.3,7.2s.2,2.8.6,4.2c.7,2-.5,2.1-1.8,2.1-1.1,0-2.2,0-3.4,0,0-2,.3-3.8.2-5.6,0-1-.5-2.1-1.1-2.9-4.7-5.5-9.6-10.9-14.4-16.4-.1-.1-.3-.3-.4-.4,0,.2-.4,20.2-.4,30v2.7c-.3,4.2-.2,8.4-1.1,12.5-1.1,5.7-5.4,10-9.7,11.6-4.1,1.2-8.1,1.5-11.2.7-7.9-2-10.3-10-9-16.5.4-2,1.7-3.7,3.5-5.5,2.5-2.5,5.1-3.1,8.1-3.2,3.8-.1,8.2,2.6,9.1,6.2.3,1.1,1.2,1.9.3,3.2s-2.7,1.9-3.3.9-.7-1.1-.8-1.6c-.9-4.1-4.4-6.3-8.2-4.6-3.5,1.5-5.3,4.1-5,8-.1.1-.2.2-.3.3.1,0,.2.1.3.2Z"/>
  <path class="st0" d="M114.2,101.8c.1.2.4.3.4.5.6,3.5.6,3.4,4.5,4.3,1.7.4,3.3,2.3,4.8,2,2.7-.4,4.5,1.1,6.7,1.7,2.8.8,5.4,2.2,8.2,3.3,1.4.5,2.9,1.1,4.3,1.3,5,.5,10,1.1,14.6-1.5.6-.3,1.3-.2,2-.3.2,0,.4-.1.6-.2-.2,0-.3-.2-.5-.3,1.5-1.4,3-2.9,4.7-4,.7-.5,1.9,0,2.9,0-.1.9,0,2-.4,2.7-3.1,4.2-7.3,6.5-12.4,7.1-2,.2-4,.8-6,.9-5,.3-9.6-1.5-14.3-3.1-6.2-2.1-12.3-4.2-18.5-6.1-1.8-.5-3.8-.4-5.3-.6.3-7.7.6-15,.9-22.7-4.3,0-8.2,0-12,0-.2-.2-.4-.4-.5-.6-.2.2-.3.4-.5.7-3.8-.1-7.6-.3-11.4-.4-2.4,0-5.1-.6-7.2.2-4.9,1.9-8.9,5-10.4,10.6-1.8,6.9,3.3,12.6,9.8,13.1,4,.3,8-3.4,8-7.4,0-1.8,0-3.7,0-5.9-1.1.6-1.7,1.1-2.1,1-1.6-.5-3.3-1.1-4.8-2-.4-.3-.6-1.4-.5-2.1.1-.4,1-.9,1.6-.9,5-.5,9.5,3.7,9.5,8.8,0,7.2-3.4,11-10.5,11.8-1.3.2-2.9-.2-3.4-.3,0,0,0-.2-.5-1.4l-1.1,1.1c-1-.1-3.2-.8-4.7-2.1-3.4-2.9-5.7-6.5-5.5-11,.4-8.7,7.1-16.7,16.9-16.8,8.6,0,17.2-.2,25.8-.3,1,0,2,0,3.4,0-.3-6.8-.6-13.4-.8-20.3,3.8,0,7.8,0,11.8,0,4,0,7.9-.2,11.9-.4,3.8-.2,7.5,1.1,11.3,0,0,.3.6,1.6.6,1.6.1-.4.4-1.5.4-1.6.6,0,1.5-.2,2.1-.3s.8-.2,1.1-.5c.7-.5,1.1-.8,1.8-1.3,0,0,2.1-1.2,2.6-1.7.8-.8,1-1.3,1.5-1.8s.8-.8.9-1l1.9-5.2c.1-1.8.2-2.5-.4-4.4l1.4-1.2h-1.6c-1.6-1.4-3.1-2.9-4.7-4.3l-.5-.4s-1-.7-1.4-.9c-1.7-.6-5.3-.7-7.2.8-3.6,2.8-4.2,4.8-3.1,9.4l-.7,1h1c1.5,1.7,4.1,1.9,5.9,2.5.4.1.9,1.8.7,2.1-.6.7-2.1.4-2.9.3-4.6-.5-7.4-2.9-8-7.6-.7-6,2.2-10.6,7.7-12.1,1.8-.5,3.8-.3,5.7-.4l.8,1.6,1.4-1c.3,0,1.4.6,1.7.7.8.3,2,1.3,2.3,1.6,4.4,2.4,7,8.9,5.5,13.2-.4,1.3-1,2.5-1.4,3.8,0,.4-.2.8-.2,1.3-.9,3.6-3.7,5.5-6.5,7.1-4.3,2.6-9.1,3-14.2,2.7-8.1-.5-16.3-.1-24.1-.1-.2,2.3-.8,4.3-.4,5.9.9,3.2-.5,6.3-.1,9.5.1,1.3.6,1.8,1.9,1.7,3.1-.3,6.3-.7,9.4-.8.6,0,1.7.8,1.8,1.4.6,3.5.1,3.7-3.4,3.3-3.1-.3-6.2,0-9.6,0,0,3.9,0,7.6,0,11.3,0,.8-.3,1.6-.5,2.4-.1.1-.3.3-.4.4,0,.2,0,.3,0,.5.1.1.3.3.4.4ZM160,115.4c0,0-.1,0-.2,0v.7c0,0,.1,0,.2,0v-.7Z"/>
  <path class="st0" d="M37.3,147.9c.6,0,1.1.2,1.7.2,0-.3,0-.6-.1-.9-.5.2-1,.4-1.5.6,0,0,0,.1,0,.2,0,0,0-.1.1-.2ZM57.3,138.8c-.1,0-.3-.2-.4-.2,0,0-.1.2-.2.4.1,0,.3.2.4.2,0,0,.1-.2.2-.4ZM52.6,167.4c-.1,0-.3-.2-.4-.1,0,0-.1.2-.2.4.1,0,.3.2.4.1,0,0,.1-.2.2-.4ZM46.3,172.8c-.1,0-.2-.2-.3-.3,0,.1,0,.2-.1.4,0,0,.1.1.2.1.1,0,.2-.1.3-.2ZM39.8,174.4c0,0,0,.1,0,.2,0,0,.1,0,.2,0,0,0,0-.1,0-.2,0,0-.1,0-.2,0Z"/>
  <path class="st0" d="M78.1,179.6c0,2.8,0,5.7,0,8.5l-1.3.7,1.3.7c-1.1,3.8-1.4,8.1-4.8,11.2-.5.4-1.2.7-1.5.8-.9,1.1-1.6,2.3-2.6,3-4.2,2.7-8.7,4.3-13.7,3.7-1.3-.2-2.5-1.1-3.8-1.8-1.5-.7-3.1-1.3-4.3-2.3-1-.8-1.6-2.2-2.5-3.6-.4-.3-1.5-.7-1.8-1.4-2.6-5.4-2.8-13.2,2.5-18.2,5.2-4.9,14.2-5.3,18.8,1.4,1.1,1.7,1.5,4,1.8,6.1,0,.7-1.1,1.6-1.8,2.3-.2.1-1.2-.2-1.2-.5-.2-.7,0-1.4,0-1.9-2.7-5.4-6.3-9.2-12.9-5.8-6.2,3.2-5.1,8.9-4.6,14.8,2.3,1.8,4.9,3.9,7.6,6l2,.8c4.7.4,9.1-.5,12.8-3.7,3.3-2.8,5.5-6.2,5.8-10.5.3-3.8.3-7.7.4-11.5,0-1.6,0-3.1,0-4.7,0-.5,0-.9,0-1.4v-3.8c0-.8,0-1.6,0-2.3,0-4.3,0-8.7,0-13,0-.5-2.5-2.7-3.5-2.6-4.8.5-4.7,2.8-5.4-.4l.2-1.1c1.6-2.3,4.1-2.2,6.5-2.1,2.8.2,5.6.7,8.4,1.1,4.2.5,6.3-1.5,7.7-.5,1.2,3-2.6,5.2-5.9,5-.8,0-1.6,0-2.5,0s-1.7.8-1.7,1.7c0,4.3,0,8.6,0,12.8,0,.3,0,.6,0,.9,0,3.5,0,6.9,0,10.4v1.3Z"/>
  <path class="st0" d="M216.6,107.8c0-.1.2-.3.1-.4,0,0-.2-.1-.4-.2,0,.1-.2.3-.1.4,0,0,.2.1.4.2Z"/>
  <path class="st0" d="M143.1,143.7c0,2.3,0,4.5.1,6.8,0,.8.4,1.6.6,2.4,0,.3.4.6.3.8-.7,2.4-2.8,1.4-4.3,1.6-1.3.2-1.8-.5-1.7-1.8.3-5.6.6-11.1,1-16.7,0-.4,0-.8,0-1.2.2,0,.4-.2.6-.2-.2,0-.4-.2-.6-.2-.2-4.3-.4-8.6-.6-13,1.7-.5,3.4,0,4.9,1.7,2.2,2.4,4.7,4.5,7,6.9.3.3.3.9.4,1.3.1.4,0,1.2.3,1.3,2.9,1.2,3.7,4.4,6,6.1.5.3,1.1.4,1.7.7.3.5.6,1.1.9,1.6.2,0,.4-.2.6-.3-.1-.6-.3-1.2-.4-1.9,0-3.7,0-7.5,0-11.2.2-.1.4-.2.6-.3-.2-.1-.4-.2-.6-.3-.4-1.3-.8-2.5-1.1-3.8-.1-.4,0-1.3.2-1.4,1.9-.3,3.9-.5,5.9-.7-.4,1.8-.6,3-.9,4.1,0,.3,0,.6,0,.9,0,6.9-.2,13.8-.2,20.7,0,1.8.3,3.7.7,5.5.3,1.6-.4,2.3-1.9,2.4-.8,0-1.7.2-2.3,0-.6-.2-1.3-1.3-1.2-1.6,2.1-4.1-.4-6.8-2.9-9.6-2.4-2.8-4.7-5.7-7-8.5,0-.1-.1-.2-.2-.3-1.2-1.2-2.3-2.3-3.5-3.5-.6-.6-1.2-1.1-2.3-2,0,4.3,0,8.1,0,11.9-.4.3-.8.6-1.2.8.4.4.8.8,1.2,1.2Z"/>
  <path class="st0" d="M116.2,173.6c-.2-3.8-.3-7.5-.5-11.7.7-.1,1.9-.4,3.2-.5,3.1-.3,6.2-.9,9.3-.9s3.1.4,5.5,1.4c3.6,1.6,5.6,4.8,6.2,8.2,1.1,5.4-1.7,10.1-7.3,12.4,2.9,3.7,5.7,7.2,8.5,10.9-.2.5-.6,1.3-1.2,2.5-.9-.4-2.1-.7-2.7-1.4-2.1-2.3-4.2-4.7-5.9-7.4-1.7-2.7-3.4-4.5-7-4.2-5.3.4-4.7-.7-4.6,4.6,0,1.8.4,3.7.8,5.4.3,1.5,0,2.3-1.7,2.2-.5,0-1.1,0-1.6,0-2,.1-2.1-.5-1.8-2.5.5-4.2.5-8.5.6-12.8,0-1.8,0-3.6.1-5.4.2-.2.4-.3.6-.5-.2-.2-.5-.3-.7-.5ZM126.4,165c-1.7.2-4.2.4-5.1.6-2,.4-1.6.6-1.5,2.8,0,2.1.6,4.3-.7,6.5-.4.7,1.1,3.6,2,3.8,3.3.5,6.8.5,10.1,0,3-.4,5.1-3.4,5.1-6.3,0-2.8-1.3-5.6-4.1-6.2-1.9-.4-3.6-1.4-5.7-1.1Z"/>
  <path class="st0" d="M145.6,180.6c-.1-4.2-.3-8.3-.4-12.5,0-1.6,0-3.3,0-5.2s.4-1.1,1-1.2,1.5-.3,2.3-.3c2.7,0,5.4.6,8.1.3,9.4-.8,17.4,8.1,16.9,16.7-.3,5.9-2.6,10.4-7.3,13.7-.7.5-1.8.5-2.7.7-.1.1-.2.2-.3.4-1.2.6-2.5,1.8-3.7,1.8-3.9.1-7.9-.2-11.8-.3-.4,0-1,.5-1.3.3-.6-.4-1.5-1.1-1.5-1.6.1-3.7.4-7.3.7-10.9v-2ZM154.9,191.4c3.4.4,6.5-.9,9.5-3,2.8-1.9,4.4-4.5,4.6-7.6.2-2.9.5-6.4-.8-8.8-1.6-2.8-4.3-5.5-8.1-5.9-2.9-.3-5.8-.3-8.7-.5-1.6-.1-2.2.6-2.1,2.2,0,6.1,0,12.3,0,18.4,0,5.4-.4,5.3,5.6,5.2Z"/>
  <path class="st0" d="M132,148.3c-3.2,4.5-7.3,7.3-13,7.5-6.7.1-11.5-3-14.7-8.7-.5-.8-1.3-2.7-1.3-2.7.3-.2,1.1-.6,1.3-.8-.6-.2-1.2-.3-1.8-.5-1.6-6.3.3-11.7,4.2-16.5,3.5-4.4,11.7-6.2,17.2-3.8,4.4,1.9,8.1,4.7,9.7,9.3,1.9,5.3,1.9,10.5-1.2,15.5l-.8-.2.3,1.1ZM109.3,129.5c-2.3,3.3-4.1,7.2-3,11.8,1.5,6.3,6.8,10.9,12.6,10.6,4.7-.3,8.9-2.5,10.7-7.2,2.2-5.6,2-11.3-2.6-15.8-2.1-2-5.9-3.4-9.3-3.3-3.5.3-5.7,1.1-8.3,3.9Z"/>
  <path class="st0" d="M125,208.4c6.4,1.9,12.8,1.4,19.2.3.3-.3.6-.5,1-.8,2.5-1.7,5.1-3.2,7.5-5.1,1.9-1.4,3-1.5,4.7.4-2.1,4.8-6.4,7-11,8.8-4.2,1.6-8.6,2.3-13.2,2.1-4.2-.2-8.1-1.1-12-2.9-2.7-1.3-6-1.5-9-2.3-3.3-.9-6.4-1.9-9.7-2.8-4.5-1.1-9-1.6-13.5-.4-1.9.5-3.7,1.9-5.4,3-1.1.7-2.2.9-3-.4-.7-1.2,0-3.5,1.2-4.1,3.6-1.6,7-3.8,11.2-3.5,2.6.2,5.2.2,7.7.8,6.3,1.5,12.5,3.3,18.7,5.1.8.2,1.5.9,2.6,1.6.4,0,1.2-.1,2-.2-.1.9.1.8,0,1.6l1-1.1Z"/>
  <path class="st0" d="M82.8,189.7c.4-1.2.6-2.5,1.1-3.7,2.9-7.1,5.8-14.2,8.9-21.2.5-1.2,1.7-2.6,2.8-2.8,2-.3,2.8,1.6,3.5,3.2,1.7,4.3,3.3,8.6,5,12.9,1.5,3.7,3,7.5,4.6,11.2.6,1.4,1.7,2.6,2.7,3.9.3.4,1.1.7,1,1.2-.3.8-1.7.5-2.5.6-.6,0-1.3-.1-1.8-.4-.7-.4-1.7-.7-2-1.4-1.1-2.1-2-4.3-2.7-6.6-.4-1.2-1-1.5-2-1.3-2.6.5-5.3,1.2-7.9,1.8-.7.2-1.6.2-2.3,0-2.3-.3-3.9.8-4.4,3.2-.3,1.2-.7,2.4-1.3,3.4-.4.7-1.4,1.1-2.2,1.3-.4,0-1.4-.8-1.4-1.2,0-.9.3-1.9.7-2.8.1-.4.6-.7,1-1-.1-.1-.2-.3-.4-.4ZM100.8,181c-1.5-3.8-2.9-7.4-4.4-11-.2-.4-.9-.5-1.4-.8-.3.9-.7,1.8-1,2.7-1.2,3.1-2.5,6.3-3.7,9.4-.2.4-.5,1-.3,1.3.2.4.9.8,1.2.7,3.1-.7,6.2-1.5,9.6-2.4Z"/>
  <path class="st0" d="M138.9,76.6c0-3.2,1.7-5.3,4.3-5.8,5.3,11.1,7.9,23.3,14.9,33.3-.8.2-1.4.2-2,.5-2,.7-3.7-.1-4.5-2.2-.4-1.2-.9-2.5-1.4-3.7-1.5-3.4-2.9-4-6.5-3.1-1.9.5-3.9.9-5.8,1.2-.8.1-1.7-.3-3.1-.6-.7,1.7-1.6,3.6-2.4,5.6-.6,1.5-1,3-3.1,2.5-1.4-.3-1.8-1-1.2-2.2,3-6.6,5.4-13.5,8.1-20.2.5-.1.9-.2,1.7-.4-.6-.5-.9-.8-1.2-1.1.5-.5.9-.9,1.4-1.4.2-.3.3-.6.5-.9.1-.2.2-.3.3-.5,0-.3,0-.6,0-.9ZM136.2,92.3l.5.9c3.4-.7,6.8-1.5,10.5-2.2-1.7-4.1-3.2-8.1-5.1-12.6-2.2,5.1-4.1,9.6-5.9,14Z"/>
  <path class="st0" d="M178.8,76.4l1-.5-.9-1s-.7-3.1,1.4-3h2.3c.2,0,.4.2.4.4,0,2.6,0,4.9,0,7.2-.2.1-.5.2-.7.3.2.2.5.4.7.6,0,5.1.2,10.3-.4,15.4-.4,3.3-2,6.1-5.8,7.6-3.6,1.4-6.9,2.1-10.6.9-3.8-1.2-6.8-5.7-6.9-9.5,0-5.9-.2-12.6-.3-18.5l1-.8-1.3-.8c0-1-.2-2.8.1-3,.9-.6,2.2-.5,3.3-.4s1.3,1.1,1,1.9-.2.9-.2,1.5c.1,5.9.4,11.8.3,17.7-.1,8.4,4.6,9,10.7,8.4.9,0,2.1-.1,2.4-.7,1-1.7,2.1-3.6,2.4-5.6.4-2.5.2-5.1.2-7.7,0-.5,0-.9,0-1.4,0,0-.2-9-.2-9.1Z"/>
  <path class="st0" d="M177.6,162.3c.8-.9,2.1-.5,3-.4s1.6.9,1.6,1.8c-.5,9.7-.6,19.4.1,29.3s-.9,2.2-2.1,2.1-1.9-.2-2.9-.4c-.3,0-1.2-.9-.7-1.6,1.6-1.3,1.4-3.1,1.4-4.8,0-5.7,0-11.4,0-17.1,0-.9-.4-2.7-.2-3.7l1.1-.6-1.2-.7s-.5-3.4,0-3.9Z"/>
  <path class="st0" d="M192.5,98.1c-.4,0-.8,0-1.4.2.4.4.6.6.9.8-2.4,4.1.3,7.2,2.3,10.5,1.6.3,3.6.5,5.4,1,.4.1.9,1.4.7,1.9-.2.6-1.1,1.6-1.5,1.5-1.9-.2-3.8-.5-5.5-1.2-3.6-1.4-6.1-5.4-6-9.3,0-.7.6-3.2.7-3.4.5-2.1.9-3.4,2.2-5.3l.3-.6c1.1-2.5,3.4-3.2,5.7-4,0,0,3.7-.9,5.6-.9.4,0,2.8.2,3.7.4.5.3,1,.5,1.4.8,3.8.8,6.2,3.6,8.4,6.4,1.3,1.6,2.3,5.5,2.4,7.6,0,1.5,0,3,0,4.4-.1,1-1.6,5.1-1.9,5.8-1.1,2.7-3.9,5.6-6.3,6.9-.3.1-1.1.7-1.6.9-.2,0-3.5,2.2-5.8,2.5-.6,0-2.1.4-3,.4-3.7.4-7.3.3-11.4.7,0,0-2.9.1-3.9,0-1.2,0-2.1,2.8-2.2,3.9-.1,2.1.1,4.3.2,6.4-.2.1-.4.3-.5.4.2,0,.3.2.5.3,0,.4,0,.8,0,1.2-.5.4-1.1.8-1.8,1.3.7.5,1.3.9,1.8,1.3,0,2.3,0,4.6,0,6.8,0,.4,0,.7,0,1.1.2,1.8.6,3.5.6,5.3,0,1.6-1.8,2.2-4.2,1.6-1.5-.3-1.3-1.1-1-2.4.5-2.1.5-4.3.7-6.4.4-.2.7-.4,1.5-.8-.8-.1-1.2-.2-1.5-.2,0-5.9,0-11.7,0-17.6,0-2.6-1.8-2.1-3.4-2.1,0,0-2.3,0-3,0-3.9.6-3.9.6-3.2-4.1,4.5,0,9.1,0,13.7,0,.2.2.4.5.6.7.1-.2.2-.5.4-.7,3.1,0,6.2,0,9.4-.1.9,0,3,0,3.6,0,1.4,0,3.3-.2,4.6-.5s1.5-.5,1.6-.5c2.8-.5,3.3-1.3,5.2-2.6,1.4-1,3.2-1.9,4-3.3,1.1-2,1.7-4.4,2.2-6.6.3-1.2,0-2.6,0-3.8l.6-.4-.6-.4c0-1-.3-2.2-.7-3-2.2-5.2-4.8-7.6-10.1-8.2-.4,0-3.6-.1-4.1,0-3.5.5-5,2.4-5.6,3.5s-.8,2.1-.8,2.1Z"/>
  <path class="st0" d="M94.4,142.2c-.2,0-.5,0-.7,0"/>
  <path class="st0" d="M92.8,154c0,.5.3.9.8.9,1.2.2,2.3.4,3.4.3.5,0,1.3-1.2,1.2-1.8-.2-3.6-.6-7.2-1-10.8l-1-.3,1.1-.2c.1-.8.4-1.6.4-2.4,0-6.4-.4-12.9-.3-19.3,0-1.5-.6-3.7,1.8-4.6,3.2-1.1,5.2-.6,7.5,2.2.9,1.1,2,1.4,3.2.4,1-.8,1.7-1.7.2-2.7-.1.5-.3.9-.4,1.4-.1,0-.3-.1-.4-.2.3-.4.5-.8.7-1.2-.6-.7-1.1-1.4-1.7-2.1-2.9-2.7-7.9-2.9-11.6-1.4-4.5,1.8-5.9,6.4-9.2,9.2-1.4,1.2-2.3,3.1-3.5,4.6-1.9,2.3-3.8,4.6-5.9,6.8-.6.6-2.1.9-2.8.6-.9-.4-1.7-1.9-2.4-2.7h-.5v-.7c-.8-2-2.9-3.8-4.2-5l-.9-.2.4-.8c-.3-.6-1.3-1.7-1.8-2.2-.7-.8-1.6-1.4-2.4-2.2-1.1-1.1-2-2.4-3.2-3.2-2.5-1.7-4.7-2.8-4.8,2.4s-.4,12.8-.4,19.2c0,4,.4,8.1.4,12.1,0,3.3.4,6.7-.4,9.9s-3.9,6.7-5.2,8c-.1.1-.3.3-.4.4-2.3,1.9-8.3,3.2-8.4,3.3-1.1,0-2.4.5-3.4.2-2.4-.8-4.7-2-7-3-.4,0-.9.1-1.3.2l.4-1.2-2.5-5.5-.9-.4.6-.3c-.7-4.9.7-7.5,1-7.8,3.3-5,8.1-7.6,14.6-2.8.3.2.8,1.1,1,1.6.3.4.5,1,.6,1.5.2.8-.2,1.7.2,2.4.3.4.2.8.7,1.1.7.4,1.7.2,2.1-.6s.4-.7.3-1c0-1.1,0-2.2-.5-3.3l-.7-.2.4-.4s-.4-.7-.5-1c-.2-.5-.9-1.2-1.3-1.4h-1.4s.6-.4.9-.6c-1.1-2.6-3.5-3.2-5.9-3.4-2.6-.1-5.6-.5-7.7.6-2.6,1.4-5.3,3.7-6.6,6.3-3.4,6.7-1.3,14.3,4.5,19.5,1.1.9,1.3.8,2.4,1.4s5.5,2,6.8,2.2c1.3.2,2.6,0,3.9,0,0-.4.1-.9.2-1.6.5.4.9.6,1.2.9,2.6-1.1,5.2-2,7.8-3.2.8-.4,3-2.9,3.7-3.6,1.2-1.2,2.8-3.8,3.3-4.6s1.7-4,1.7-4c0-.3.2-1.1.2-1.4.1-3.3-.2-4.2-.2-6.7,0-2.4,0-4.4,0-6.7.2-2.4.3-4.7.5-7.1-.3-.2-.5-.4-.8-.6l.7-.4c-.3-1.2-.6-5.2-.6-5.2l.2-10.6c.3,0,4.5,4.4,6.4,6.6.1.2,2.4,2.2,3.2,3.2,1.8,2.3,3.4,4.8,5.3,7.1,1.2,1.6,2.7,1.2,3.9-.1,1.9-2.2,3.7-4.4,5.5-6.6.3-.3.6-.7.9-1,1.6-2,3.1-4,4.8-5.8.7-.8,2-1,3.1-1.5.2,1.1.6,2.2.7,3.3.2,1.3.2,2.7.3,4-.1.8-.2,1.6-.3,2.4,0,3.1,0,6.2,0,9.3v.5s-.9,11.3-.9,11.3Z"/>
  <path class="st0" d="M217.4,110.4"/>
  <path class="st0" d="M94,130.5c-.1.8-.2,1.6-.3,2.4.1-.8.2-1.6.3-2.4Z"/>
  <path class="st0" d="M207.1,90.5c-.5-.3-1-.5-1.4-.8.5.3,1,.5,1.4.8Z"/>
  <path class="st0" d="M178.9,85.5c0,.5,0,.9,0,1.4v-1.4Z"/>
  <path class="st0" d="M60.3,138c-.3-.2-.5-.4-.8-.6l.7-.4c0,.3,0,.6,0,.9Z"/>
  <path class="st0" d="M54.6,204c-.5-.3-1-.6-1.4-.8.5.3,1,.6,1.4.8Z"/>
  <path class="st0" d="M152.1,40c.5.4,1,.8,1.5,1.3-.5-.4-1-.8-1.5-1.3Z"/>
  <path class="st0" d="M154.8,37.1c-.6-.3-1.1-.6-1.7-.9.6.3,1.1.6,1.7.9Z"/>
  <path class="st0" d="M163.9,126.7c0-.3,0-.6,0-.9,0,.3,0,.6,0,.9Z"/>
  <path class="st0" d="M145.2,207.9c-.3.3-.6.5-1,.8.3-.3.6-.5,1-.8Z"/>
  <path class="st0" d="M78.2,188.1"/>
  <path class="st0" d="M160,56.3l.2-1.3-.2,1.3Z"/>
  <path class="st0" d="M206.6,178.7c-.3-.3-.6-.6-.8-.9.3.3.6.6.8.9Z"/>
  <path class="st0" d="M209.9,173.2c-.1.3-.3.6-.4.9.1-.3.3-.6.4-.9Z"/>
  <path class="st0" d="M110.1,115.8c-.1.5-.3.9-.4,1.4-.1,0-.3-.1-.4-.2.3-.4.5-.8.7-1.2,0,0,0,0,0,0Z"/>
  <path class="st0" d="M78.1,168c0-.3,0-.6,0-.9,0,.3,0,.6,0,.9Z"/>
  <path class="st0" d="M65.4,149.2c0,.3,0,.6,0,.9,0-.3,0-.6,0-.9Z"/>
  <path class="st0" d="M182.1,148.9c0-.4,0-.7,0-1.1,0,.4,0,.7,0,1.1Z"/>
  <path class="st0" d="M190.3,161.5c-.3.3-.7.6-1,.8.3-.3.7-.6,1-.8Z"/>
  <path class="st0" d="M138.6,78l-.5.9.5-.9Z"/>
  <path class="st0" d="M159.8,112.7c.2,0,.3.2.5.3-.2,0-.4.1-.6.2,0-.2,0-.3.1-.5Z"/>
  <path class="st0" d="M139.2,135.2c.2,0,.4.2.6.2-.2,0-.4.2-.6.2,0-.2,0-.3,0-.5Z"/>
  <path class="st0" d="M73.3,131c-.3,0-.5-.2-.8-.3.3,0,.5.2.8.3Z"/>
  <path class="st0" d="M49.9,168.1c-.1.1-.3.3-.4.4.1-.1.3-.3.4-.4Z"/>
  <path class="st0" d="M163.1,193.3c.1-.1.2-.2.3-.4-.1.1-.2.2-.3.4Z"/>
  <path class="st0" d="M113.8,100.9l.4-.4-.4.4Z"/>
  <path class="st0" d="M114.2,101.8c-.1-.1-.3-.3-.4-.4.1.1.3.3.4.4Z"/>
  <path class="st0" d="M148.9,135.3c0,.1.1.2.2.3,0,0-.2-.2-.2-.3Z"/>
  <path class="st0" d="M160,115.4v.7c0,0-.1,0-.2,0v-.7c0,0,.1,0,.2,0Z"/>
  <path class="st0" d="M37.2,147.8c.5-.2,1-.4,1.5-.6,0,.3,0,.6.1.9-.6,0-1.1-.2-1.7-.2h0Z"/>
  <path class="st0" d="M57.3,138.8c0,.1,0,.3-.2.4,0,0-.3,0-.4-.2,0-.1,0-.3.2-.4,0,0,.3,0,.4.2Z"/>
  <path class="st0" d="M46.3,172.8c0,0-.2.2-.3.2,0,0-.2,0-.2-.1,0-.1,0-.2.1-.4.1,0,.2.2.3.3Z"/>
  <path class="st0" d="M39.8,174.4c0,0,.2,0,.2,0,0,0,0,.1,0,.2,0,0-.2,0-.2,0,0,0,0-.1,0-.2Z"/>
  <path class="st0" d="M37.3,147.9c0,0,0,.1-.1.2,0,0,0-.1,0-.2,0,0,0,0,0,0Z"/>
  <path class="st0" d="M216.6,107.8c-.1,0-.3,0-.4-.2,0,0,0-.3.1-.4.1,0,.3,0,.4.2,0,0,0,.3-.1.4Z"/>
  <path class="st0" d="M207.7,92.8c-.1,0-.3,0-.4-.2,0,0,0-.3.1-.4.1,0,.3,0,.4.2,0,0,0,.3-.1.4Z"/>
  <path class="st0" d="M130.8,100.1c0-.1,0-.3.2-.4,0,0,.3,0,.4.2,0,.1,0,.3-.2.4,0,0-.3,0-.4-.2Z"/>
</svg>