<?xml version="1.0" encoding="UTF-8"?>
<svg width="1200pt" height="1200pt" version="1.1" viewBox="0 0 1200 1200" xmlns="http://www.w3.org/2000/svg">
 <g>
  <path d="m1066.8 142.8c12-1.1992 22.801 2.3984 31.199 7.1992 30 18 55.199 42 73.199 73.199 12 21.602 10.801 42-6 60-13.199 14.398-26.398 28.801-39.602 43.199-2.3984 3.6016-8.3984 7.1992-7.1992 10.801 6 14.398-6 19.199-13.199 25.199-31.199 28.801-60 61.199-90 91.199-51.602 51.602-102 104.4-152.4 156-32.398 33.602-64.801 67.199-97.199 100.8-51.602 54-104.4 108-154.8 163.2-12 13.199-25.199 26.398-37.199 40.801-6 7.1992-14.398 13.199-22.801 16.801-33.602 13.199-64.801 32.398-97.199 46.801-25.199 12-49.199 27.602-75.602 38.398-10.801 4.8008-19.199 13.199-30 16.801-6 2.3984-10.801 2.3984-15.602-2.3984-4.8008-4.8008-4.8008-12-1.1992-16.801 16.801-20.398 20.398-46.801 36-67.199 2.3984-3.6016 4.8008-7.1992 6-12 10.801-45.602 26.398-88.801 39.602-134.4 1.1992-6 3.6016-9.6016 8.3984-14.398 54-49.199 99.602-106.8 151.2-158.4 34.801-36 69.602-73.199 103.2-109.2 42-44.398 81.602-91.199 124.8-134.4 33.602-34.801 68.398-67.199 99.602-103.2 20.398-22.801 44.398-42 58.801-69.602 1.1992-2.3984 6-6 8.3984-6 21.602-2.3984 33.602-18 42-34.801 12-21.605 34.801-24.008 57.602-27.605zm45.598 69.598c9.6016-34.801-19.199-56.398-44.398-49.199 8.3984 6 16.801 12 25.199 16.801 2.3984 2.3984 8.3984 3.6016 6 7.1992-4.8008 10.801 6 13.199 9.6016 19.199-15.602-3.6016-22.801-21.602-38.398-26.398 2.3984 9.6016 13.199 14.398 12 25.199-7.1992 0-12-7.1992-18-4.8008 0 8.3984 9.6016 10.801 8.3984 19.199-6-1.1992-7.1992-9.6016-16.801-9.6016 14.398 19.199 33.602 32.398 45.602 51.602l-1.1992-1.1992c-2.3984 9.6016 6 15.602 10.801 24-9.6016-3.6016-19.199-8.3984-25.199-16.801-1.1992-2.3984-3.6016-3.6016-3.6016-7.1992 1.1992-10.801-2.3984-16.801-9.6016-12-8.3984 4.8008-10.801 0-14.398-3.6016-3.6016-4.8008-9.6016-6-13.199-10.801-8.3984-7.1992-21.602-6-26.398-20.398-1.1992-3.6016-9.6016-7.1992-14.398 0-6 7.1992 0 8.3984 4.8008 12 21.602 15.602 42 33.602 61.199 52.801 2.3984 2.3984 6 4.8008 7.1992 7.1992 4.8008 9.6016 13.199-2.3984 19.199 4.8008 3.6016 6 9.6016 10.801 14.398 15.602 2.3984 2.3984 7.1992 2.3984 7.1992-1.1992 2.3984-10.801 14.398-13.199 20.398-20.398 3.6016-3.6016 4.8008-6 2.3984-10.801-4.8008-12-13.199-22.801-21.602-34.801 13.199-2.3984 15.602 13.199 25.199 10.801 2.3984 0 4.8008 0 6 1.1992 3.6016 1.1992 4.8008 7.1992 8.3984 4.8008 4.8008-2.3984 3.6016-7.1992 2.3984-10.801-1.1992-2.3984-2.3984-4.8008-1.1992-8.3984 4.8008-15.602-8.3984-22.801-16.801-32.398-2.3984-3.6016-7.1992 0-9.6016 1.1992-3.6016 2.3984 0 4.8008 1.1992 6 6 4.8008 2.3984 10.801 1.1992 15.602-13.191 3.5938-14.391-10.805-23.992-14.406zm-96 90c-8.3984-7.1992-15.602-13.199-22.801-19.199-6-4.8008-13.199-12-20.398-10.801-4.8008 1.1992-8.3984 8.3984-13.199 13.199-74.398 69.602-144 144-213.6 218.4-46.801 50.398-91.199 102-139.2 151.2-39.602 40.801-78 81.602-116.4 121.2-9.6016 9.6016-18 21.602-26.398 32.398-2.3984 3.6016-6 7.1992-1.1992 12 8.3984 7.1992 18 15.602 26.398 21.602 3.6016 2.3984 7.1992 1.1992 9.6016-1.1992 4.8008-3.6016 8.3984-7.1992 13.199-12 32.398-34.801 64.801-70.801 98.398-104.4 72-72 139.2-147.6 207.6-222 60-64.801 126-124.8 184.8-192 3.5977-3.5977 7.1953-5.9961 13.195-8.3984zm36 43.203c-1.1992-3.6016-2.3984-6-4.8008-8.3984-3.6016-4.8008-9.6016-9.6016-13.199-14.398-6-9.6016-12-10.801-20.398-2.3984-10.801 10.801-22.801 20.398-32.398 31.199-40.801 42-81.602 85.199-122.4 127.2-36 38.398-72 76.801-108 114-51.602 54-99.602 110.4-152.4 162-28.801 28.801-55.199 60-82.801 90-3.6016 3.6016-9.6016 8.3984-3.6016 14.398 8.3984 8.3984 12 20.398 24 24 1.1992 0 3.6016-1.1992 6-2.3984 3.6016-2.3984 6-6 9.6016-9.6016 32.398-33.602 64.801-68.398 98.398-102 37.199-37.199 72-75.602 109.2-114 55.199-57.602 108-117.6 164.4-174 42-42 81.602-86.398 123.6-129.6 0 0 1.1992-3.6016 4.7969-6zm16.801 25.199c-1.1992-6-6-8.3984-12-4.8008-16.801 9.6016-27.602 25.199-40.801 39.602-58.801 60-117.6 120-175.2 180-88.801 92.398-175.2 186-262.8 279.6-9.6016 9.6016-18 20.398-27.602 31.199-2.3984 2.3984-3.6016 6-1.1992 9.6016 3.6016 3.6016 7.1992 1.1992 9.6016-1.1992 9.6016-9.6016 19.199-18 27.602-27.602 54-61.199 115.2-117.6 170.4-177.6 36-38.398 73.199-74.398 109.2-112.8 42-43.199 82.801-86.398 123.6-129.6 22.801-24 49.199-45.602 70.801-72 3.5977-3.5977 8.3984-7.1992 8.3984-14.398zm-528 547.2c-14.398-18-25.199-33.602-38.398-46.801-19.199-19.199-38.398-37.199-63.602-49.199-14.398-7.1992-18-7.1992-22.801 8.3984-9.6016 30-18 60-26.398 90-2.3984 6-2.3984 10.801 4.8008 14.398 13.199 6 22.801 16.801 27.602 30 3.6016 8.3984 8.3984 8.3984 15.602 4.8008 12-4.8008 24-10.801 36-16.801 21.598-10.797 43.195-21.598 67.195-34.797zm416.4-651.6c-10.801-8.3984-16.801-7.1992-22.801 0-20.398 24-44.398 45.602-67.199 68.398-108 106.8-207.6 223.2-314.4 331.2-34.801 34.801-67.199 72-100.8 109.2-6 6-10.801 12-15.602 18-2.3984 3.6016-7.1992 6-1.1992 10.801 4.8008 3.6016 8.3984 2.3984 12-1.1992 4.8008-4.8008 9.6016-8.3984 14.398-13.199 20.398-22.801 40.801-45.602 62.398-67.199 49.199-51.602 98.398-102 146.4-153.6 49.203-52.797 97.203-108 148.8-160.8 46.797-46.801 91.199-93.602 138-141.6zm20.398-37.199c-8.3984 0-13.199 6-16.801 12-3.6016 6 3.6016 8.3984 7.1992 10.801 3.6016 2.3984 7.1992 4.8008 10.801 7.1992 27.602 14.398 48 34.801 67.199 57.602 9.6016 12 20.398 22.801 28.801 34.801 6 7.1992 10.801 6 15.602 1.1992 8.3984-7.1992 9.6016-15.602 2.3984-25.199-27.602-42-66-73.199-110.4-96 0-1.2031-2.4023-1.2031-4.8008-2.4023zm72-61.199c-15.602 1.1992-24 13.199-31.199 24-2.3984 3.6016 0 7.1992 2.3984 9.6016 2.3984 2.3984 6 2.3984 8.3984 1.1992 2.3984-2.3984 8.3984-3.6016 4.8008-7.1992-8.3984-12 1.1992-7.1992 6-9.6016 7.1992-4.8008 13.199 2.3984 19.199-1.1992-1.1992-7.1992-4.7969-13.199-9.5977-16.801zm94.801 93.602c-1.1992 1.1992-3.6016 1.1992-2.3984 2.3984 1.1992 3.6016 2.3984 7.1992 7.1992 7.1992 1.1992 0 2.3984-1.1992 2.3984-2.3984-1.1992-4.8008-3.6016-7.1992-7.1992-7.1992z"/>
  <path d="m92.398 1017.6c8.3984 0 16.801 1.1992 25.199 4.8008 18 8.3984 33.602 9.6016 50.398-3.6016 20.398-14.398 34.801-12 52.801 4.8008 10.801 10.801 21.602 9.6016 34.801 6 16.801-4.8008 33.602-9.6016 51.602-2.3984 3.6016 1.1992 7.1992 2.3984 9.6016 3.6016 3.6016 2.3984 7.1992 6 4.8008 10.801-1.1992 3.6016-6 3.6016-9.6016 3.6016-6-1.1992-12-1.1992-16.801-2.3984-12-3.6016-24-3.6016-37.199 0-18 4.8008-33.602 4.8008-49.199-8.3984-8.3984-8.3984-18-9.6016-31.199-1.1992-18 12-38.398 20.398-63.602 7.1992-24-13.199-32.398-9.6016-51.602 12l-10.801 10.801c-7.1992 8.3984-12 0-16.801-2.3984-6-2.3984-4.8008-8.3984 0-13.199 16.805-16.812 33.602-30.012 57.602-30.012z"/>
  <path d="m1100.4 261.6c0-6 4.8008-8.3984 8.3984-12 2.3984-2.3984 4.8008-3.6016 7.1992-1.1992 1.1992 2.3984 3.6016 4.8008 3.6016 7.1992 0 3.6016-3.6016 3.6016-6 4.8008-4.7969 3.5977-9.5977-2.4023-13.199 1.1992z"/>
 </g>
</svg>
