<?xml version="1.0" encoding="UTF-8" standalone="no"?>
<!-- Created with Inkscape (http://www.inkscape.org/) -->

<svg
   version="1.1"
   id="svg1"
   width="923.85333"
   height="131.76987"
   viewBox="0 0 923.85332 131.76986"
   xmlns="http://www.w3.org/2000/svg"
   xmlns:svg="http://www.w3.org/2000/svg">
  <defs
     id="defs1">
    <clipPath
       clipPathUnits="userSpaceOnUse"
       id="clipPath739">
      <path
         d="M 0,98.827 H 692.89 V 0 H 0 Z"
         transform="translate(-459.19794,-24.765)"
         id="path739" />
    </clipPath>
    <clipPath
       clipPathUnits="userSpaceOnUse"
       id="clipPath741">
      <path
         d="M 0,98.827 H 692.89 V 0 H 0 Z"
         transform="translate(-159.84293,-40.928301)"
         id="path741" />
    </clipPath>
    <clipPath
       clipPathUnits="userSpaceOnUse"
       id="clipPath743">
      <path
         d="M 0,98.827 H 692.89 V 0 H 0 Z"
         transform="translate(-316.17278,-19.106803)"
         id="path743" />
    </clipPath>
    <clipPath
       clipPathUnits="userSpaceOnUse"
       id="clipPath745">
      <path
         d="M 0,98.827 H 692.89 V 0 H 0 Z"
         transform="translate(-587.74704,-56.185701)"
         id="path745" />
    </clipPath>
    <clipPath
       clipPathUnits="userSpaceOnUse"
       id="clipPath747">
      <path
         d="M 0,98.827 H 692.89 V 0 H 0 Z"
         transform="translate(-627.13134,-39.773601)"
         id="path747" />
    </clipPath>
    <clipPath
       clipPathUnits="userSpaceOnUse"
       id="clipPath749">
      <path
         d="M 0,98.827 H 692.89 V 0 H 0 Z"
         transform="translate(-656.41112,-57.206802)"
         id="path749" />
    </clipPath>
    <clipPath
       clipPathUnits="userSpaceOnUse"
       id="clipPath751">
      <path
         d="M 0,98.827 H 692.89 V 0 H 0 Z"
         transform="translate(-608.26839,-40.368101)"
         id="path751" />
    </clipPath>
    <clipPath
       clipPathUnits="userSpaceOnUse"
       id="clipPath753">
      <path
         d="M 0,98.827 H 692.89 V 0 H 0 Z"
         transform="translate(-673.64004,-30.178601)"
         id="path753" />
    </clipPath>
    <clipPath
       clipPathUnits="userSpaceOnUse"
       id="clipPath755">
      <path
         d="M 0,98.827 H 692.89 V 0 H 0 Z"
         transform="translate(-588.30399,-67.085101)"
         id="path755" />
    </clipPath>
    <clipPath
       clipPathUnits="userSpaceOnUse"
       id="clipPath757">
      <path
         d="M 0,98.827 H 692.89 V 0 H 0 Z"
         transform="translate(-630.85322,-47.141801)"
         id="path757" />
    </clipPath>
    <clipPath
       clipPathUnits="userSpaceOnUse"
       id="clipPath759">
      <path
         d="M 0,98.827 H 692.89 V 0 H 0 Z"
         transform="translate(-654.99369,-65.021302)"
         id="path759" />
    </clipPath>
    <clipPath
       clipPathUnits="userSpaceOnUse"
       id="clipPath761">
      <path
         d="M 0,98.827 H 692.89 V 0 H 0 Z"
         transform="translate(-608.67969,-46.747801)"
         id="path761" />
    </clipPath>
    <clipPath
       clipPathUnits="userSpaceOnUse"
       id="clipPath763">
      <path
         d="M 0,98.827 H 692.89 V 0 H 0 Z"
         transform="translate(-275.09341,-50.935701)"
         id="path763" />
    </clipPath>
    <clipPath
       clipPathUnits="userSpaceOnUse"
       id="clipPath765">
      <path
         d="M 0,98.827 H 692.89 V 0 H 0 Z"
         transform="translate(-297.83101,-40.368101)"
         id="path765" />
    </clipPath>
    <clipPath
       clipPathUnits="userSpaceOnUse"
       id="clipPath767">
      <path
         d="M 0,98.827 H 692.89 V 0 H 0 Z"
         transform="translate(-275.76248,-59.452501)"
         id="path767" />
    </clipPath>
    <clipPath
       clipPathUnits="userSpaceOnUse"
       id="clipPath769">
      <path
         d="M 0,98.827 H 692.89 V 0 H 0 Z"
         transform="translate(-298.24231,-46.747801)"
         id="path769" />
    </clipPath>
    <clipPath
       clipPathUnits="userSpaceOnUse"
       id="clipPath771">
      <path
         d="M 0,98.827 H 692.89 V 0 H 0 Z"
         transform="translate(-673.35932,-34.646401)"
         id="path771" />
    </clipPath>
    <clipPath
       clipPathUnits="userSpaceOnUse"
       id="clipPath773">
      <path
         d="M 0,98.827 H 692.89 V 0 H 0 Z"
         transform="translate(-50.891026,-56.185701)"
         id="path773" />
    </clipPath>
    <clipPath
       clipPathUnits="userSpaceOnUse"
       id="clipPath775">
      <path
         d="M 0,98.827 H 692.89 V 0 H 0 Z"
         transform="translate(-90.275327,-39.773601)"
         id="path775" />
    </clipPath>
    <clipPath
       clipPathUnits="userSpaceOnUse"
       id="clipPath777">
      <path
         d="M 0,98.827 H 692.89 V 0 H 0 Z"
         transform="translate(-119.5551,-57.206802)"
         id="path777" />
    </clipPath>
    <clipPath
       clipPathUnits="userSpaceOnUse"
       id="clipPath779">
      <path
         d="M 0,98.827 H 692.89 V 0 H 0 Z"
         transform="translate(-71.412377,-40.368101)"
         id="path779" />
    </clipPath>
    <clipPath
       clipPathUnits="userSpaceOnUse"
       id="clipPath781">
      <path
         d="M 0,98.827 H 692.89 V 0 H 0 Z"
         transform="translate(-136.78388,-30.178601)"
         id="path781" />
    </clipPath>
    <clipPath
       clipPathUnits="userSpaceOnUse"
       id="clipPath783">
      <path
         d="M 0,98.827 H 692.89 V 0 H 0 Z"
         transform="translate(-51.447976,-67.085101)"
         id="path783" />
    </clipPath>
    <clipPath
       clipPathUnits="userSpaceOnUse"
       id="clipPath785">
      <path
         d="M 0,98.827 H 692.89 V 0 H 0 Z"
         transform="translate(-93.997202,-47.141801)"
         id="path785" />
    </clipPath>
    <clipPath
       clipPathUnits="userSpaceOnUse"
       id="clipPath787">
      <path
         d="M 0,98.827 H 692.89 V 0 H 0 Z"
         transform="translate(-118.1376,-65.021302)"
         id="path787" />
    </clipPath>
    <clipPath
       clipPathUnits="userSpaceOnUse"
       id="clipPath789">
      <path
         d="M 0,98.827 H 692.89 V 0 H 0 Z"
         transform="translate(-71.823677,-46.747801)"
         id="path789" />
    </clipPath>
    <clipPath
       clipPathUnits="userSpaceOnUse"
       id="clipPath791">
      <path
         d="M 0,98.827 H 692.89 V 0 H 0 Z"
         transform="translate(-136.50323,-34.646401)"
         id="path791" />
    </clipPath>
    <radialGradient
       fx="0"
       fy="0"
       cx="0"
       cy="0"
       r="1"
       gradientUnits="userSpaceOnUse"
       gradientTransform="matrix(-1.1792247,-0.6168598,-0.714774,1.3534701,573.45612,40.173347)"
       spreadMethod="pad"
       id="radialGradient794">
      <stop
         style="stop-opacity:1;stop-color:#fbf99e"
         offset="0"
         id="stop791" />
      <stop
         style="stop-opacity:1;stop-color:#fbf99e"
         offset="0.126924"
         id="stop792" />
      <stop
         style="stop-opacity:1;stop-color:#fbd340"
         offset="0.89405196"
         id="stop793" />
      <stop
         style="stop-opacity:1;stop-color:#fbd340"
         offset="1"
         id="stop794" />
    </radialGradient>
    <clipPath
       clipPathUnits="userSpaceOnUse"
       id="clipPath796">
      <path
         d="M 0,98.827 H 692.89 V 0 H 0 Z"
         transform="translate(-573.22441,-42.506101)"
         id="path796" />
    </clipPath>
    <radialGradient
       fx="0"
       fy="0"
       cx="0"
       cy="0"
       r="1"
       gradientUnits="userSpaceOnUse"
       gradientTransform="matrix(-1.3199438,-0.1698105,-0.201248,1.5173274,546.15778,29.194345)"
       spreadMethod="pad"
       id="radialGradient799">
      <stop
         style="stop-opacity:1;stop-color:#fbf99e"
         offset="0"
         id="stop796" />
      <stop
         style="stop-opacity:1;stop-color:#fbf99e"
         offset="0.126924"
         id="stop797" />
      <stop
         style="stop-opacity:1;stop-color:#fbd340"
         offset="0.89405196"
         id="stop798" />
      <stop
         style="stop-opacity:1;stop-color:#fbd340"
         offset="1"
         id="stop799" />
    </radialGradient>
    <clipPath
       clipPathUnits="userSpaceOnUse"
       id="clipPath801">
      <path
         d="M 0,98.827 H 692.89 V 0 H 0 Z"
         transform="translate(-546.74911,-31.462801)"
         id="path801" />
    </clipPath>
    <radialGradient
       fx="0"
       fy="0"
       cx="0"
       cy="0"
       r="1"
       gradientUnits="userSpaceOnUse"
       gradientTransform="matrix(-1.1649295,0.6434487,0.7347952,1.342706,522.82214,32.641464)"
       spreadMethod="pad"
       id="radialGradient804">
      <stop
         style="stop-opacity:1;stop-color:#fbf99e"
         offset="0"
         id="stop801" />
      <stop
         style="stop-opacity:1;stop-color:#fbf99e"
         offset="0.126924"
         id="stop802" />
      <stop
         style="stop-opacity:1;stop-color:#fbd340"
         offset="0.89405196"
         id="stop803" />
      <stop
         style="stop-opacity:1;stop-color:#fbd340"
         offset="1"
         id="stop804" />
    </radialGradient>
    <clipPath
       clipPathUnits="userSpaceOnUse"
       id="clipPath806">
      <path
         d="M 0,98.827 H 692.89 V 0 H 0 Z"
         transform="translate(-524.64031,-34.121301)"
         id="path806" />
    </clipPath>
    <radialGradient
       fx="0"
       fy="0"
       cx="0"
       cy="0"
       r="1"
       gradientUnits="userSpaceOnUse"
       gradientTransform="matrix(-0.9799485,0.9004378,1.0311964,1.1311133,506.47046,43.991745)"
       spreadMethod="pad"
       id="radialGradient809">
      <stop
         style="stop-opacity:1;stop-color:#fbf99e"
         offset="0"
         id="stop806" />
      <stop
         style="stop-opacity:1;stop-color:#fbf99e"
         offset="0.126924"
         id="stop807" />
      <stop
         style="stop-opacity:1;stop-color:#fbd340"
         offset="0.89405196"
         id="stop808" />
      <stop
         style="stop-opacity:1;stop-color:#fbd340"
         offset="1"
         id="stop809" />
    </radialGradient>
    <clipPath
       clipPathUnits="userSpaceOnUse"
       id="clipPath811">
      <path
         d="M 0,98.827 H 692.89 V 0 H 0 Z"
         transform="translate(-508.58671,-45.000201)"
         id="path811" />
    </clipPath>
    <radialGradient
       fx="0"
       fy="0"
       cx="0"
       cy="0"
       r="1"
       gradientUnits="userSpaceOnUse"
       gradientTransform="matrix(-1.3288709,-0.0720367,-0.0888366,1.5280352,453.83487,41.12841)"
       spreadMethod="pad"
       id="radialGradient814">
      <stop
         style="stop-opacity:1;stop-color:#fbf99e"
         offset="0"
         id="stop811" />
      <stop
         style="stop-opacity:1;stop-color:#fbf99e"
         offset="0.126924"
         id="stop812" />
      <stop
         style="stop-opacity:1;stop-color:#fbd340"
         offset="0.89405196"
         id="stop813" />
      <stop
         style="stop-opacity:1;stop-color:#fbd340"
         offset="1"
         id="stop814" />
    </radialGradient>
    <clipPath
       clipPathUnits="userSpaceOnUse"
       id="clipPath816">
      <path
         d="M 0,98.827 H 692.89 V 0 H 0 Z"
         transform="translate(-454.59189,-43.347101)"
         id="path816" />
    </clipPath>
    <radialGradient
       fx="0"
       fy="0"
       cx="0"
       cy="0"
       r="1"
       gradientUnits="userSpaceOnUse"
       gradientTransform="matrix(-1.3156855,-0.2001473,-0.2361196,1.5122932,480.38773,45.217991)"
       spreadMethod="pad"
       id="radialGradient819">
      <stop
         style="stop-opacity:1;stop-color:#fbf99e"
         offset="0"
         id="stop816" />
      <stop
         style="stop-opacity:1;stop-color:#fbf99e"
         offset="0.126924"
         id="stop817" />
      <stop
         style="stop-opacity:1;stop-color:#fbd340"
         offset="0.89405196"
         id="stop818" />
      <stop
         style="stop-opacity:1;stop-color:#fbd340"
         offset="1"
         id="stop819" />
    </radialGradient>
    <clipPath
       clipPathUnits="userSpaceOnUse"
       id="clipPath821">
      <path
         d="M 0,98.827 H 692.89 V 0 H 0 Z"
         transform="translate(-480.92671,-47.499501)"
         id="path821" />
    </clipPath>
    <radialGradient
       fx="0"
       fy="0"
       cx="0"
       cy="0"
       r="1"
       gradientUnits="userSpaceOnUse"
       gradientTransform="matrix(-1.3052644,0.2595617,0.2926473,1.5023783,426.4071,41.649887)"
       spreadMethod="pad"
       id="radialGradient824">
      <stop
         style="stop-opacity:1;stop-color:#fbf99e"
         offset="0"
         id="stop821" />
      <stop
         style="stop-opacity:1;stop-color:#fbf99e"
         offset="0.126924"
         id="stop822" />
      <stop
         style="stop-opacity:1;stop-color:#fbd340"
         offset="0.89405196"
         id="stop823" />
      <stop
         style="stop-opacity:1;stop-color:#fbd340"
         offset="1"
         id="stop824" />
    </radialGradient>
    <clipPath
       clipPathUnits="userSpaceOnUse"
       id="clipPath826">
      <path
         d="M 0,98.827 H 692.89 V 0 H 0 Z"
         transform="translate(-427.69044,-43.611701)"
         id="path826" />
    </clipPath>
    <radialGradient
       fx="0"
       fy="0"
       cx="0"
       cy="0"
       r="1"
       gradientUnits="userSpaceOnUse"
       gradientTransform="matrix(-1.306861,0.251399,0.283252,1.504178,403.77652,45.910118)"
       spreadMethod="pad"
       id="radialGradient829">
      <stop
         style="stop-opacity:1;stop-color:#fbf99e"
         offset="0"
         id="stop826" />
      <stop
         style="stop-opacity:1;stop-color:#fbf99e"
         offset="0.126924"
         id="stop827" />
      <stop
         style="stop-opacity:1;stop-color:#fbd340"
         offset="0.89405196"
         id="stop828" />
      <stop
         style="stop-opacity:1;stop-color:#fbd340"
         offset="1"
         id="stop829" />
    </radialGradient>
    <clipPath
       clipPathUnits="userSpaceOnUse"
       id="clipPath831">
      <path
         d="M 0,98.827 H 692.89 V 0 H 0 Z"
         transform="translate(-405.04749,-47.879901)"
         id="path831" />
    </clipPath>
    <radialGradient
       fx="0"
       fy="0"
       cx="0"
       cy="0"
       r="1"
       gradientUnits="userSpaceOnUse"
       gradientTransform="matrix(-1.2488381,0.4598811,0.5232926,1.4383838,380.5343,53.505219)"
       spreadMethod="pad"
       id="radialGradient834">
      <stop
         style="stop-opacity:1;stop-color:#fbf99e"
         offset="0"
         id="stop831" />
      <stop
         style="stop-opacity:1;stop-color:#fbf99e"
         offset="0.126924"
         id="stop832" />
      <stop
         style="stop-opacity:1;stop-color:#fbd340"
         offset="0.89405196"
         id="stop833" />
      <stop
         style="stop-opacity:1;stop-color:#fbd340"
         offset="1"
         id="stop834" />
    </radialGradient>
    <clipPath
       clipPathUnits="userSpaceOnUse"
       id="clipPath836">
      <path
         d="M 0,98.827 H 692.89 V 0 H 0 Z"
         transform="translate(-382.10783,-55.243002)"
         id="path836" />
    </clipPath>
    <radialGradient
       fx="0"
       fy="0"
       cx="0"
       cy="0"
       r="1"
       gradientUnits="userSpaceOnUse"
       gradientTransform="matrix(-1.0888019,-0.7652436,-0.8850256,1.2488046,355.62997,50.807419)"
       spreadMethod="pad"
       id="radialGradient839">
      <stop
         style="stop-opacity:1;stop-color:#fbf99e"
         offset="0"
         id="stop836" />
      <stop
         style="stop-opacity:1;stop-color:#fbf99e"
         offset="0.126924"
         id="stop837" />
      <stop
         style="stop-opacity:1;stop-color:#fbd340"
         offset="0.89405196"
         id="stop838" />
      <stop
         style="stop-opacity:1;stop-color:#fbd340"
         offset="1"
         id="stop839" />
    </radialGradient>
    <clipPath
       clipPathUnits="userSpaceOnUse"
       id="clipPath841">
      <path
         d="M 0,98.827 H 692.89 V 0 H 0 Z"
         transform="translate(-355.09628,-53.090101)"
         id="path841" />
    </clipPath>
    <radialGradient
       fx="0"
       fy="0"
       cx="0"
       cy="0"
       r="1"
       gradientUnits="userSpaceOnUse"
       gradientTransform="matrix(-1.301699,-0.2768876,-0.3243171,1.4958615,333.95453,39.258118)"
       spreadMethod="pad"
       id="radialGradient844">
      <stop
         style="stop-opacity:1;stop-color:#fbf99e"
         offset="0"
         id="stop841" />
      <stop
         style="stop-opacity:1;stop-color:#fbf99e"
         offset="0.126924"
         id="stop842" />
      <stop
         style="stop-opacity:1;stop-color:#fbd340"
         offset="0.89405196"
         id="stop843" />
      <stop
         style="stop-opacity:1;stop-color:#fbd340"
         offset="1"
         id="stop844" />
    </radialGradient>
    <clipPath
       clipPathUnits="userSpaceOnUse"
       id="clipPath846">
      <path
         d="M 0,98.827 H 692.89 V 0 H 0 Z"
         transform="translate(-334.35893,-41.567201)"
         id="path846" />
    </clipPath>
    <radialGradient
       fx="0"
       fy="0"
       cx="0"
       cy="0"
       r="1"
       gradientUnits="userSpaceOnUse"
       gradientTransform="matrix(-1.3255264,0.1186038,0.1304377,1.5250473,309.99985,36.540619)"
       spreadMethod="pad"
       id="radialGradient849">
      <stop
         style="stop-opacity:1;stop-color:#fbf99e"
         offset="0"
         id="stop846" />
      <stop
         style="stop-opacity:1;stop-color:#fbf99e"
         offset="0.126924"
         id="stop847" />
      <stop
         style="stop-opacity:1;stop-color:#fbd340"
         offset="0.89405196"
         id="stop848" />
      <stop
         style="stop-opacity:1;stop-color:#fbd340"
         offset="1"
         id="stop849" />
    </radialGradient>
    <clipPath
       clipPathUnits="userSpaceOnUse"
       id="clipPath851">
      <path
         d="M 0,98.827 H 692.89 V 0 H 0 Z"
         transform="translate(-311.06618,-38.628401)"
         id="path851" />
    </clipPath>
    <radialGradient
       fx="0"
       fy="0"
       cx="0"
       cy="0"
       r="1"
       gradientUnits="userSpaceOnUse"
       gradientTransform="matrix(-1.1980723,0.5794048,0.6609878,1.3805355,281.53265,37.10384)"
       spreadMethod="pad"
       id="radialGradient854">
      <stop
         style="stop-opacity:1;stop-color:#fbf99e"
         offset="0"
         id="stop851" />
      <stop
         style="stop-opacity:1;stop-color:#fbf99e"
         offset="0.126924"
         id="stop852" />
      <stop
         style="stop-opacity:1;stop-color:#fbd340"
         offset="0.89405196"
         id="stop853" />
      <stop
         style="stop-opacity:1;stop-color:#fbd340"
         offset="1"
         id="stop854" />
    </radialGradient>
    <clipPath
       clipPathUnits="userSpaceOnUse"
       id="clipPath856">
      <path
         d="M 0,98.827 H 692.89 V 0 H 0 Z"
         transform="translate(-283.26803,-38.680001)"
         id="path856" />
    </clipPath>
    <radialGradient
       fx="0"
       fy="0"
       cx="0"
       cy="0"
       r="1"
       gradientUnits="userSpaceOnUse"
       gradientTransform="matrix(-1.2613043,-0.4244983,-0.493905,1.4487377,253.6833,34.829624)"
       spreadMethod="pad"
       id="radialGradient859">
      <stop
         style="stop-opacity:1;stop-color:#fbf99e"
         offset="0"
         id="stop856" />
      <stop
         style="stop-opacity:1;stop-color:#fbf99e"
         offset="0.126924"
         id="stop857" />
      <stop
         style="stop-opacity:1;stop-color:#fbd340"
         offset="0.89405196"
         id="stop858" />
      <stop
         style="stop-opacity:1;stop-color:#fbd340"
         offset="1"
         id="stop859" />
    </radialGradient>
    <clipPath
       clipPathUnits="userSpaceOnUse"
       id="clipPath861">
      <path
         d="M 0,98.827 H 692.89 V 0 H 0 Z"
         transform="translate(-253.81988,-37.169901)"
         id="path861" />
    </clipPath>
    <radialGradient
       fx="0"
       fy="0"
       cx="0"
       cy="0"
       r="1"
       gradientUnits="userSpaceOnUse"
       gradientTransform="matrix(-1.1195825,0.7194595,0.8224208,1.2908939,222.75992,34.290249)"
       spreadMethod="pad"
       id="radialGradient864">
      <stop
         style="stop-opacity:1;stop-color:#fbf99e"
         offset="0"
         id="stop861" />
      <stop
         style="stop-opacity:1;stop-color:#fbf99e"
         offset="0.126924"
         id="stop862" />
      <stop
         style="stop-opacity:1;stop-color:#fbd340"
         offset="0.89405196"
         id="stop863" />
      <stop
         style="stop-opacity:1;stop-color:#fbd340"
         offset="1"
         id="stop864" />
    </radialGradient>
    <clipPath
       clipPathUnits="userSpaceOnUse"
       id="clipPath866">
      <path
         d="M 0,98.827 H 692.89 V 0 H 0 Z"
         transform="translate(-224.67241,-35.646001)"
         id="path866" />
    </clipPath>
    <radialGradient
       fx="0"
       fy="0"
       cx="0"
       cy="0"
       r="1"
       gradientUnits="userSpaceOnUse"
       gradientTransform="matrix(-1.1195825,0.7194595,0.8224208,1.2908939,200.45341,48.339527)"
       spreadMethod="pad"
       id="radialGradient869">
      <stop
         style="stop-opacity:1;stop-color:#fbf99e"
         offset="0"
         id="stop866" />
      <stop
         style="stop-opacity:1;stop-color:#fbf99e"
         offset="0.126924"
         id="stop867" />
      <stop
         style="stop-opacity:1;stop-color:#fbd340"
         offset="0.89405196"
         id="stop868" />
      <stop
         style="stop-opacity:1;stop-color:#fbd340"
         offset="1"
         id="stop869" />
    </radialGradient>
    <clipPath
       clipPathUnits="userSpaceOnUse"
       id="clipPath871">
      <path
         d="M 0,98.827 H 692.89 V 0 H 0 Z"
         transform="translate(-202.36591,-49.695301)"
         id="path871" />
    </clipPath>
    <radialGradient
       fx="0"
       fy="0"
       cx="0"
       cy="0"
       r="1"
       gradientUnits="userSpaceOnUse"
       gradientTransform="matrix(-1.1164322,-0.7243387,-0.8381045,1.280767,181.82037,33.97657)"
       spreadMethod="pad"
       id="radialGradient874">
      <stop
         style="stop-opacity:1;stop-color:#fbf99e"
         offset="0"
         id="stop871" />
      <stop
         style="stop-opacity:1;stop-color:#fbf99e"
         offset="0.126924"
         id="stop872" />
      <stop
         style="stop-opacity:1;stop-color:#fbd340"
         offset="0.89405196"
         id="stop873" />
      <stop
         style="stop-opacity:1;stop-color:#fbd340"
         offset="1"
         id="stop874" />
    </radialGradient>
    <clipPath
       clipPathUnits="userSpaceOnUse"
       id="clipPath876">
      <path
         d="M 0,98.827 H 692.89 V 0 H 0 Z"
         transform="translate(-181.37168,-36.277501)"
         id="path876" />
    </clipPath>
    <radialGradient
       fx="0"
       fy="0"
       cx="0"
       cy="0"
       r="1"
       gradientUnits="userSpaceOnUse"
       gradientTransform="matrix(-1.2917035,-0.3202955,-0.3741964,1.48417,162.08168,24.487282)"
       spreadMethod="pad"
       id="radialGradient879">
      <stop
         style="stop-opacity:1;stop-color:#fbf99e"
         offset="0"
         id="stop876" />
      <stop
         style="stop-opacity:1;stop-color:#fbf99e"
         offset="0.126924"
         id="stop877" />
      <stop
         style="stop-opacity:1;stop-color:#fbd340"
         offset="0.89405196"
         id="stop878" />
      <stop
         style="stop-opacity:1;stop-color:#fbd340"
         offset="1"
         id="stop879" />
    </radialGradient>
    <clipPath
       clipPathUnits="userSpaceOnUse"
       id="clipPath881">
      <path
         d="M 0,98.827 H 692.89 V 0 H 0 Z"
         transform="translate(-162.4086,-26.8086)"
         id="path881" />
    </clipPath>
    <radialGradient
       fx="0"
       fy="0"
       cx="0"
       cy="0"
       r="1"
       gradientUnits="userSpaceOnUse"
       gradientTransform="matrix(-1.315338,0.2024182,0.2268801,1.5137069,140.28845,22.781948)"
       spreadMethod="pad"
       id="radialGradient884">
      <stop
         style="stop-opacity:1;stop-color:#fbf99e"
         offset="0"
         id="stop881" />
      <stop
         style="stop-opacity:1;stop-color:#fbf99e"
         offset="0.126924"
         id="stop882" />
      <stop
         style="stop-opacity:1;stop-color:#fbd340"
         offset="0.89405196"
         id="stop883" />
      <stop
         style="stop-opacity:1;stop-color:#fbd340"
         offset="1"
         id="stop884" />
    </radialGradient>
    <clipPath
       clipPathUnits="userSpaceOnUse"
       id="clipPath886">
      <path
         d="M 0,98.827 H 692.89 V 0 H 0 Z"
         transform="translate(-141.48503,-24.797901)"
         id="path886" />
    </clipPath>
    <radialGradient
       fx="0"
       fy="0"
       cx="0"
       cy="0"
       r="1"
       gradientUnits="userSpaceOnUse"
       gradientTransform="matrix(-0.7660878,1.088208,1.2481178,0.885994,121.13653,33.505455)"
       spreadMethod="pad"
       id="radialGradient889">
      <stop
         style="stop-opacity:1;stop-color:#fbf99e"
         offset="0"
         id="stop886" />
      <stop
         style="stop-opacity:1;stop-color:#fbf99e"
         offset="0.126924"
         id="stop887" />
      <stop
         style="stop-opacity:1;stop-color:#fbd340"
         offset="0.89405196"
         id="stop888" />
      <stop
         style="stop-opacity:1;stop-color:#fbd340"
         offset="1"
         id="stop889" />
    </radialGradient>
    <clipPath
       clipPathUnits="userSpaceOnUse"
       id="clipPath891">
      <path
         d="M 0,98.827 H 692.89 V 0 H 0 Z"
         transform="translate(-123.4188,-34.040901)"
         id="path891" />
    </clipPath>
    <radialGradient
       fx="0"
       fy="0"
       cx="0"
       cy="0"
       r="1"
       gradientUnits="userSpaceOnUse"
       gradientTransform="matrix(-0.9125735,-0.968679,-1.1182765,1.0451533,108.14032,42.755051)"
       spreadMethod="pad"
       id="radialGradient894">
      <stop
         style="stop-opacity:1;stop-color:#fbf99e"
         offset="0"
         id="stop891" />
      <stop
         style="stop-opacity:1;stop-color:#fbf99e"
         offset="0.126924"
         id="stop892" />
      <stop
         style="stop-opacity:1;stop-color:#fbd340"
         offset="0.89405196"
         id="stop893" />
      <stop
         style="stop-opacity:1;stop-color:#fbd340"
         offset="1"
         id="stop894" />
    </radialGradient>
    <clipPath
       clipPathUnits="userSpaceOnUse"
       id="clipPath896">
      <path
         d="M 0,98.827 H 692.89 V 0 H 0 Z"
         transform="translate(-107.1582,-44.883701)"
         id="path896" />
    </clipPath>
    <radialGradient
       fx="0"
       fy="0"
       cx="0"
       cy="0"
       r="1"
       gradientUnits="userSpaceOnUse"
       gradientTransform="matrix(-1.3029057,-0.2712307,-0.3179031,1.4972726,85.373962,27.999161)"
       spreadMethod="pad"
       id="radialGradient899">
      <stop
         style="stop-opacity:1;stop-color:#fbf99e"
         offset="0"
         id="stop896" />
      <stop
         style="stop-opacity:1;stop-color:#fbf99e"
         offset="0.126924"
         id="stop897" />
      <stop
         style="stop-opacity:1;stop-color:#fbd340"
         offset="0.89405196"
         id="stop898" />
      <stop
         style="stop-opacity:1;stop-color:#fbd340"
         offset="1"
         id="stop899" />
    </radialGradient>
    <clipPath
       clipPathUnits="userSpaceOnUse"
       id="clipPath901">
      <path
         d="M 0,98.827 H 692.89 V 0 H 0 Z"
         transform="translate(-85.788302,-30.306501)"
         id="path901" />
    </clipPath>
    <radialGradient
       fx="0"
       fy="0"
       cx="0"
       cy="0"
       r="1"
       gradientUnits="userSpaceOnUse"
       gradientTransform="matrix(-1.0720383,0.7885831,0.9020759,1.2365867,57.952976,31.987772)"
       spreadMethod="pad"
       id="radialGradient904">
      <stop
         style="stop-opacity:1;stop-color:#fbf99e"
         offset="0"
         id="stop901" />
      <stop
         style="stop-opacity:1;stop-color:#fbf99e"
         offset="0.126924"
         id="stop902" />
      <stop
         style="stop-opacity:1;stop-color:#fbd340"
         offset="0.89405196"
         id="stop903" />
      <stop
         style="stop-opacity:1;stop-color:#fbd340"
         offset="1"
         id="stop904" />
    </radialGradient>
    <clipPath
       clipPathUnits="userSpaceOnUse"
       id="clipPath906">
      <path
         d="M 0,98.827 H 692.89 V 0 H 0 Z"
         transform="translate(-59.946976,-33.220401)"
         id="path906" />
    </clipPath>
    <radialGradient
       fx="0"
       fy="0"
       cx="0"
       cy="0"
       r="1"
       gradientUnits="userSpaceOnUse"
       gradientTransform="matrix(-1.1603589,-0.6516874,-0.7548269,1.331587,36.676994,41.19268)"
       spreadMethod="pad"
       id="radialGradient909">
      <stop
         style="stop-opacity:1;stop-color:#fbf99e"
         offset="0"
         id="stop906" />
      <stop
         style="stop-opacity:1;stop-color:#fbf99e"
         offset="0.126924"
         id="stop907" />
      <stop
         style="stop-opacity:1;stop-color:#fbd340"
         offset="0.89405196"
         id="stop908" />
      <stop
         style="stop-opacity:1;stop-color:#fbd340"
         offset="1"
         id="stop909" />
    </radialGradient>
    <clipPath
       clipPathUnits="userSpaceOnUse"
       id="clipPath911">
      <path
         d="M 0,98.827 H 692.89 V 0 H 0 Z"
         transform="translate(-36.375901,-43.517501)"
         id="path911" />
    </clipPath>
    <radialGradient
       fx="0"
       fy="0"
       cx="0"
       cy="0"
       r="1"
       gradientUnits="userSpaceOnUse"
       gradientTransform="matrix(-1.2916214,-0.3206918,-0.3747383,1.4840684,15.463978,31.228533)"
       spreadMethod="pad"
       id="radialGradient914">
      <stop
         style="stop-opacity:1;stop-color:#fbf99e"
         offset="0"
         id="stop911" />
      <stop
         style="stop-opacity:1;stop-color:#fbf99e"
         offset="0.126924"
         id="stop912" />
      <stop
         style="stop-opacity:1;stop-color:#fbd340"
         offset="0.89405196"
         id="stop913" />
      <stop
         style="stop-opacity:1;stop-color:#fbd340"
         offset="1"
         id="stop914" />
    </radialGradient>
    <clipPath
       clipPathUnits="userSpaceOnUse"
       id="clipPath916">
      <path
         d="M 0,98.827 H 692.89 V 0 H 0 Z"
         transform="translate(-15.790125,-33.550001)"
         id="path916" />
    </clipPath>
    <radialGradient
       fx="0"
       fy="0"
       cx="0"
       cy="0"
       r="1"
       gradientUnits="userSpaceOnUse"
       gradientTransform="matrix(-1.1110245,0.7326061,0.8375796,1.2811104,596.51294,31.029596)"
       spreadMethod="pad"
       id="radialGradient919">
      <stop
         style="stop-opacity:1;stop-color:#fbf99e"
         offset="0"
         id="stop916" />
      <stop
         style="stop-opacity:1;stop-color:#fbf99e"
         offset="0.126924"
         id="stop917" />
      <stop
         style="stop-opacity:1;stop-color:#fbd340"
         offset="0.89405196"
         id="stop918" />
      <stop
         style="stop-opacity:1;stop-color:#fbd340"
         offset="1"
         id="stop919" />
    </radialGradient>
    <clipPath
       clipPathUnits="userSpaceOnUse"
       id="clipPath921">
      <path
         d="M 0,98.827 H 692.89 V 0 H 0 Z"
         transform="translate(-598.44121,-32.362701)"
         id="path921" />
    </clipPath>
    <radialGradient
       fx="0"
       fy="0"
       cx="0"
       cy="0"
       r="1"
       gradientUnits="userSpaceOnUse"
       gradientTransform="matrix(-1.2851105,-0.3458007,-0.4035007,1.4764723,620.12567,27.083458)"
       spreadMethod="pad"
       id="radialGradient924">
      <stop
         style="stop-opacity:1;stop-color:#fbf99e"
         offset="0"
         id="stop921" />
      <stop
         style="stop-opacity:1;stop-color:#fbf99e"
         offset="0.126924"
         id="stop922" />
      <stop
         style="stop-opacity:1;stop-color:#fbd340"
         offset="0.89405196"
         id="stop923" />
      <stop
         style="stop-opacity:1;stop-color:#fbd340"
         offset="1"
         id="stop924" />
    </radialGradient>
    <clipPath
       clipPathUnits="userSpaceOnUse"
       id="clipPath926">
      <path
         d="M 0,98.827 H 692.89 V 0 H 0 Z"
         transform="translate(-620.40662,-29.4108)"
         id="path926" />
    </clipPath>
    <radialGradient
       fx="0"
       fy="0"
       cx="0"
       cy="0"
       r="1"
       gradientUnits="userSpaceOnUse"
       gradientTransform="matrix(-1.07696,-0.7818213,-0.9040385,1.2351103,641.26349,38.181648)"
       spreadMethod="pad"
       id="radialGradient929">
      <stop
         style="stop-opacity:1;stop-color:#fbf99e"
         offset="0"
         id="stop926" />
      <stop
         style="stop-opacity:1;stop-color:#fbf99e"
         offset="0.126924"
         id="stop927" />
      <stop
         style="stop-opacity:1;stop-color:#fbd340"
         offset="0.89405196"
         id="stop928" />
      <stop
         style="stop-opacity:1;stop-color:#fbd340"
         offset="1"
         id="stop929" />
    </radialGradient>
    <clipPath
       clipPathUnits="userSpaceOnUse"
       id="clipPath931">
      <path
         d="M 0,98.827 H 692.89 V 0 H 0 Z"
         transform="translate(-640.69494,-40.455901)"
         id="path931" />
    </clipPath>
    <radialGradient
       fx="0"
       fy="0"
       cx="0"
       cy="0"
       r="1"
       gradientUnits="userSpaceOnUse"
       gradientTransform="matrix(-0.648158,1.162316,1.333882,0.7506945,657.95422,34.806679)"
       spreadMethod="pad"
       id="radialGradient934">
      <stop
         style="stop-opacity:1;stop-color:#fbf99e"
         offset="0"
         id="stop931" />
      <stop
         style="stop-opacity:1;stop-color:#fbf99e"
         offset="0.126924"
         id="stop932" />
      <stop
         style="stop-opacity:1;stop-color:#fbd340"
         offset="0.89405196"
         id="stop933" />
      <stop
         style="stop-opacity:1;stop-color:#fbd340"
         offset="1"
         id="stop934" />
    </radialGradient>
    <clipPath
       clipPathUnits="userSpaceOnUse"
       id="clipPath936">
      <path
         d="M 0,98.827 H 692.89 V 0 H 0 Z"
         transform="translate(-660.27999,-35.100601)"
         id="path936" />
    </clipPath>
    <clipPath
       clipPathUnits="userSpaceOnUse"
       id="clipPath938">
      <path
         d="M 0,98.827 H 692.89 V 0 H 0 Z"
         transform="translate(-694.38512,-29.8197)"
         id="path938" />
    </clipPath>
  </defs>
  <g
     id="layer-MC6"
     transform="translate(-1142.52)">
    <path
       id="path737"
       d="M 0.032,0 H 692.89 V 98.827 H 0.032 Z"
       style="fill:#688456;fill-opacity:1;fill-rule:nonzero;stroke:none"
       transform="matrix(1.3333333,0,0,-1.3333333,1142.52,131.76987)" />
    <path
       id="path738"
       d="m 0,0 c 0.056,0.983 0.155,1.887 0.317,2.635 2.259,10.386 10.501,27.123 28.45,27.123 h 12.644 c 22.354,0 26.511,-11.483 35.111,-17.057 0,0 11.147,-4.307 14.431,-5.113 2.503,-0.614 4.438,-1.76 5.898,-3.066 0.005,0 0.009,10e-4 0.014,10e-4 0.052,-0.047 0.095,-0.097 0.146,-0.145 0.227,-0.21 0.443,-0.423 0.646,-0.639 0.082,-0.086 0.158,-0.172 0.236,-0.259 0.196,-0.221 0.384,-0.443 0.557,-0.666 0.07,-0.089 0.134,-0.178 0.199,-0.267 0.144,-0.195 0.28,-0.39 0.406,-0.583 0.077,-0.118 0.148,-0.233 0.219,-0.35 0.101,-0.167 0.195,-0.332 0.284,-0.495 0.033,-0.061 0.075,-0.125 0.106,-0.186 0.145,-0.28 0.279,-0.609 0.405,-0.969 0.029,-0.082 0.057,-0.167 0.085,-0.252 0.024,-0.076 0.049,-0.151 0.073,-0.229 0.044,-0.143 0.087,-0.289 0.129,-0.439 0.001,-0.003 0.001,-0.006 0.002,-0.008 v -0.001 c 0.75,-2.702 1.109,-6.545 1.112,-8.664 0,-0.007 0,-0.015 0,-0.022 v -10e-4 c 0,-0.001 0,-0.002 0,-0.003 0,-3.086 -2.069,-4.259 -4.064,-4.259 h -5.169 -5.032 c 0.005,-0.133 0.02,-0.263 0.02,-0.397 0,-5.851 -2.742,-9.592 -8.592,-9.592 -4.817,0 -8.591,3.741 -8.591,9.592 0,0.134 0.015,0.264 0.02,0.397 H 65.198 35.286 30.255 c 0.005,-0.133 0.02,-0.263 0.02,-0.397 0,-5.851 -4.741,-9.592 -8.593,-9.592 -4.926,0 -8.591,3.741 -8.591,9.592 0,0.134 0.016,0.264 0.021,0.397 H 8.247 3.479 c -1.995,0 -2.99,2.351 -3.162,4.327 -0.018,0.218 -0.038,0.452 -0.058,0.694 -0.045,0.546 -0.092,1.139 -0.136,1.806 h 0.003 c -0.044,0.66 -0.084,1.357 -0.116,2.072 -0.991,0.341 -1.703,1.267 -1.703,2.375 v 0.288 C -1.693,-1.27 -0.959,-0.359 0,0"
       style="fill:#e6e4db;fill-opacity:1;fill-rule:evenodd;stroke:none"
       transform="matrix(1.3333333,0,0,-1.3333333,1754.7839,98.749867)"
       clip-path="url(#clipPath739)" />
    <path
       id="path740"
       d="m 0,0 h 5.09 c 0.17,0 0.269,-0.23 0.417,-0.152 0.028,0.015 0.034,0.104 0.034,0.104 v 7.359 c -2.205,-0.066 -1.657,4.184 -1.087,5.541 1.811,4.308 52.58,1.452 53.519,1.404 3.864,-0.198 9.654,-17.289 9.654,-17.289 l -0.122,-0.153 0.122,0.153 22.306,-2.344 c 1.223,-0.333 2.322,-0.935 2.981,-2.056 0.178,-0.302 0.362,-1.057 0.362,-1.057 0.054,-0.095 0.109,-0.187 0.161,-0.282 0.054,-0.098 0.113,-0.189 0.17,-0.282 v -0.05 c 0.731,-0.427 1.27,-1.857 1.27,-3.567 0,-1.395 -0.36,-2.6 -0.888,-3.232 v -8.483 l 0.015,-5.265 c 10e-4,-0.513 -0.375,-0.927 -0.836,-0.921 l -5.179,0.072 h -2.202 c -0.017,-2.932 -1.226,-5.86 -3.645,-7.795 -2.94,-2.352 -7.012,-2.366 -9.963,-0.034 -2.443,1.93 -3.674,4.876 -3.691,7.829 H 67.204 32.58 30.575 c -0.017,-2.932 -1.225,-5.86 -3.645,-7.795 -2.939,-2.352 -7.011,-2.366 -9.963,-0.034 -2.443,1.93 -3.674,4.876 -3.691,7.829 H 7.18 c -0.958,0 -1.726,0.884 -1.693,1.95 l 0.054,1.771 c 0,0 0.307,6.822 -0.051,7.429 -0.107,0.183 -0.303,0.122 -0.4,0.122 H 0 c -0.422,0 -0.764,0.423 -0.764,0.945 V -0.946 C -0.764,-0.423 -0.422,0 0,0"
       style="fill:#e6e4db;fill-opacity:1;fill-rule:evenodd;stroke:none"
       transform="matrix(1.3333333,0,0,-1.3333333,1355.6439,77.1988)"
       clip-path="url(#clipPath741)" />
    <path
       id="path742"
       d="M 0,0 H -0.031 V 0.669 5.501 6.64 c 0,0 0,0 0,0 -0.62,8.953 -3.604,36.234 6.076,39.94 6.091,2.331 87.693,0.129 87.693,0.129 2.331,0.031 5.288,-2.041 6.7,-3.516 0.777,-0.811 1.168,-3.072 2.592,-4.873 h 0.002 c 0.087,-0.11 12.82,-18.429 12.849,-18.468 0.258,-0.346 0.434,-0.556 0.506,-0.591 0.054,-0.025 9.724,0.521 11.664,-7.559 C 128.882,8.244 128.364,0 128.364,0 l 0.098,0.076 c 1.174,0 1.189,-1.495 1.189,-2.855 v -4.485 c 0,-1.361 -0.015,-2.093 -1.189,-2.093 l -2.092,-0.076 -7.708,-0.012 v -0.091 h -2.581 c -0.326,-3.134 -1.931,-6.036 -4.525,-7.609 -4.184,-2.538 -9.351,-0.661 -11.539,4.192 -0.495,1.098 -0.785,2.255 -0.905,3.417 H 92.366 28.784 26.916 c -0.106,-1.034 -0.349,-2.064 -0.753,-3.057 -2.017,-4.952 -7.113,-7.07 -11.382,-4.732 -2.759,1.512 -4.49,4.516 -4.831,7.789 H 8.079 4.633 4.166 -0.031 0 c -1.283,0 -2.333,1.217 -2.333,2.706 v 4.124 C -2.333,-1.218 -1.283,0 0,0"
       style="fill:#e6e4db;fill-opacity:1;fill-rule:nonzero;stroke:none"
       transform="matrix(1.3333333,0,0,-1.3333333,1564.0837,106.29413)"
       clip-path="url(#clipPath743)" />
    <path
       id="path744"
       d="m 0,0 c -0.6,-1.493 2.707,-1.75 2.905,-4.298 0.79,-10.164 0.118,-32.916 0.03,-43.995 -0.03,-3.708 0.919,-7.031 -5.747,-7.031 -7.049,0 -5.419,2.685 -5.419,7.031 0,10.772 -1.027,33.109 -0.168,43.137 0.201,2.341 3.527,3.496 3.243,4.836 -0.674,3.192 -2.087,2.719 -2.087,5.981 v 6.297 c 0,3.262 0.888,5.257 4.57,5.254 2.884,-0.002 5.084,-1.926 5.084,-5.188 V 5.726 C 2.451,1.13 0.557,1.386 0,0"
       style="fill:#e6e4db;fill-opacity:1;fill-rule:nonzero;stroke:none"
       transform="matrix(1.3333333,0,0,-1.3333333,1926.1827,56.8556)"
       clip-path="url(#clipPath745)" />
    <path
       id="path746"
       d="m 0,0 c 0.522,-1.066 -2.354,-1.25 -2.526,-3.069 -0.22,-2.323 2.132,-4.414 2.115,-8.011 -0.038,-7.64 -2.193,-18.026 -2.141,-23.405 0.026,-2.649 -0.799,-5.01 4.997,-5.021 2.899,-0.006 3.18,1.727 3.18,4.83 0,3.408 0.209,8.912 0.339,14.079 0.164,6.496 1.755,12.927 1.339,16.915 -0.174,1.672 -3.066,2.497 -2.82,3.454 0.587,2.279 0.63,2.295 0.63,4.624 v 3.615 c 0,2.33 -0.644,3.096 -3.845,3.094 -2.508,-0.001 -3.364,-0.19 -3.364,-2.519 V 4.089 C -2.131,0.807 -0.484,0.989 0,0"
       style="fill:#e6e4db;fill-opacity:1;fill-rule:nonzero;stroke:none"
       transform="matrix(1.3333333,0,0,-1.3333333,1978.6951,78.7384)"
       clip-path="url(#clipPath747)" />
    <path
       id="path748"
       d="m 0,0 c -0.414,-0.956 -1.417,-2.006 -1.514,-3.881 -0.581,-11.227 -0.815,-32.932 -0.912,-45.15 -0.033,-4.09 2.289,-7.908 -2.707,-7.908 -3.263,0 -2.562,3.216 -2.562,8.009 0,11.879 -0.961,32.908 -0.013,43.967 0.221,2.582 -1.322,4.255 -1.639,6.789 -0.446,3.57 -0.56,4.893 -0.672,8.488 -0.07,2.257 1.264,4.692 5.324,4.689 3.18,-0.002 5.004,-2.229 5.322,-4.617 C 1.296,5.361 1.034,2.387 0,0"
       style="fill:#e6e4db;fill-opacity:1;fill-rule:nonzero;stroke:none"
       transform="matrix(1.3333333,0,0,-1.3333333,2017.7348,55.494133)"
       clip-path="url(#clipPath749)" />
    <path
       id="path750"
       d="m 0,0 c -0.522,-1.066 0.903,-4.204 1.075,-6.023 0.3,-3.169 -0.627,-5.343 -0.664,-10.498 -0.047,-6.65 0.044,-11.721 0,-16.178 -0.025,-2.648 -0.643,-6.807 -2.856,-6.807 -1.914,0 -2.284,3.457 -2.284,6.56 0,4.339 0.36,9.767 0.247,16.302 -0.088,5.049 -2.055,7.499 -1.729,10.621 0.174,1.672 1.974,4.838 1.728,5.795 -0.587,2.279 -1.23,2.016 -1.815,4.27 -1.744,6.723 9.784,11.751 8.394,0.047 C 1.709,0.829 0.484,0.989 0,0"
       style="fill:#e6e4db;fill-opacity:1;fill-rule:nonzero;stroke:none"
       transform="matrix(1.3333333,0,0,-1.3333333,1953.5445,77.945733)"
       clip-path="url(#clipPath751)" />
    <path
       id="path752"
       d="m 0,0 c -0.522,-0.791 0.903,-3.12 1.075,-4.47 0.3,-2.351 0.357,-4.532 0.32,-8.357 -0.047,-4.935 0.044,-11.69 0,-14.997 -0.025,-1.966 -1.627,-1.493 -3.84,-1.493 -1.914,0 -5.089,-0.696 -5.089,1.607 0,3.22 1.17,9.461 1.056,14.311 -0.088,3.747 -0.059,6.613 0.267,8.929 0.174,1.241 1.974,3.59 1.728,4.301 C -5.07,1.522 -5.713,1.327 -6.298,3 -7.372,6.074 -5.496,8.572 -3.063,8.811 -1.549,8.96 0.651,9.253 1.052,5.147 1.29,2.709 0.484,0.734 0,0"
       style="fill:#e6e4db;fill-opacity:1;fill-rule:nonzero;stroke:none"
       transform="matrix(1.3333333,0,0,-1.3333333,2040.7067,91.531733)"
       clip-path="url(#clipPath753)" />
    <path
       id="path754"
       d="m 0,0 c 0,-0.355 -0.288,-0.643 -0.643,-0.643 -0.355,0 -0.643,0.288 -0.643,0.643 0,0.355 0.288,0.643 0.643,0.643 C -0.288,0.643 0,0.355 0,0"
       style="fill:#141930;fill-opacity:1;fill-rule:nonzero;stroke:none"
       transform="matrix(1.3333333,0,0,-1.3333333,1926.9253,42.323067)"
       clip-path="url(#clipPath755)" />
    <path
       id="path756"
       d="m 0,0 c 0,-0.355 -0.288,-0.643 -0.643,-0.643 -0.355,0 -0.643,0.288 -0.643,0.643 0,0.355 0.288,0.643 0.643,0.643 C -0.288,0.643 0,0.355 0,0"
       style="fill:#141930;fill-opacity:1;fill-rule:nonzero;stroke:none"
       transform="matrix(1.3333333,0,0,-1.3333333,1983.6576,68.914133)"
       clip-path="url(#clipPath757)" />
    <path
       id="path758"
       d="m 0,0 c 0,-0.392 -0.318,-0.709 -0.709,-0.709 -0.392,0 -0.71,0.317 -0.71,0.709 0,0.392 0.318,0.709 0.71,0.709 C -0.318,0.709 0,0.392 0,0"
       style="fill:#141930;fill-opacity:1;fill-rule:nonzero;stroke:none"
       transform="matrix(1.3333333,0,0,-1.3333333,2015.8449,45.0748)"
       clip-path="url(#clipPath759)" />
    <path
       id="path760"
       d="m 0,0 c 0,-0.355 -0.288,-0.643 -0.643,-0.643 -0.355,0 -0.643,0.288 -0.643,0.643 0,0.355 0.288,0.643 0.643,0.643 C -0.288,0.643 0,0.355 0,0"
       style="fill:#141930;fill-opacity:1;fill-rule:nonzero;stroke:none"
       transform="matrix(1.3333333,0,0,-1.3333333,1954.0929,69.439467)"
       clip-path="url(#clipPath761)" />
    <path
       id="path762"
       d="m 0,0 c -0.663,-1.354 1.64,-3.833 1.859,-6.145 0.279,-2.95 -0.32,-7.325 -0.298,-11.894 0.048,-9.706 1.437,-6.424 2.092,-12.616 0.354,-3.346 -1.609,-19.419 -6.759,-19.53 -3.682,-0.079 -4.039,2.194 -4.039,6.137 0,4.328 -0.266,11.32 -0.431,17.884 -0.208,8.252 -2.23,16.42 -1.701,21.487 0.222,2.124 3.895,3.171 3.582,4.387 -0.745,2.895 -0.799,2.915 -0.799,5.874 v 4.593 c 0,2.958 0.838,4.34 4.883,3.93 1.637,-0.166 4.054,-1.452 4.274,-3.2 V 5.194 C 2.707,1.025 0.615,1.257 0,0"
       style="fill:#e6e4db;fill-opacity:1;fill-rule:nonzero;stroke:none"
       transform="matrix(1.3333333,0,0,-1.3333333,1509.3112,63.8556)"
       clip-path="url(#clipPath763)" />
    <path
       id="path764"
       d="m 0,0 c -0.522,-1.066 0.903,-4.204 1.075,-6.023 0.3,-3.169 -0.627,-5.343 -0.664,-10.498 -0.047,-6.65 0.043,-11.721 0,-16.178 -0.025,-2.648 -0.643,-6.807 -2.856,-6.807 -1.914,0 -2.284,3.457 -2.284,6.56 0,4.339 0.36,9.767 0.247,16.302 -0.088,5.049 -2.055,7.499 -1.729,10.621 0.174,1.672 1.974,4.838 1.728,5.795 -0.587,2.279 -1.23,2.016 -1.815,4.27 -1.744,6.723 9.784,11.751 8.394,0.047 C 1.709,0.829 0.484,0.989 0,0"
       style="fill:#e6e4db;fill-opacity:1;fill-rule:nonzero;stroke:none"
       transform="matrix(1.3333333,0,0,-1.3333333,1539.628,77.945733)"
       clip-path="url(#clipPath765)" />
    <path
       id="path766"
       d="m 0,0 c 0,-0.355 -0.288,-0.643 -0.643,-0.643 -0.355,0 -0.643,0.288 -0.643,0.643 0,0.355 0.288,0.643 0.643,0.643 C -0.288,0.643 0,0.355 0,0"
       style="fill:#141930;fill-opacity:1;fill-rule:nonzero;stroke:none"
       transform="matrix(1.3333333,0,0,-1.3333333,1510.2033,52.499867)"
       clip-path="url(#clipPath767)" />
    <path
       id="path768"
       d="m 0,0 c 0,-0.355 -0.288,-0.643 -0.643,-0.643 -0.355,0 -0.643,0.288 -0.643,0.643 0,0.355 0.288,0.643 0.643,0.643 C -0.288,0.643 0,0.355 0,0"
       style="fill:#141930;fill-opacity:1;fill-rule:nonzero;stroke:none"
       transform="matrix(1.3333333,0,0,-1.3333333,1540.1764,69.439467)"
       clip-path="url(#clipPath769)" />
    <path
       id="path770"
       d="m 0,0 c 0,-0.392 -0.318,-0.709 -0.709,-0.709 -0.392,0 -0.71,0.317 -0.71,0.709 0,0.392 0.318,0.709 0.71,0.709 C -0.318,0.709 0,0.392 0,0"
       style="fill:#141930;fill-opacity:1;fill-rule:nonzero;stroke:none"
       transform="matrix(1.3333333,0,0,-1.3333333,2040.3324,85.574667)"
       clip-path="url(#clipPath771)" />
    <path
       id="path772"
       d="m 0,0 c -0.6,-1.493 2.707,-1.75 2.905,-4.298 0.79,-10.164 0.118,-32.916 0.03,-43.995 -0.03,-3.708 0.919,-7.031 -5.747,-7.031 -7.049,0 -5.419,2.685 -5.419,7.031 0,10.772 -1.027,33.109 -0.168,43.137 0.201,2.341 3.527,3.496 3.243,4.836 -0.674,3.192 -2.087,2.719 -2.087,5.981 v 6.297 c 0,3.262 0.888,5.257 4.57,5.254 2.884,-0.002 5.084,-1.926 5.084,-5.188 V 5.726 C 2.451,1.13 0.557,1.386 0,0"
       style="fill:#e6e4db;fill-opacity:1;fill-rule:nonzero;stroke:none"
       transform="matrix(1.3333333,0,0,-1.3333333,1210.3747,56.8556)"
       clip-path="url(#clipPath773)" />
    <path
       id="path774"
       d="m 0,0 c 0.522,-1.066 -2.354,-1.25 -2.526,-3.069 -0.22,-2.323 2.132,-4.414 2.115,-8.011 -0.038,-7.64 -2.193,-18.026 -2.141,-23.405 0.026,-2.649 -0.799,-5.01 4.997,-5.021 2.899,-0.006 3.18,1.727 3.18,4.83 0,3.408 0.209,8.912 0.339,14.079 0.164,6.496 1.755,12.927 1.339,16.915 -0.174,1.672 -3.066,2.497 -2.82,3.454 0.587,2.279 0.63,2.295 0.63,4.624 v 3.615 c 0,2.33 -0.644,3.096 -3.845,3.094 -2.508,-0.001 -3.364,-0.19 -3.364,-2.519 V 4.089 C -2.131,0.807 -0.484,0.989 0,0"
       style="fill:#e6e4db;fill-opacity:1;fill-rule:nonzero;stroke:none"
       transform="matrix(1.3333333,0,0,-1.3333333,1262.8871,78.7384)"
       clip-path="url(#clipPath775)" />
    <path
       id="path776"
       d="m 0,0 c -0.414,-0.956 -1.417,-2.006 -1.514,-3.881 -0.581,-11.227 -0.815,-32.932 -0.912,-45.15 -0.033,-4.09 2.289,-7.908 -2.707,-7.908 -3.263,0 -2.562,3.216 -2.562,8.009 0,11.879 -0.961,32.908 -0.013,43.967 0.221,2.582 -1.322,4.255 -1.639,6.789 -0.446,3.57 -0.56,4.893 -0.672,8.488 -0.07,2.257 1.264,4.692 5.323,4.689 3.181,-0.002 5.005,-2.229 5.323,-4.617 C 1.296,5.361 1.034,2.387 0,0"
       style="fill:#e6e4db;fill-opacity:1;fill-rule:nonzero;stroke:none"
       transform="matrix(1.3333333,0,0,-1.3333333,1301.9268,55.494133)"
       clip-path="url(#clipPath777)" />
    <path
       id="path778"
       d="m 0,0 c -0.522,-1.066 0.903,-4.204 1.075,-6.023 0.3,-3.169 -0.627,-5.343 -0.664,-10.498 -0.047,-6.65 0.043,-11.721 0,-16.178 -0.025,-2.648 -0.643,-6.807 -2.856,-6.807 -1.914,0 -2.284,3.457 -2.284,6.56 0,4.339 0.36,9.767 0.247,16.302 -0.088,5.049 -2.055,7.499 -1.729,10.621 0.174,1.672 1.974,4.838 1.728,5.795 -0.587,2.279 -1.23,2.016 -1.815,4.27 -1.744,6.723 9.784,11.751 8.394,0.047 C 1.71,0.829 0.484,0.989 0,0"
       style="fill:#e6e4db;fill-opacity:1;fill-rule:nonzero;stroke:none"
       transform="matrix(1.3333333,0,0,-1.3333333,1237.7365,77.945733)"
       clip-path="url(#clipPath779)" />
    <path
       id="path780"
       d="m 0,0 c -0.522,-0.791 0.903,-3.12 1.075,-4.47 0.3,-2.351 0.357,-4.532 0.32,-8.357 -0.047,-4.935 0.044,-11.69 0,-14.997 -0.025,-1.966 -1.627,-1.493 -3.84,-1.493 -1.914,0 -5.089,-0.696 -5.089,1.607 0,3.22 1.17,9.461 1.056,14.311 -0.088,3.747 -0.059,6.613 0.267,8.929 0.174,1.241 1.974,3.59 1.728,4.301 C -5.07,1.522 -5.713,1.327 -6.298,3 -7.372,6.074 -5.496,8.572 -3.063,8.811 -1.549,8.96 0.651,9.253 1.052,5.147 1.29,2.709 0.484,0.734 0,0"
       style="fill:#e6e4db;fill-opacity:1;fill-rule:nonzero;stroke:none"
       transform="matrix(1.3333333,0,0,-1.3333333,1324.8985,91.531733)"
       clip-path="url(#clipPath781)" />
    <path
       id="path782"
       d="m 0,0 c 0,-0.355 -0.288,-0.643 -0.643,-0.643 -0.355,0 -0.643,0.288 -0.643,0.643 0,0.355 0.288,0.643 0.643,0.643 C -0.288,0.643 0,0.355 0,0"
       style="fill:#141930;fill-opacity:1;fill-rule:nonzero;stroke:none"
       transform="matrix(1.3333333,0,0,-1.3333333,1211.1173,42.323067)"
       clip-path="url(#clipPath783)" />
    <path
       id="path784"
       d="m 0,0 c 0,-0.355 -0.288,-0.643 -0.643,-0.643 -0.355,0 -0.643,0.288 -0.643,0.643 0,0.355 0.288,0.643 0.643,0.643 C -0.288,0.643 0,0.355 0,0"
       style="fill:#141930;fill-opacity:1;fill-rule:nonzero;stroke:none"
       transform="matrix(1.3333333,0,0,-1.3333333,1267.8496,68.914133)"
       clip-path="url(#clipPath785)" />
    <path
       id="path786"
       d="m 0,0 c 0,-0.392 -0.318,-0.709 -0.709,-0.709 -0.392,0 -0.71,0.317 -0.71,0.709 0,0.392 0.318,0.709 0.71,0.709 C -0.318,0.709 0,0.392 0,0"
       style="fill:#141930;fill-opacity:1;fill-rule:nonzero;stroke:none"
       transform="matrix(1.3333333,0,0,-1.3333333,1300.0368,45.0748)"
       clip-path="url(#clipPath787)" />
    <path
       id="path788"
       d="m 0,0 c 0,-0.355 -0.288,-0.643 -0.643,-0.643 -0.355,0 -0.643,0.288 -0.643,0.643 0,0.355 0.288,0.643 0.643,0.643 C -0.288,0.643 0,0.355 0,0"
       style="fill:#141930;fill-opacity:1;fill-rule:nonzero;stroke:none"
       transform="matrix(1.3333333,0,0,-1.3333333,1238.2849,69.439467)"
       clip-path="url(#clipPath789)" />
    <path
       id="path790"
       d="m 0,0 c 0,-0.392 -0.318,-0.709 -0.709,-0.709 -0.392,0 -0.71,0.317 -0.71,0.709 0,0.392 0.318,0.709 0.71,0.709 C -0.318,0.709 0,0.392 0,0"
       style="fill:#141930;fill-opacity:1;fill-rule:nonzero;stroke:none"
       transform="matrix(1.3333333,0,0,-1.3333333,1324.5243,85.574667)"
       clip-path="url(#clipPath791)" />
    <path
       id="path794"
       d="m 572.872,41.279 c -0.558,-0.292 -0.737,-1.048 -0.398,-1.689 v 0 c 0.338,-0.64 1.021,-0.807 1.579,-0.516 v 0 c 0.558,0.293 0.781,0.933 0.442,1.574 v 0 c -0.248,0.469 -0.704,0.746 -1.149,0.746 v 0 c -0.163,0 -0.324,-0.037 -0.474,-0.115"
       transform="matrix(1.3333333,0,0,-1.3333333,1142.52,131.76987)"
       style="fill:url(#radialGradient794);stroke:none" />
    <path
       id="path795"
       d="m 0,0 c 0.205,-0.388 0.505,-1.057 0.83,-1.245 0.292,-0.169 -0.397,-0.222 -0.898,-0.51 -0.519,-0.299 -0.929,-0.83 -0.927,-0.485 0.005,0.575 -0.326,1.016 -0.546,1.434 -0.241,0.455 0.083,0.644 0.509,0.867 C -0.607,0.284 -0.282,0.534 0,0"
       style="fill:#a7a5a6;fill-opacity:1;fill-rule:nonzero;stroke:none"
       transform="matrix(1.3333333,0,0,-1.3333333,1906.8192,75.095067)"
       clip-path="url(#clipPath796)" />
    <path
       id="path799"
       d="m 545.993,30.434 c -0.625,-0.081 -1.054,-0.728 -0.958,-1.446 v 0 c 0.095,-0.718 0.677,-1.111 1.303,-1.031 v 0 c 0.624,0.08 1.055,0.604 0.959,1.322 v 0 c -0.089,0.668 -0.6,1.163 -1.175,1.163 v 0 c -0.042,0 -0.086,-0.003 -0.129,-0.008"
       transform="matrix(1.3333333,0,0,-1.3333333,1142.52,131.76987)"
       style="fill:url(#radialGradient799);stroke:none" />
    <path
       id="path800"
       d="m 0,0 c 0.058,-0.435 0.107,-1.167 0.347,-1.456 0.216,-0.26 -0.449,-0.07 -1.019,-0.167 -0.591,-0.1 -1.16,-0.456 -1.037,-0.133 0.203,0.537 0.046,1.066 -0.016,1.534 -0.068,0.51 0.301,0.576 0.778,0.637 C -0.471,0.476 -0.079,0.599 0,0"
       style="fill:#a7a5a6;fill-opacity:1;fill-rule:nonzero;stroke:none"
       transform="matrix(1.3333333,0,0,-1.3333333,1871.5188,89.819467)"
       clip-path="url(#clipPath801)" />
    <path
       id="path804"
       d="m 521.795,33.139 c -0.349,-0.636 -0.111,-1.297 0.44,-1.602 v 0 c 0.552,-0.304 1.209,-0.136 1.556,0.499 v 0 c 0.347,0.636 0.183,1.398 -0.369,1.702 v 0 c -0.154,0.085 -0.322,0.126 -0.492,0.126 v 0 c -0.437,0 -0.885,-0.267 -1.135,-0.725"
       transform="matrix(1.3333333,0,0,-1.3333333,1142.52,131.76987)"
       style="fill:url(#radialGradient804);stroke:none" />
    <path
       id="path805"
       d="m 0,0 c -0.211,-0.385 -0.604,-1.004 -0.581,-1.379 0.02,-0.337 -0.403,0.209 -0.92,0.468 -0.536,0.268 -1.206,0.317 -0.916,0.505 0.482,0.313 0.667,0.833 0.894,1.247 0.247,0.452 0.584,0.286 1.004,0.054 C -0.098,0.663 0.29,0.53 0,0"
       style="fill:#a7a5a6;fill-opacity:1;fill-rule:nonzero;stroke:none"
       transform="matrix(1.3333333,0,0,-1.3333333,1842.0404,86.2748)"
       clip-path="url(#clipPath806)" />
    <path
       id="path809"
       d="m 505.589,44.718 c -0.487,-0.535 -0.414,-1.234 0.05,-1.661 v 0 c 0.464,-0.426 1.142,-0.418 1.63,0.118 v 0 c 0.488,0.535 0.507,1.315 0.044,1.74 v 0 c -0.198,0.182 -0.451,0.271 -0.715,0.271 v 0 c -0.355,0 -0.729,-0.16 -1.009,-0.468"
       transform="matrix(1.3333333,0,0,-1.3333333,1142.52,131.76987)"
       style="fill:url(#radialGradient809);stroke:none" />
    <path
       id="path810"
       d="m 0,0 c -0.295,-0.324 -0.824,-0.833 -0.89,-1.203 -0.06,-0.332 -0.343,0.298 -0.784,0.672 -0.457,0.387 -1.096,0.593 -0.77,0.708 0.542,0.19 0.845,0.651 1.163,1 0.347,0.38 0.635,0.14 0.989,-0.185 C 0.061,0.667 0.407,0.446 0,0"
       style="fill:#a7a5a6;fill-opacity:1;fill-rule:nonzero;stroke:none"
       transform="matrix(1.3333333,0,0,-1.3333333,1820.6356,71.7696)"
       clip-path="url(#clipPath811)" />
    <path
       id="path814"
       d="m 453.762,42.376 c -0.629,-0.034 -1.104,-0.647 -1.063,-1.37 v 0 c 0.042,-0.724 0.595,-1.159 1.224,-1.125 v 0 c 0.628,0.034 1.096,0.525 1.054,1.248 v 0 c -0.04,0.702 -0.555,1.249 -1.16,1.249 v 0 c -0.018,0 -0.037,0 -0.055,-0.002"
       transform="matrix(1.3333333,0,0,-1.3333333,1142.52,131.76987)"
       style="fill:url(#radialGradient814);stroke:none" />
    <path
       id="path815"
       d="m 0,0 c 0.025,-0.438 0.021,-1.171 0.238,-1.477 0.197,-0.276 -0.452,-0.037 -1.028,-0.092 -0.596,-0.056 -1.19,-0.37 -1.044,-0.056 0.242,0.521 0.124,1.059 0.097,1.531 -0.03,0.514 0.343,0.552 0.823,0.578 C -0.434,0.51 -0.035,0.603 0,0"
       style="fill:#a7a5a6;fill-opacity:1;fill-rule:nonzero;stroke:none"
       transform="matrix(1.3333333,0,0,-1.3333333,1748.6425,73.973733)"
       clip-path="url(#clipPath816)" />
    <path
       id="path819"
       d="m 480.195,46.454 c -0.623,-0.095 -1.037,-0.752 -0.925,-1.468 v 0 c 0.111,-0.716 0.703,-1.096 1.325,-1.001 v 0 c 0.623,0.094 1.042,0.628 0.929,1.344 v 0 c -0.102,0.658 -0.613,1.136 -1.178,1.136 v 0 c -0.05,0 -0.1,-0.004 -0.151,-0.011"
       transform="matrix(1.3333333,0,0,-1.3333333,1142.52,131.76987)"
       style="fill:url(#radialGradient819);stroke:none" />
    <path
       id="path820"
       d="m 0,0 c 0.068,-0.433 0.134,-1.164 0.38,-1.447 0.222,-0.255 -0.447,-0.081 -1.014,-0.191 -0.589,-0.114 -1.149,-0.483 -1.034,-0.157 0.191,0.542 0.021,1.067 -0.052,1.533 -0.079,0.509 0.288,0.583 0.763,0.655 C -0.482,0.465 -0.093,0.597 0,0"
       style="fill:#a7a5a6;fill-opacity:1;fill-rule:nonzero;stroke:none"
       transform="matrix(1.3333333,0,0,-1.3333333,1783.7556,68.4372)"
       clip-path="url(#clipPath821)" />
    <path
       id="path824"
       d="m 425.277,41.812 c -0.139,-0.711 0.288,-1.27 0.906,-1.392 v 0 c 0.618,-0.123 1.193,0.236 1.331,0.948 v 0 c 0.138,0.711 -0.25,1.387 -0.868,1.509 v 0 c -0.066,0.013 -0.131,0.019 -0.196,0.019 v 0 c -0.546,0 -1.049,-0.448 -1.173,-1.084"
       transform="matrix(1.3333333,0,0,-1.3333333,1142.52,131.76987)"
       style="fill:url(#radialGradient824);stroke:none" />
    <path
       id="path825"
       d="m 0,0 c -0.084,-0.43 -0.27,-1.14 -0.135,-1.49 0.122,-0.316 -0.448,0.076 -1.019,0.166 -0.592,0.093 -1.245,-0.063 -1.026,0.204 0.364,0.445 0.384,0.996 0.474,1.459 0.098,0.506 0.469,0.45 0.94,0.356 C -0.295,0.602 0.115,0.593 0,0"
       style="fill:#a7a5a6;fill-opacity:1;fill-rule:nonzero;stroke:none"
       transform="matrix(1.3333333,0,0,-1.3333333,1712.7739,73.620933)"
       clip-path="url(#clipPath826)" />
    <path
       id="path829"
       d="m 402.646,46.066 c -0.134,-0.712 0.296,-1.268 0.914,-1.387 v 0 c 0.619,-0.12 1.191,0.244 1.325,0.956 v 0 c 0.134,0.711 -0.259,1.385 -0.877,1.504 v 0 c -0.063,0.012 -0.126,0.018 -0.189,0.018 v 0 c -0.55,0 -1.054,-0.452 -1.173,-1.091"
       transform="matrix(1.3333333,0,0,-1.3333333,1142.52,131.76987)"
       style="fill:url(#radialGradient829);stroke:none" />
    <path
       id="path830"
       d="m 0,0 c -0.081,-0.431 -0.263,-1.142 -0.126,-1.491 0.124,-0.315 -0.448,0.073 -1.02,0.16 -0.592,0.089 -1.244,-0.071 -1.027,0.197 0.362,0.447 0.377,0.998 0.465,1.463 0.095,0.505 0.466,0.452 0.938,0.361 C -0.298,0.6 0.112,0.593 0,0"
       style="fill:#a7a5a6;fill-opacity:1;fill-rule:nonzero;stroke:none"
       transform="matrix(1.3333333,0,0,-1.3333333,1682.5833,67.93)"
       clip-path="url(#clipPath831)" />
    <path
       id="path834"
       d="m 379.443,53.842 c -0.248,-0.681 0.087,-1.299 0.678,-1.517 v 0 c 0.592,-0.218 1.215,0.048 1.463,0.728 v 0 c 0.247,0.681 -0.031,1.41 -0.622,1.627 v 0 c -0.114,0.042 -0.231,0.062 -0.348,0.062 v 0 c -0.489,0 -0.971,-0.35 -1.171,-0.9"
       transform="matrix(1.3333333,0,0,-1.3333333,1142.52,131.76987)"
       style="fill:url(#radialGradient834);stroke:none" />
    <path
       id="path835"
       d="m 0,0 c -0.15,-0.412 -0.445,-1.084 -0.366,-1.451 0.071,-0.33 -0.43,0.145 -0.98,0.323 -0.57,0.184 -1.24,0.131 -0.982,0.361 0.429,0.383 0.534,0.924 0.696,1.368 0.176,0.484 0.533,0.371 0.984,0.205 C -0.197,0.64 0.206,0.567 0,0"
       style="fill:#a7a5a6;fill-opacity:1;fill-rule:nonzero;stroke:none"
       transform="matrix(1.3333333,0,0,-1.3333333,1651.9971,58.112533)"
       clip-path="url(#clipPath836)" />
    <path
       id="path839"
       d="m 354.907,51.827 c -0.516,-0.361 -0.593,-1.134 -0.175,-1.726 v 0 c 0.419,-0.59 1.118,-0.667 1.634,-0.305 v 0 c 0.515,0.362 0.651,1.026 0.233,1.617 v 0 c -0.274,0.387 -0.692,0.6 -1.093,0.6 v 0 c -0.213,0 -0.42,-0.06 -0.599,-0.186"
       transform="matrix(1.3333333,0,0,-1.3333333,1142.52,131.76987)"
       style="fill:url(#radialGradient839);stroke:none" />
    <path
       id="path840"
       d="M 0,0 C 0.254,-0.358 0.638,-0.982 0.985,-1.126 1.297,-1.256 0.621,-1.398 0.161,-1.749 -0.314,-2.113 -0.652,-2.693 -0.694,-2.35 -0.765,-1.78 -1.15,-1.386 -1.423,-1 -1.721,-0.58 -1.425,-0.35 -1.032,-0.074 -0.639,0.202 -0.349,0.493 0,0"
       style="fill:#a7a5a6;fill-opacity:1;fill-rule:nonzero;stroke:none"
       transform="matrix(1.3333333,0,0,-1.3333333,1615.9817,60.983067)"
       clip-path="url(#clipPath841)" />
    <path
       id="path844"
       d="m 333.689,40.48 c -0.615,-0.131 -0.991,-0.811 -0.837,-1.519 v 0 c 0.153,-0.708 0.766,-1.053 1.383,-0.922 v 0 c 0.615,0.132 1.001,0.688 0.848,1.396 v 0 c -0.136,0.628 -0.642,1.067 -1.184,1.067 v 0 c -0.07,0 -0.14,-0.007 -0.21,-0.022"
       transform="matrix(1.3333333,0,0,-1.3333333,1142.52,131.76987)"
       style="fill:url(#radialGradient844);stroke:none" />
    <path
       id="path845"
       d="m 0,0 c 0.093,-0.428 0.202,-1.154 0.464,-1.422 0.237,-0.242 -0.441,-0.107 -1.001,-0.25 -0.581,-0.148 -1.119,-0.55 -1.023,-0.218 0.158,0.553 -0.041,1.066 -0.141,1.528 -0.11,0.503 0.253,0.599 0.723,0.698 C -0.508,0.436 -0.128,0.59 0,0"
       style="fill:#a7a5a6;fill-opacity:1;fill-rule:nonzero;stroke:none"
       transform="matrix(1.3333333,0,0,-1.3333333,1588.3319,76.346933)"
       clip-path="url(#clipPath846)" />
    <path
       id="path849"
       d="m 308.858,36.581 c -0.061,-0.721 0.423,-1.232 1.051,-1.287 v 0 c 0.627,-0.056 1.16,0.362 1.222,1.084 v 0 c 0.061,0.722 -0.397,1.353 -1.024,1.408 v 0 c -0.03,0.003 -0.06,0.004 -0.09,0.004 v 0 c -0.59,0 -1.099,-0.521 -1.159,-1.209"
       transform="matrix(1.3333333,0,0,-1.3333333,1142.52,131.76987)"
       style="fill:url(#radialGradient849);stroke:none" />
    <path
       id="path850"
       d="m 0,0 c -0.037,-0.437 -0.147,-1.162 0.025,-1.496 0.155,-0.301 -0.453,0.028 -1.031,0.056 -0.598,0.03 -1.231,-0.196 -1.042,0.093 0.315,0.481 0.275,1.031 0.315,1.502 0.044,0.513 0.419,0.497 0.897,0.454 C -0.357,0.567 0.051,0.602 0,0"
       style="fill:#a7a5a6;fill-opacity:1;fill-rule:nonzero;stroke:none"
       transform="matrix(1.3333333,0,0,-1.3333333,1557.2749,80.265333)"
       clip-path="url(#clipPath851)" />
    <path
       id="path854"
       d="m 280.48,37.545 c -0.314,-0.653 -0.041,-1.301 0.526,-1.576 v 0 c 0.568,-0.274 1.214,-0.071 1.527,0.583 v 0 c 0.313,0.653 0.107,1.406 -0.46,1.68 v 0 c -0.141,0.068 -0.291,0.1 -0.441,0.1 v 0 c -0.456,0 -0.918,-0.295 -1.152,-0.787"
       transform="matrix(1.3333333,0,0,-1.3333333,1142.52,131.76987)"
       style="fill:url(#radialGradient854);stroke:none" />
    <path
       id="path855"
       d="m 0,0 c -0.189,-0.395 -0.548,-1.035 -0.505,-1.408 0.038,-0.336 -0.415,0.186 -0.945,0.417 -0.549,0.238 -1.221,0.251 -0.941,0.455 0.464,0.339 0.621,0.867 0.825,1.293 0.222,0.465 0.567,0.318 1,0.108 C -0.134,0.656 0.261,0.545 0,0"
       style="fill:#a7a5a6;fill-opacity:1;fill-rule:nonzero;stroke:none"
       transform="matrix(1.3333333,0,0,-1.3333333,1520.2107,80.196533)"
       clip-path="url(#clipPath856)" />
    <path
       id="path859"
       d="m 253.28,36.014 c -0.597,-0.202 -0.891,-0.92 -0.658,-1.606 v 0 c 0.234,-0.686 0.883,-0.958 1.48,-0.757 v 0 c 0.596,0.201 0.916,0.798 0.682,1.484 v 0 c -0.192,0.565 -0.683,0.931 -1.183,0.931 v 0 c -0.108,0 -0.216,-0.017 -0.321,-0.052"
       transform="matrix(1.3333333,0,0,-1.3333333,1142.52,131.76987)"
       style="fill:url(#radialGradient859);stroke:none" />
    <path
       id="path860"
       d="m 0,0 c 0.141,-0.415 0.333,-1.123 0.624,-1.36 0.263,-0.213 -0.426,-0.156 -0.966,-0.363 -0.559,-0.214 -1.048,-0.674 -0.991,-0.333 0.094,0.566 -0.163,1.054 -0.316,1.501 -0.166,0.487 0.184,0.624 0.639,0.777 C -0.555,0.375 -0.195,0.572 0,0"
       style="fill:#a7a5a6;fill-opacity:1;fill-rule:nonzero;stroke:none"
       transform="matrix(1.3333333,0,0,-1.3333333,1480.9465,82.21)"
       clip-path="url(#clipPath861)" />
    <path
       id="path864"
       d="m 221.767,34.855 c -0.389,-0.611 -0.196,-1.287 0.334,-1.628 v 0 c 0.53,-0.34 1.196,-0.216 1.586,0.395 v 0 c 0.389,0.611 0.274,1.383 -0.255,1.723 v 0 c -0.169,0.109 -0.361,0.16 -0.555,0.16 v 0 c -0.415,0 -0.845,-0.234 -1.11,-0.65"
       transform="matrix(1.3333333,0,0,-1.3333333,1142.52,131.76987)"
       style="fill:url(#radialGradient864);stroke:none" />
    <path
       id="path865"
       d="m 0,0 c -0.236,-0.37 -0.669,-0.962 -0.671,-1.337 -0.003,-0.338 -0.389,0.235 -0.888,0.527 -0.516,0.304 -1.181,0.397 -0.88,0.566 0.502,0.28 0.722,0.786 0.976,1.184 0.276,0.435 0.601,0.247 1.005,-0.013 C -0.054,0.668 0.324,0.509 0,0"
       style="fill:#a7a5a6;fill-opacity:1;fill-rule:nonzero;stroke:none"
       transform="matrix(1.3333333,0,0,-1.3333333,1442.0832,84.241867)"
       clip-path="url(#clipPath866)" />
    <path
       id="path869"
       d="m 199.461,48.904 c -0.389,-0.611 -0.197,-1.287 0.334,-1.627 v 0 c 0.53,-0.341 1.196,-0.217 1.585,0.394 v 0 c 0.389,0.611 0.275,1.383 -0.254,1.723 v 0 c -0.17,0.109 -0.361,0.161 -0.556,0.161 v 0 c -0.414,0 -0.844,-0.235 -1.109,-0.651"
       transform="matrix(1.3333333,0,0,-1.3333333,1142.52,131.76987)"
       style="fill:url(#radialGradient869);stroke:none" />
    <path
       id="path870"
       d="m 0,0 c -0.236,-0.37 -0.669,-0.962 -0.671,-1.337 -0.003,-0.338 -0.389,0.235 -0.888,0.527 -0.516,0.304 -1.181,0.397 -0.88,0.566 0.502,0.28 0.722,0.786 0.976,1.184 0.276,0.435 0.601,0.247 1.005,-0.013 C -0.054,0.668 0.324,0.509 0,0"
       style="fill:#a7a5a6;fill-opacity:1;fill-rule:nonzero;stroke:none"
       transform="matrix(1.3333333,0,0,-1.3333333,1412.3412,65.509467)"
       clip-path="url(#clipPath871)" />
    <path
       id="path874"
       d="m 181.136,35.023 c -0.529,-0.343 -0.636,-1.112 -0.239,-1.718 v 0 c 0.397,-0.607 1.093,-0.709 1.621,-0.367 v 0 c 0.528,0.343 0.69,1.002 0.293,1.608 v 0 c -0.269,0.41 -0.699,0.64 -1.112,0.64 v 0 c -0.198,0 -0.392,-0.052 -0.563,-0.163"
       transform="matrix(1.3333333,0,0,-1.3333333,1142.52,131.76987)"
       style="fill:url(#radialGradient874);stroke:none" />
    <path
       id="path875"
       d="M 0,0 C 0.24,-0.367 0.601,-1.005 0.943,-1.162 1.25,-1.303 0.569,-1.42 0.097,-1.754 -0.393,-2.1 -0.751,-2.667 -0.781,-2.323 c -0.049,0.573 -0.42,0.981 -0.678,1.376 -0.282,0.431 0.022,0.65 0.425,0.911 C -0.631,0.226 -0.331,0.505 0,0"
       style="fill:#a7a5a6;fill-opacity:1;fill-rule:nonzero;stroke:none"
       transform="matrix(1.3333333,0,0,-1.3333333,1384.3489,83.399867)"
       clip-path="url(#clipPath876)" />
    <path
       id="path879"
       d="m 161.776,25.699 c -0.611,-0.151 -0.963,-0.843 -0.787,-1.546 v 0 c 0.178,-0.703 0.802,-1.026 1.413,-0.874 v 0 c 0.611,0.151 0.979,0.72 0.801,1.423 v 0 c -0.153,0.61 -0.655,1.027 -1.185,1.027 v 0 c -0.08,0 -0.161,-0.009 -0.242,-0.03"
       transform="matrix(1.3333333,0,0,-1.3333333,1142.52,131.76987)"
       style="fill:url(#radialGradient879);stroke:none" />
    <path
       id="path880"
       d="m 0,0 c 0.107,-0.425 0.24,-1.147 0.512,-1.406 0.244,-0.234 -0.438,-0.122 -0.993,-0.283 -0.575,-0.168 -1.1,-0.587 -1.015,-0.252 0.14,0.557 -0.077,1.064 -0.192,1.522 -0.126,0.499 0.233,0.607 0.699,0.723 C -0.522,0.419 -0.148,0.586 0,0"
       style="fill:#a7a5a6;fill-opacity:1;fill-rule:nonzero;stroke:none"
       transform="matrix(1.3333333,0,0,-1.3333333,1359.0648,96.025067)"
       clip-path="url(#clipPath881)" />
    <path
       id="path884"
       d="m 139.152,22.895 c -0.107,-0.716 0.343,-1.256 0.966,-1.352 v 0 c 0.623,-0.096 1.181,0.288 1.288,1.005 v 0 c 0.108,0.716 -0.309,1.375 -0.932,1.47 v 0 c -0.052,0.008 -0.103,0.012 -0.153,0.012 v 0 c -0.564,0 -1.07,-0.478 -1.169,-1.135"
       transform="matrix(1.3333333,0,0,-1.3333333,1142.52,131.76987)"
       style="fill:url(#radialGradient884);stroke:none" />
    <path
       id="path885"
       d="m 0,0 c -0.065,-0.434 -0.22,-1.151 -0.07,-1.495 0.135,-0.309 -0.451,0.057 -1.025,0.122 -0.595,0.067 -1.241,-0.118 -1.034,0.159 0.344,0.46 0.34,1.011 0.41,1.479 0.076,0.509 0.449,0.469 0.924,0.396 C -0.321,0.588 0.09,0.597 0,0"
       style="fill:#a7a5a6;fill-opacity:1;fill-rule:nonzero;stroke:none"
       transform="matrix(1.3333333,0,0,-1.3333333,1331.1667,98.706)"
       clip-path="url(#clipPath886)" />
    <path
       id="path889"
       d="m 120.43,34.402 c -0.59,-0.419 -0.667,-1.118 -0.304,-1.633 v 0 c 0.362,-0.515 1.027,-0.651 1.617,-0.231 v 0 c 0.59,0.419 0.776,1.176 0.413,1.691 v 0 c -0.206,0.292 -0.543,0.444 -0.904,0.444 v 0 c -0.276,0 -0.566,-0.089 -0.822,-0.271"
       transform="matrix(1.3333333,0,0,-1.3333333,1142.52,131.76987)"
       style="fill:url(#radialGradient889);stroke:none" />
    <path
       id="path890"
       d="m 0,0 c -0.358,-0.254 -0.982,-0.639 -1.126,-0.986 -0.129,-0.312 -0.271,0.364 -0.623,0.823 -0.364,0.476 -0.945,0.813 -0.602,0.855 0.57,0.071 0.964,0.457 1.35,0.73 0.419,0.298 0.65,0.002 0.926,-0.39 C 0.202,0.639 0.492,0.35 0,0"
       style="fill:#a7a5a6;fill-opacity:1;fill-rule:nonzero;stroke:none"
       transform="matrix(1.3333333,0,0,-1.3333333,1307.0784,86.382)"
       clip-path="url(#clipPath891)" />
    <path
       id="path894"
       d="m 107.227,43.609 c -0.432,-0.459 -0.353,-1.232 0.176,-1.726 v 0 c 0.529,-0.495 1.23,-0.429 1.662,0.029 v 0 c 0.432,0.459 0.432,1.137 -0.098,1.631 v 0 c -0.277,0.26 -0.624,0.391 -0.953,0.391 v 0 c -0.298,0 -0.582,-0.107 -0.787,-0.325"
       transform="matrix(1.3333333,0,0,-1.3333333,1142.52,131.76987)"
       style="fill:url(#radialGradient894);stroke:none" />
    <path
       id="path895"
       d="M 0,0 C 0.32,-0.299 0.823,-0.834 1.192,-0.905 1.523,-0.969 0.889,-1.244 0.51,-1.681 0.117,-2.133 -0.097,-2.769 -0.207,-2.442 c -0.184,0.545 -0.641,0.853 -0.986,1.176 -0.376,0.351 -0.132,0.636 0.197,0.986 C -0.666,0.069 -0.441,0.412 0,0"
       style="fill:#a7a5a6;fill-opacity:1;fill-rule:nonzero;stroke:none"
       transform="matrix(1.3333333,0,0,-1.3333333,1285.3976,71.924933)"
       clip-path="url(#clipPath896)" />
    <path
       id="path899"
       d="M 85.114,29.222 C 84.497,29.094 84.119,28.416 84.27,27.706 v 0 c 0.151,-0.708 0.762,-1.055 1.378,-0.927 v 0 c 0.617,0.128 1.006,0.684 0.856,1.393 v 0 c -0.134,0.629 -0.64,1.071 -1.185,1.071 v 0 c -0.068,0 -0.137,-0.007 -0.205,-0.021"
       transform="matrix(1.3333333,0,0,-1.3333333,1142.52,131.76987)"
       style="fill:url(#radialGradient899);stroke:none" />
    <path
       id="path900"
       d="m 0,0 c 0.091,-0.429 0.197,-1.155 0.458,-1.424 0.235,-0.243 -0.442,-0.105 -1.003,-0.246 -0.581,-0.145 -1.121,-0.545 -1.024,-0.213 0.162,0.552 -0.036,1.066 -0.134,1.528 -0.107,0.504 0.256,0.598 0.726,0.696 C -0.506,0.439 -0.125,0.591 0,0"
       style="fill:#a7a5a6;fill-opacity:1;fill-rule:nonzero;stroke:none"
       transform="matrix(1.3333333,0,0,-1.3333333,1256.9044,91.3612)"
       clip-path="url(#clipPath901)" />
    <path
       id="path904"
       d="m 56.998,32.614 c -0.427,-0.586 -0.277,-1.272 0.23,-1.646 v 0 c 0.508,-0.372 1.18,-0.291 1.608,0.294 v 0 c 0.426,0.585 0.361,1.363 -0.146,1.736 v 0 c -0.182,0.133 -0.395,0.197 -0.614,0.197 v 0 c -0.393,0 -0.804,-0.205 -1.078,-0.581"
       transform="matrix(1.3333333,0,0,-1.3333333,1142.52,131.76987)"
       style="fill:url(#radialGradient904);stroke:none" />
    <path
       id="path905"
       d="m 0,0 c -0.258,-0.354 -0.728,-0.918 -0.754,-1.292 -0.024,-0.338 -0.373,0.258 -0.853,0.582 -0.496,0.335 -1.154,0.471 -0.842,0.62 0.518,0.248 0.769,0.739 1.048,1.121 0.303,0.416 0.615,0.208 1.002,-0.077 C -0.012,0.67 0.356,0.488 0,0"
       style="fill:#a7a5a6;fill-opacity:1;fill-rule:nonzero;stroke:none"
       transform="matrix(1.3333333,0,0,-1.3333333,1222.4493,87.476)"
       clip-path="url(#clipPath906)" />
    <path
       id="path909"
       d="m 36.06,42.28 c -0.549,-0.308 -0.704,-1.069 -0.347,-1.699 v 0 c 0.357,-0.631 1.045,-0.777 1.594,-0.469 v 0 c 0.549,0.309 0.752,0.956 0.395,1.586 v 0 c -0.255,0.45 -0.704,0.712 -1.139,0.712 v 0 c -0.174,0 -0.346,-0.042 -0.503,-0.13"
       transform="matrix(1.3333333,0,0,-1.3333333,1142.52,131.76987)"
       style="fill:url(#radialGradient909);stroke:none" />
    <path
       id="path910"
       d="m 0,0 c 0.216,-0.381 0.536,-1.042 0.867,-1.22 0.297,-0.16 -0.39,-0.233 -0.882,-0.536 -0.511,-0.314 -0.905,-0.858 -0.912,-0.512 -0.013,0.574 -0.357,1.005 -0.59,1.416 -0.254,0.448 0.064,0.647 0.483,0.882 C -0.615,0.265 -0.298,0.525 0,0"
       style="fill:#a7a5a6;fill-opacity:1;fill-rule:nonzero;stroke:none"
       transform="matrix(1.3333333,0,0,-1.3333333,1191.0212,73.746533)"
       clip-path="url(#clipPath911)" />
    <path
       id="path914"
       d="m 15.158,32.441 c -0.611,-0.152 -0.963,-0.845 -0.786,-1.547 v 0 c 0.177,-0.703 0.802,-1.026 1.413,-0.874 v 0 c 0.611,0.152 0.978,0.721 0.801,1.424 v 0 C 16.432,32.054 15.93,32.47 15.4,32.47 v 0 c -0.08,0 -0.162,-0.009 -0.242,-0.029"
       transform="matrix(1.3333333,0,0,-1.3333333,1142.52,131.76987)"
       style="fill:url(#radialGradient914);stroke:none" />
    <path
       id="path915"
       d="M 0,0 C 0.107,-0.425 0.241,-1.147 0.512,-1.406 0.757,-1.64 0.075,-1.528 -0.481,-1.689 -1.056,-1.857 -1.58,-2.277 -1.496,-1.941 c 0.14,0.557 -0.077,1.064 -0.192,1.522 -0.126,0.499 0.233,0.606 0.699,0.722 C -0.523,0.419 -0.148,0.585 0,0"
       style="fill:#a7a5a6;fill-opacity:1;fill-rule:nonzero;stroke:none"
       transform="matrix(1.3333333,0,0,-1.3333333,1163.5735,87.036533)"
       clip-path="url(#clipPath916)" />
    <path
       id="path919"
       d="M 595.527,31.606 C 595.13,31 595.316,30.321 595.841,29.975 v 0 c 0.526,-0.347 1.194,-0.231 1.591,0.376 v 0 c 0.396,0.605 0.291,1.379 -0.235,1.725 v 0 c -0.172,0.113 -0.367,0.167 -0.567,0.167 v 0 c -0.41,0 -0.836,-0.228 -1.103,-0.637"
       transform="matrix(1.3333333,0,0,-1.3333333,1142.52,131.76987)"
       style="fill:url(#radialGradient919);stroke:none" />
    <path
       id="path920"
       d="m 0,0 c -0.24,-0.367 -0.68,-0.954 -0.687,-1.329 -0.006,-0.338 -0.386,0.239 -0.881,0.538 -0.513,0.309 -1.177,0.411 -0.873,0.576 0.505,0.274 0.73,0.777 0.989,1.173 0.281,0.43 0.604,0.239 1.005,-0.025 C -0.046,0.668 0.33,0.505 0,0"
       style="fill:#a7a5a6;fill-opacity:1;fill-rule:nonzero;stroke:none"
       transform="matrix(1.3333333,0,0,-1.3333333,1940.4416,88.6196)"
       clip-path="url(#clipPath921)" />
    <path
       id="path924"
       d="m 619.796,28.29 c -0.609,-0.164 -0.946,-0.863 -0.755,-1.562 v 0 c 0.191,-0.699 0.821,-1.011 1.429,-0.847 v 0 c 0.608,0.164 0.964,0.741 0.773,1.439 v 0 c -0.164,0.6 -0.663,1.004 -1.186,1.004 v 0 c -0.087,0 -0.174,-0.011 -0.261,-0.034"
       transform="matrix(1.3333333,0,0,-1.3333333,1142.52,131.76987)"
       style="fill:url(#radialGradient924);stroke:none" />
    <path
       id="path925"
       d="m 0,0 c 0.116,-0.423 0.263,-1.142 0.539,-1.396 0.249,-0.229 -0.435,-0.13 -0.987,-0.302 -0.571,-0.179 -1.087,-0.609 -1.01,-0.272 0.13,0.56 -0.097,1.062 -0.222,1.518 -0.135,0.497 0.222,0.611 0.685,0.736 C -0.531,0.409 -0.159,0.582 0,0"
       style="fill:#a7a5a6;fill-opacity:1;fill-rule:nonzero;stroke:none"
       transform="matrix(1.3333333,0,0,-1.3333333,1969.7288,92.555467)"
       clip-path="url(#clipPath926)" />
    <path
       id="path929"
       d="m 640.525,39.191 c -0.51,-0.37 -0.576,-1.144 -0.148,-1.729 v 0 c 0.428,-0.584 1.128,-0.65 1.637,-0.28 v 0 c 0.51,0.37 0.636,1.036 0.209,1.621 v 0 c -0.276,0.376 -0.69,0.582 -1.085,0.582 v 0 c -0.219,0 -0.432,-0.063 -0.613,-0.194"
       transform="matrix(1.3333333,0,0,-1.3333333,1142.52,131.76987)"
       style="fill:url(#radialGradient929);stroke:none" />
    <path
       id="path930"
       d="m 0,0 c 0.259,-0.354 0.653,-0.973 1.002,-1.111 0.314,-0.125 -0.36,-0.277 -0.814,-0.635 -0.47,-0.371 -0.799,-0.957 -0.846,-0.615 -0.079,0.57 -0.471,0.958 -0.75,1.339 -0.304,0.415 -0.011,0.65 0.378,0.932 C -0.642,0.192 -0.357,0.487 0,0"
       style="fill:#a7a5a6;fill-opacity:1;fill-rule:nonzero;stroke:none"
       transform="matrix(1.3333333,0,0,-1.3333333,1996.7799,77.828667)"
       clip-path="url(#clipPath931)" />
    <path
       id="path934"
       d="m 657.346,35.772 c -0.632,-0.354 -0.781,-1.042 -0.474,-1.592 v 0 c 0.307,-0.55 0.953,-0.755 1.584,-0.399 v 0 c 0.632,0.355 0.895,1.089 0.588,1.639 v 0 c -0.196,0.351 -0.576,0.542 -0.99,0.542 v 0 c -0.235,0 -0.48,-0.061 -0.708,-0.19"
       transform="matrix(1.3333333,0,0,-1.3333333,1142.52,131.76987)"
       style="fill:url(#radialGradient934);stroke:none" />
    <path
       id="path935"
       d="m 0,0 c -0.382,-0.215 -1.043,-0.533 -1.223,-0.863 -0.161,-0.297 -0.232,0.39 -0.533,0.884 -0.313,0.511 -0.855,0.907 -0.51,0.913 0.575,0.011 1.007,0.354 1.419,0.585 0.448,0.253 0.646,-0.066 0.88,-0.485 C 0.267,0.614 0.526,0.296 0,0"
       style="fill:#a7a5a6;fill-opacity:1;fill-rule:nonzero;stroke:none"
       transform="matrix(1.3333333,0,0,-1.3333333,2022.8933,84.969067)"
       clip-path="url(#clipPath936)" />
    <path
       id="path937"
       d="m 0,0 c -9.965,-6.279 -17.582,-5.701 -23.809,-3.547 -9.644,3.337 -14.571,20.668 -18.647,25.041 -2.289,2.456 -12.768,-19.797 -36.697,-22.739 -11.829,-1.454 -24.204,6.208 -29.869,21.701 -0.076,0.208 -27.779,-19.345 -47.837,-19.263 -16.775,0.068 -34.436,20.625 -39.103,21.595 -0.358,0.075 -33.532,-12.098 -65.074,-9.229 -31.668,2.88 -60.331,14.124 -65.439,21.306 -0.143,0.201 -14.253,-15.624 -30.456,-21.641 -17.184,-6.381 -38.502,-3.184 -41.369,-4.254 -0.127,-0.047 -7.675,-2.133 -13.595,0.361 -5.131,2.162 -8.642,8.899 -9.926,9.445 -0.105,0.045 -18.417,-16.115 -38.927,-14.607 -13.544,0.995 -30.805,16.309 -36.014,20.189 -0.451,0.336 -0.655,0.68 -0.979,0.709 -0.347,0.031 -1.05,-1.404 -1.937,-2.906 -16.204,-27.439 -46.595,-29.365 -60.26,-25.588 -14.296,3.95 -15.756,20.581 -20.011,25.147 -2.289,2.456 -12.769,-19.796 -36.698,-22.739 -11.828,-1.454 -24.204,6.209 -29.868,21.701 -0.077,0.208 -27.78,-19.345 -47.837,-19.263"
       style="fill:none;stroke:#a7a5a6;stroke-width:1;stroke-linecap:butt;stroke-linejoin:miter;stroke-miterlimit:10;stroke-dasharray:none;stroke-opacity:1"
       transform="matrix(1.3333333,0,0,-1.3333333,2068.3668,92.010267)"
       clip-path="url(#clipPath938)" />
  </g>
</svg>
