<?xml version="1.0" encoding="UTF-8"?>
<svg width="1200pt" height="1200pt" version="1.1" viewBox="0 0 1200 1200" xmlns="http://www.w3.org/2000/svg">
 <path d="m1140.7 521.05c-2.2734-150.43-5.1992-300.87-7.7969-451.3 0-1.9492-1.625-3.8984-2.9258-7.1484-4.2227-0.64844-7.4727-1.6211-10.723-1.6211-38.34-0.32812-77.004-0.97656-115.34-0.97656-66.609 0.32422-133.21 0.97656-199.82 1.3008-48.738 0.32422-97.473 0.97266-146.21 0.97266-45.488 0-90.973-0.64844-136.46-0.64844-62.383 0.32422-124.44 0.97266-186.82 1.3008-90.973 0.64844-181.95 0.97266-272.6 1.6211-3.8984 0-8.125 1.9531-12.672 2.9258-0.32422 5.5234-0.97656 9.7461-0.97656 13.973 0.32422 33.141 0.97656 65.957 0.65234 99.098 0 47.762-0.97656 95.195-0.97656 142.96 0 52.957 0.97656 105.92 1.3008 158.88 0.64844 61.734 0.97266 123.14 1.2969 184.88 0.32812 45.484 0.97656 90.973 1.625 136.14 0.32812 39.965 0.32812 80.25 0.97656 120.21 0.64844 51.336 1.625 102.67 2.5977 154.33 0.32422 14.621 0 29.242 0.65234 43.863 0.32422 13.645 3.8984 16.895 17.543 17.543 5.5234 0.32812 10.723 0 16.246 0 33.465-0.32031 66.934-0.64844 100.72-0.64844 69.855 0.32812 139.71 1.3008 209.57 1.3008 61.734 0 123.46-0.97266 184.88-1.3008 48.734-0.32422 97.473-0.32422 146.21-0.32422 59.133 0.32422 117.94 0.97266 177.08 0.97266 68.879 0 137.43-0.64844 206.32-1.2969 9.7461 0 19.492 0.32422 29.566-6.5-0.32422-202.74-0.97266-406.46-3.8984-610.5zm-11.047 604.98c-6.5 0.65234-11.695 1.3008-16.895 1.3008-79.605 0.32422-159.21 0.32422-238.81 0.32422-85.129 0-169.93 0-255.05-0.32422-20.145 0-39.965-0.64844-60.109-0.97266h-4.8711c-76.68 4.5469-153.68-0.32812-230.36 0.97266-41.59 0.64844-83.5 1.3008-125.09 1.3008-38.016 0-75.703-0.65234-113.72-0.97656-4.5469 0-9.4219-1.2969-14.621-1.9492-0.97266-18.195-1.9492-35.414-2.2734-52.633-0.64844-40.941-0.65234-82.203-0.97656-123.47-0.64844-103-0.97266-205.67-1.9492-308.66-0.64844-77.977-1.625-155.63-1.9492-233.61-0.32422-100.07-0.32422-200.14-0.32422-300.54 0-9.7461 0.97266-19.168 1.625-30.215 6.1719-1.3008 11.371-3.5742 16.246-3.5742 37.363-0.64844 74.727-1.3008 112.09-1.625 13.969-0.32422 28.266-0.32422 42.238-0.32422 78.953 0.32422 157.91 0.97656 236.86 0.64844 90.973 0 181.95-0.97266 272.92-1.2969 77.004 0 153.68 0.32422 230.69 0.64844 38.34 0 77.004-0.32422 115.34-0.32422 9.7461 0 19.168 1.625 29.891 2.2734 0.64844 7.4727 1.9492 13.973 1.9492 20.145 1.3008 101.7 2.2734 203.39 3.5742 305.41 1.3008 138.41 2.6016 277.15 3.5742 415.56 0.32422 56.855 0.64844 113.72 0.97266 170.58 0.32812 35.738 1.3008 71.477 1.625 107.22 0 11.371-1.625 22.094-2.5977 34.113z"/>
 <path d="m1112.7 734.84c-0.65234-71.48-1.9492-142.96-2.2773-214.44-0.32422-55.238 0.32812-110.47 0-165.7-0.97266-83.504-2.2734-166.68-3.5703-250.18 0-5.5234-1.3008-11.371-2.2773-17.867h-25.992c-77.328 0-154.66 0-231.98-0.32812-59.133-0.32422-117.94-0.97266-177.08-0.97266-33.465 0-67.254-0.32422-100.72 0.97266-33.789 1.3008-67.578-0.64844-101.7 0.32812-51.984 1.2969-103.97-0.32812-155.96-0.65234-20.145 0-39.961-0.64844-60.105-0.64844-38.34-0.32422-76.68-0.65234-115.34-0.32422-18.848 0-37.691-0.97656-55.559 3.8984-5.5234 19.492-0.97656 997.15 5.1953 1022.5 6.1758 0.65234 11.699 1.9531 17.547 1.9531h103.97c70.828-0.32812 141.66-0.97656 212.81-0.97656 107.22 0 214.44 0.64844 321.34 0.97656 41.266 0 82.203-0.32812 123.46-0.32812h232.31c5.8477 0 11.699-1.2969 19.168-2.2734 0-13.645 0.32813-26.641 0.32813-39.312-0.97656-112.42-2.2734-224.52-3.5742-336.61zm-9.75 353.5c0 3.25-0.32422 6.5-0.97266 11.371-5.8477 0.32422-11.699 1.3008-17.223 1.3008-42.234 0.32422-84.477 0.32422-126.71 0.32422-78.953 0-157.91 0.32422-236.86 0.32422-53.613 0-107.22-0.64844-160.83-0.64844-43.211 0-86.426 1.9492-129.96 1.625-55.234-0.65234-110.47-2.9258-165.38-3.5742-24.691-0.32422-49.711 2.5977-74.402 2.5977-26.969 0.32422-53.938-0.97266-81.23-1.625-3.2461 0-6.1719-1.2969-11.047-2.2734-0.97266-8.4492-2.5977-16.57-2.5977-25.344-0.97266-32.816-1.9492-65.957-2.5977-99.098-0.32812-20.469 0.32422-41.262 0.32422-61.73 0-34.766-0.32422-69.207-0.32422-103.97 0-15.594 1.2969-31.191 0.97266-47.109 0-21.121-1.3008-42.242-1.625-63.359-0.64844-56.211-0.64844-112.42-1.2969-168.95-0.32812-29.566-1.625-59.457-1.9492-89.023-0.65234-65.957-1.3008-131.91-1.3008-198.2 0-43.211 0.97266-86.422 1.9492-129.96 0-3.5742 0.97266-7.4727 1.9492-12.996 167-5.8477 333.36-1.3008 499.71-2.6016 166.03-1.2969 332.06-0.32422 500.36-0.32422 0.65234 6.5 1.3008 11.371 1.3008 16.57 0.32422 59.133 0.32422 117.94 1.3008 177.08 0.64844 59.457 2.5977 118.91 3.5742 178.38 0.64844 51.336 0.97266 102.67 1.3008 154.33 0.97266 119.57 2.2734 239.13 2.9219 358.7 0.97266 36.715 0.64844 72.453 0.64844 108.2z"/>
 <path d="m1057.8 914.19c4.2227 8.1211 10.398 16.246 12.344 25.02 2.2773 10.07-5.8438 18.844-14.617 20.469-6.1758-10.723-12.023-20.793-17.547-31.191-3.5742-7.1484-8.4492-14.297-9.7461-21.77-9.0977-59.133-34.117-111.77-65.957-161.16-32.492-50.035-74.078-92.922-113.07-137.76-19.492-22.418-38.34-45.488-57.184-68.555-2.9258-3.5742-6.8242-7.4727-1.625-13.973 4.2227 2.9258 8.4492 5.8477 12.672 9.0977 8.7734 6.5 17.219 13.324 25.992 19.172 22.746 15.27 46.137 30.215 68.883 45.812 7.4727 5.1992 14.621 11.047 21.117 17.867 7.4727 7.8008 13.973 16.898 10.074 30.867-4.875 0.65234-10.398 0.97656-15.598 1.625-1.625-3.25-2.2734-5.5234-3.25-7.1484-1.2969-1.9492-2.5977-3.8984-5.5234-8.1211-1.2969 5.8477-2.9219 8.7734-2.5977 11.371 1.9492 9.4219 13.648 16.895 22.094 14.297 10.723-3.25 19.496-16.57 14.621-25.02-3.5742-6.1719-6.4961-12.672-10.723-18.195-14.945-18.844-35.09-31.84-54.91-45.16-26.316-17.223-52.309-34.441-78.301-51.988-3.8984-2.5977-7.7969-5.5234-6.8242-11.371 1.625-0.32422 2.9258-0.97266 3.5742-0.64844 2.9219 1.3008 6.1719 2.5977 8.4453 4.5469 31.844 25.02 68.883 32.816 108.2 31.844 16.242-0.32813 29.891 1.9492 41.91 12.668 4.2227 3.5781 8.7734 6.1758 12.996 9.75 28.918 23.719 51.336 51.012 56.211 89.676 0.64844 3.8984 2.5977 7.7969 4.2227 12.672 6.8242-3.5781 12.023-6.5 17.547-9.4258 7.1484 18.52 7.4727 30.867 1.3008 44.84-7.4766 16.246-29.242 25.016-45.488 18.195-10.074-4.2266-16.57-15.922-14.621-26.645 1.625-9.4219 5.8477-12.02 19.492-12.02 2.2773 2.9219 4.5508 6.1719 7.1484 9.4219 9.4258-6.1758 10.723-9.4219 4.5508-15.598-6.5-6.8242-14.621-9.0977-23.719-6.4961-9.75 2.9219-15.273 9.7461-17.219 19.496-4.2266 23.391 14.617 47.758 40.938 42.234 3.25-0.64844 6.8203 0.32812 12.02 0.65234-3.2461 6.1719-5.1992 10.395-7.4727 14.621-8.1211 15.918-8.1211 32.164-0.64844 48.41 6.4961 13.648 21.117 21.445 36.062 19.82 14.949-1.625 24.695-17.219 19.172-31.191-2.6016-6.8242-8.4453-10.074-14.945-10.723-7.1484-0.64844-10.398 3.5742-12.348 9.7461 4.875 5.1992 15.598 3.5742 14.621 13.648-9.0977 11.371-17.219 12.672-25.992 2.9219-3.5742-3.8984-5.8477-9.0977-6.8242-14.297-4.5469-18.844 2.6016-35.09 12.672-50.359 7.1484-11.371 15.27-22.094 24.371-35.414 0.64844-0.32422 4.8711-1.3008 10.395-2.9258-4.875-26.969-5.1992-54.258-14.945-79.602-13.648-34.441-29.891-67.258-54.262-95.523-3.5742-4.2227-6.1719-9.7461-9.0977-14.621 3.5742-4.5469 6.1758-7.7969 8.4492-11.371 12.348-18.52 25.02-36.715 23.719-60.758-0.64844-12.348 0.64844-24.695 0-37.039-0.32422-7.4766-1.9492-15.598-5.5234-21.77-7.1484-12.348-12.023-25.02-15.27-38.664-4.2266-19.172-14.625-26.969-33.793-28.27-11.695-0.64844-24.043-1.2969-35.414-4.2227-31.84-8.4492-58.484 2.9258-83.504 20.793-6.8203 4.875-12.996 8.7734-21.117 11.047-12.023 3.25-20.793 10.723-22.094 24.695-0.32422 4.5469-3.25 8.7695-4.875 13.645-1.625 5.5234-4.5469 11.371-4.2227 17.223 0.64844 10.719 3.25 21.117 4.875 31.84 1.6211 10.723 2.9219 21.77 4.5469 35.09-38.012-17.219-57.832-45.812-69.207-82.203 7.8008-10.395 15.598-20.469 23.395-30.215-1.625-13.648-15.27-3.25-21.117-10.723 2.5977-4.5508 5.1953-9.0977 8.4453-14.945-6.1719-4.875-12.02-9.4219-17.867-13.973 5.8477-19.168 12.992-37.363 24.691-52.961 16.246-21.441 38.664-32.488 65.633-33.465 17.867-0.64844 30.867 11.047 33.141 27.293 1.625 12.348-4.2266 19.82-17.547 21.77-1.625-4.5508-3.2461-9.4219-4.8711-14.621-11.375 8.4492-12.023 14.297-4.2266 22.094 8.4492 8.4453 17.871 7.4727 26.969-0.97656 23.395-21.441 10.723-69.855-15.922-79.926-5.1953-1.9492-10.398-4.5508-15.922-7.1484 15.273-18.844 77.332-21.117 103.65-3.8984-1.3008 5.1992-2.9258 10.723-4.5469 16.246-1.9531 6.8203-4.875 13.32-6.1758 20.145-5.1992 26.316-0.32422 49.383 22.746 66.281 16.895 12.02 36.062 12.996 52.633 0.64844 6.5-4.8711 11.699-11.047 18.195-16.246 3.5742-2.9219 7.4727-4.8711 12.348-7.7969 3.5742 5.8477 7.1484 9.4219 8.4453 13.973 5.8516 19.492 12.672 39.312 16.57 59.133 5.1992 27.293 2.6016 54.91-1.6211 82.527-1.625 11.371 0.32422 21.441 7.7969 30.215 5.8477 6.5 15.922 7.7969 22.094 3.25 7.7969-5.8477 8.1211-13.648 0.97266-23.395-3.8984 1.9492-7.7969 3.5742-14.293 6.8242-0.32812-9.7461-1.3008-17.223-0.32812-24.367 2.2773-15.922 5.1992-32.168 8.125-48.09 6.1719-34.113 9.4219-67.578-8.125-99.746-0.97266-1.9492-1.9453-3.8984-2.2734-6.1719-0.97266-22.094-14.621-36.391-29.566-50.363-4.5469-4.2227-8.4492-9.7461-11.047-15.594-4.8711-10.723-8.7734-21.77-13.973-34.441 6.1758-0.97266 12.672-2.2734 19.172-2.5977 14.297-1.3008 20.469 2.9219 25.992 16.246 1.9492 4.8711 3.8984 9.4219 5.8477 13.645 10.723 0.97656 14.297-5.1992 16.57-12.02 5.8516-16.898-1.625-34.441-18.52-41.59-18.844-7.8008-38.34-6.8242-57.184-1.3008-14.297 4.2227-26.316 4.2227-40.613-1.9492-21.77-9.4219-44.188-17.871-68.555-17.547-44.516 0.65234-85.129 13.648-121.84 38.992-4.2227 2.9219-8.7695 5.1953-15.594 9.4219-1.3008-9.0977-2.2734-15.273-2.9258-21.445-0.64844-5.5234 0.32422-11.047-0.97266-16.246-2.6016-13.32-9.4219-16.57-25.02-12.672 3.8984 32.168-7.4727 61.086-22.742 89.027-17.871 31.84-31.191 65.633-31.516 103 0 2.2734 0 4.5469-0.65234 6.5-1.625 5.5234-5.1992 7.4727-11.695 5.5234 0-23.719 0.32422-46.789 0-70.184-0.32422-35.09 16.895-60.434 44.188-80.25 3.8984-2.6016 8.4453-6.5 9.0977-10.398 1.9492-8.7734 3.8984-18.195-1.3008-28.918-78.953-0.32422-158.55-1.625-237.51 0.32422-6.5 22.094-5.5234 27.945 10.723 39.641 22.418 16.246 32.488 40.289 36.062 64.98 3.8984 25.992 0.65234 52.637 0.32422 79.281 0 2.2734-2.2734 4.2227-3.25 6.4961-3.8984-3.8984-4.5469-7.4727-5.5195-11.371-3.25-15.922-4.2266-32.492-9.75-47.438-8.4453-22.742-19.816-44.188-30.215-66.281-10.723-23.395-20.145-46.785-15.922-73.43 0.32422-3.25-1.3008-6.8242-2.2734-10.723-9.0977 1.3008-14.621 5.1992-18.195 11.371-3.25 5.8516-6.5 12.348-8.1211 19.172-1.3008 6.4961-0.32422 13.32-0.32422 20.145-3.25-0.32812-4.2266-0.32812-5.1992-0.65234-1.3008-0.64844-2.9258-1.6211-4.2266-2.5977-54.258-38.988-114.69-48.086-179.02-35.414-5.8477 0.97266-11.371 3.8984-16.246 6.8203-13.969 8.7734-28.266 12.023-44.836 8.125-13-3.25-26.969-3.25-40.293 0.97266-17.219 5.8516-30.863 24.371-29.562 40.289 1.2969 14.621 11.695 21.77 25.668 16.895v-15.594c0-6.8242 1.2969-12.996 8.7695-15.922 8.125-3.25 16.57-4.5469 25.992 1.625-1.9492 5.1992-3.8945 10.074-5.8477 14.945-1.9492 5.5234-5.1953 11.047-6.1719 16.57-1.9492 11.375-7.7969 19.496-15.598 27.621-7.4727 7.7969-13.969 16.566-20.145 25.34-2.9219 4.2266-5.1953 10.398-4.2227 14.945 1.9492 8.4492-1.625 14.621-3.8984 21.445-3.8984 11.047-9.4219 22.742-9.0977 34.117 0.64844 15.918 5.1992 31.84 9.0977 47.434 3.8984 13.973 9.4219 27.617 14.297 41.266 6.1719 17.543 10.07 35.414 3.8984 53.934-1.625 4.875-2.2734 10.723-9.0977 12.023-6.1719-1.625-7.4727-13.973-17.547-7.4727-2.9219 7.1484-1.2969 13.32 5.1992 17.867 6.1758 4.2266 12.996 4.2266 19.82 0.32812 9.4219-5.8516 15.594-13.973 16.246-24.695 0.97266-13.969 0.64844-27.941-0.65234-41.914-0.97266-10.07-3.8984-20.145-6.1719-30.215-9.0977-39.316-4.2227-76.355 15.598-111.45 1.625-3.2461 4.2227-5.8477 6.1719-8.1211 9.7461 1.2969 13.648 8.1211 18.52 13.645 13.32 15.598 51.336 20.797 65.957 2.2734 9.0977-11.695 16.895-24.367 16.246-39.637-0.65234-14.621-2.9258-28.918-4.5508-43.215-0.64844-5.1953-2.2734-10.395-3.2461-14.945 37.688-20.145 111.12-15.918 127.04 8.125-8.7734 0.32422-16.57 0.32422-24.367 0.64844-8.125 0.32422-16.898 0.97656-22.422 7.4727-11.047 12.996-24.367 25.344-21.117 45.164 0.32422 2.5977-0.64844 5.1992-0.64844 8.1211-0.97656 13.645 12.672 30.543 26.316 32.164 8.1211 0.97656 18.195-3.8984 22.094-11.043 4.5469-7.8008 1.625-13.324-8.4492-17.223-1.3008 4.5508-2.5977 9.0977-4.2227 15.27-4.875 0-9.7461 0.65234-13.973-0.32422-7.1484-1.6211-11.047-7.4727-9.7461-14.621 2.5977-13.32 8.7734-25.34 22.418-29.566 10.074-3.2461 21.445-5.1992 31.84-4.5469 47.438 2.9219 63.035 46.461 62.711 78.953 0 8.7695-7.1484 17.543-11.375 26.316-1.6211 3.25-3.8984 6.1758-4.2227 6.5 4.2227 14.945 8.125 26.965 11.047 39.312 0.97656 3.5742 0.97656 8.1211-0.64844 11.047-10.074 18.52-19.82 37.039-31.191 54.91-5.5234 8.7734-13.648 16.57-25.02 21.77 0-4.2227-0.97266-7.4727 0.32422-10.074 1.3008-3.2461 4.5508-6.1719 6.5-9.4219 7.4727-13.969 12.023-29.566 4.5469-43.211-8.7695-15.273-14.945-31.516-21.766-47.762-4.2266-9.4219-10.074-17.223-21.121-17.871-10.07-0.64844-18.52-4.5469-27.293-8.7734-26.965-13.32-54.258-17.219-83.176-6.1719-5.5234 2.2734-12.672 1.625-18.844 0.64844-17.547-2.9219-26.645 1.625-35.742 16.895-12.348 20.797-15.918 44.516-22.742 67.258-0.65234 2.5977-0.32422 5.5234-0.32422 8.1211-0.32812 12.348-0.32422 25.02-0.65234 37.367-0.32422 9.0977 1.625 16.895 7.1484 24.043 10.398 13.645 20.145 27.941 30.543 42.562-20.469 28.594-44.512 53.934-57.832 86.426-13.973 34.766-24.047 87.727-20.148 102.35 4.2266 0.97266 9.0977 2.2734 12.672 3.25 7.4766 9.7461 14.945 18.191 21.445 27.613 9.4219 13.324 16.895 27.621 16.57 44.84-0.97266 24.367-21.117 35.738-43.539 23.395 0.65234-3.25 1.3008-6.5 1.9492-9.75 6.1758-0.97266 11.371-1.9492 16.246-2.9219-0.97266-11.695-2.9219-13.973-11.047-13.973-9.0977 0-17.219 5.8477-19.82 13.973-2.9219 8.7734 0 19.168 7.1484 25.016 12.023 9.75 31.516 9.4219 43.215-0.97266 18.195-15.922 22.418-36.066 16.246-58.809-1.625-5.5234-3.5742-10.723-5.5234-16.246 24.691-4.2227 34.441-8.4492 44.836-20.145 14.621-15.922 11.695-40.289-5.8477-52.637-7.7969-5.5234-21.77-4.5469-28.594 2.2773-9.0977 9.0977-5.8477 19.492 8.125 23.719 1.2969-4.875 2.2734-10.074 3.8984-16.57 5.8477 1.2969 10.723 2.2734 14.945 2.9219 8.1211 19.82 4.875 32.492-9.4219 40.941-13.645 8.1211-34.441 4.8711-44.836-6.8242-12.676-14.297-13.324-32.492-1.625-47.438 3.8984 2.2734 7.7969 4.5508 13.645 7.7969 1.9492-6.4961 3.8984-11.371 4.5508-16.57 5.8477-37.363 23.715-68.23 50.035-94.547 17.543-17.547 17.543-17.871 42.562-15.922 22.094 1.625 43.863 1.3008 65.957-4.875 26.316-7.4727 49.062-19.168 67.906-39.312 2.5977-2.5977 6.1719-4.5508 9.0977-6.8242 0.97266 0.97656 1.625 1.625 2.5977 2.6016-2.2734 7.4727-6.8242 13.969-12.02 19.816-14.297 16.246-34.117 24.371-52.961 33.793-18.848 9.4219-38.664 16.895-57.184 26.969-21.121 11.371-37.039 27.289-42.562 52.309-2.6016 12.348 6.8203 24.043 15.27 27.293 9.7461 3.5742 22.742-2.2734 24.691-12.023 0.65234-2.5977-2.2734-6.1719-4.2227-9.0977-0.32422-0.64844-2.9258 0-5.1992 0-0.97266 1.625-1.625 3.5742-2.5977 5.5234-1.3008 2.2734-2.9258 4.2266-4.5508 5.8516-11.695-4.875-14.297-9.4258-11.371-19.496 3.25-11.695 9.0977-22.094 18.52-29.891 15.598-13.648 33.793-23.395 52.637-31.516 23.391-10.074 47.109-19.172 65.629-37.691 1.625-1.625 5.1992-1.9492 11.375-3.8984-4.2266 6.8242-5.8477 10.395-8.4492 13.645-4.875 6.5-10.074 12.672-15.27 18.848-14.945 18.52-29.566 37.039-45.164 55.234-24.367 28.914-49.711 57.184-74.078 86.102-43.539 51.66-71.48 112.09-90.648 176.42-8.125 26.969-20.797 53.289-20.473 82.531 0 2.2734-1.9492 4.8711-2.5977 6.8203-13.973 2.2734-19.82-0.64844-22.742-11.695-2.6016-9.4219-1.9531-18.195 6.1719-25.02 2.2734-1.9492 3.5742-5.1992 6.4961-10.07-17.867 1.9492-25.992 11.371-29.242 24.691-4.5469 18.195-0.32422 34.766 15.598 46.137 7.4727 5.5234 14.297 11.047 18.52 19.82 1.625 3.8984 5.1992 6.8242 8.4492 9.7461 9.0977 9.75 10.07 24.047 0.64844 33.141-4.875 4.5508-11.695 7.8008-18.195 10.398-2.5977 0.97656-6.8242-1.3008-10.723-2.2734 0.65234-6.5 0.97656-11.695 1.625-16.57-7.4727-3.8984-14.297-4.2227-17.219 3.25-3.5742 8.4453-1.625 17.219 4.2227 24.691 5.1992 6.5 12.023 8.4492 20.145 6.5 13.973-3.25 26.316-9.4219 36.715-19.496 4.5508-4.5469 9.7461-8.125 13.645-11.695 12.023 2.9219 18.195 15.27 30.867 12.672 7.1484-3.9023 7.8008-15.922 18.195-16.246 7.1484 12.344 5.8477 24.367-2.5977 26.965-3.5742-1.6211-7.8008-3.2461-11.371-4.8711-7.1484 4.8711-5.5234 9.7461-1.625 14.297 4.2227 5.1953 13.645 6.4961 19.168 2.5977 8.7734-6.1758 15.598-13.32 15.273-25.344-0.32812-5.8477 0-12.023 0-18.195 4.2227-6.8242 8.7695-13.969 13.969-22.418 2.5977 3.8984 4.875 6.1719 5.8477 8.7734 4.5508 12.02 3.8984 24.367 0.97656 36.715-1.3008 5.5234-4.2266 12.02 5.1992 15.594 17.543-6.8242 21.766-24.367 27.941-39.637 1.9492-0.32813 3.25-0.65234 3.8984-0.32813 2.9258 1.3008 5.8477 2.6016 8.7734 4.2266 29.242 15.594 59.781 21.441 92.273 11.371 17.871-5.8477 34.117-15.27 45.164-30.215 13.969-18.848 24.043-39.641 20.145-64.66-1.625-9.0977-2.6016-18.191-3.25-27.293-0.97656-14.621-6.5-26.965-17.871-36.711-4.5469-3.9023-8.4492-8.4492-12.02-13.324-12.672-17.867-19.82-37.039-13.973-59.457 3.25-12.023 10.395-20.145 21.117-25.344 13.973-6.8242 32.492 0.97656 37.691 15.27 4.5469 12.348-1.9492 21.77-15.598 22.422-3.2461-5.1992-6.4961-10.398-10.07-15.598-12.023 11.047-12.672 20.793-3.25 27.617 13.32 9.4219 39.641 0.64844 41.914-15.594 3.25-22.422 1.9492-31.516-18.52-43.863-5.1992-2.9258-10.398-5.8516-15.922-7.7969-8.7695-3.5781-17.543-4.875-26.969-1.9531-20.469 5.8516-38.336 25.02-40.285 46.141-1.9492 19.492-1.3008 38.988 9.4219 56.531 1.625 2.6016 1.9492 5.8477 2.5977 8.4492-8.4492 4.5469-16.57 7.7969-23.391 12.672-7.1484 5.1992-13 11.695-22.098 20.469 0-8.1211-1.2969-13.32 0.32812-16.895 3.5703-8.1211 7.7969-16.57 13.645-23.719 11.695-14.297 12.348-29.566 6.1719-45.812-4.5469-11.695-14.621-17.219-26.641-15.922 3.2461 7.7969 6.4961 15.273 10.395 25.02-14.293-3.25-21.441-11.047-29.891-16.895-0.64844-3.8984-1.2969-6.8242-1.2969-10.074 0-4.2227-0.003906-8.7734 0.64844-12.996 4.2227-38.664 14.945-75.379 31.516-110.47 14.297-30.215 30.219-59.785 45.488-89.676 0.97266-1.625 2.5977-2.5977 5.1992-4.8711 0.97266 3.5703 2.5977 5.5234 2.2734 7.4688-3.5742 19.496-0.97656 38.664 1.9492 58.16 1.625 11.699 2.9219 23.719 3.25 35.418 0.32422 6.8203-0.97656 14.293-3.25 20.793-3.5742 9.7461-13.32 14.293-22.094 11.047-7.1484-2.6016-10.074-9.4219-5.5234-15.273 1.9492-2.5977 6.1719-3.8984 8.4492-5.5234-4.875-8.7695-9.4258-7.7969-13.973-5.5234-10.398 5.8516-12.672 22.422-4.5469 30.867 9.7461 10.398 25.34 11.375 36.711 1.9492 10.398-8.7695 17.223-19.816 15.598-33.789-1.9492-16.57-4.5508-33.141-6.8242-49.711-2.2734-16.57-4.2227-33.141-5.8477-49.711-0.32422-3.8984-0.65234-8.7734 6.4961-10.074 0.32812 3.5742 1.625 6.8242 0.97656 9.75-1.9492 14.297 1.3008 27.941 5.1992 41.586 6.4961 24.367 23.719 40.613 44.188 53.613 4.875 3.2461 11.047 4.8711 16.57 0 0-10.074 0.32422-10.398-4.875-15.922-8.1211-8.7734-12.02-19.172-14.293-30.543-4.5508-25.016-7.8008-50.359-4.5508-75.703 0.97266-6.5 0.32422-12.996 1.3008-19.496 1.625-12.672 3.25-25.668 6.1719-38.336 5.1992-23.07 12.672-46.141 16.246-69.531 3.25-21.77 2.9219-44.188 4.5469-66.281 0.32812-2.9258 0.97656-6.1758 1.9531-10.074 4.2227 0.32422 7.7969 0.97266 12.668 1.3008 0.65234 8.1211 1.3008 15.594 1.3008 23.066 0.32422 37.367 0 74.73 0.65234 112.1 0.97266 59.457 2.9219 118.91 3.2461 178.7 0.65234 83.824 0.65234 167.65 0 251.8 0 15.594-2.9219 31.191-5.5234 46.461-2.9219 17.223-13.645 29.891-25.992 41.266-12.996 11.695-14.945 22.09-6.1719 38.336h26.641c62.707 0 125.74 0.97656 188.45 0.65234 6.1719 0 12.348-1.625 17.543-2.2734 5.5234-18.523 2.9258-31.844-11.371-43.539-12.672-10.398-22.094-24.367-25.992-40.289-5.1992-21.445-10.723-43.215-11.695-65.309-2.9258-51.984-4.2266-103.64-4.875-155.63-0.97656-65.953-0.64844-132.23-1.625-198.19-0.64844-43.863-1.9492-87.727-2.5977-131.59-0.32422-18.844 0-37.688 0-55.559 6.1719-5.1992 11.047-5.5234 16.242 0.64844-3.8984 16.895-2.2734 34.441 2.6016 51.984 10.723 40.617 21.121 81.555 29.891 122.82 10.398 49.715 6.8242 98.125-18.844 143.29-1.3008 1.9492-1.3008 4.5508-2.2734 8.7734 4.5469-1.625 7.1484-2.2734 9.4219-3.5742 18.195-11.695 31.191-28.266 38.988-48.41 3.8984-10.074 5.5234-20.793 8.125-31.191 0.97266-3.8984 1.2969-8.4492 7.7969-9.7461 0.32422 4.5469 0.97266 8.4453 0.64844 12.02-1.9492 18.195-4.5469 36.391-5.8477 54.91-1.625 18.195 0 35.738 12.023 50.688 12.344 15.27 30.539 13.32 39.961-3.5742 5.1992-9.0977 2.2773-18.523-7.1445-23.07-4.2266-1.9492-7.4766-1.3008-8.4492 3.8984 3.5742 5.5234 6.8242 11.047 10.395 16.57-17.867 10.074-30.215 5.5234-32.812-11.695-1.9492-13.648-2.2773-27.941-1.625-41.914 0.97266-24.367 3.2461-48.734-1.625-72.781-0.32422-1.9492 0.97266-4.2227 2.2734-8.7695 3.5742 4.5469 5.5234 6.8203 7.1484 9.4219 14.945 27.617 30.215 54.91 45.16 82.527 22.422 41.262 38.34 84.801 41.914 131.91 0.65234 7.4727-0.32422 12.996-5.8477 18.844-5.5234 5.5234-8.7734 13.32-12.672 20.145-1.9492 3.2461-3.25 6.8203-4.5469 10.07-12.672-3.8984-12.672-3.8984-10.398-20.145 4.2227-6.4961 15.273-6.8242 15.273-16.895-11.051-2.2734-17.223-0.32422-24.371 7.7969-13.645 15.27-13.973 37.691 0.97656 52.637 8.4453 8.4453 11.695 17.871 12.344 28.918 0.32812 5.1953-1.2969 10.719-1.6211 15.918-3.25 33.145 5.8477 42.891 35.09 39.316 9.0977 3.8984 16.57 7.1484 25.016 10.723-4.2227 9.4219-13.645 9.7461-21.445 12.996-12.992 5.1953-22.09-5.1992-32.488-11.047-8.4492 15.918 9.7461 23.719 10.07 36.062-13.32 7.4727-26.641 8.125-40.289 5.5234-35.09-6.8203-49.059-31.516-50.684-64.008-0.65234-10.395 4.8711-22.418 10.723-31.516 8.1211-13.645 25.664-14.621 36.715-3.5742 2.9219 2.9258 4.2227 8.7734 3.5742 12.996-0.65234 5.5273-5.5234 7.4727-11.047 6.5-3.5742-0.32422-7.1484-0.65234-10.398-0.97266-3.8984 6.4961-0.97656 10.07 3.8984 12.668 13.973 7.4766 31.516-2.2734 34.117-18.844 2.9219-18.52-8.125-36.391-27.293-42.887-3.8984-1.3008-7.8008-2.2734-11.371-3.25-0.65234-1.625-0.97656-2.2734-0.97656-2.6016 0.64844-1.9492 1.3008-4.2227 2.5977-5.8477 11.051-17.219 14.621-35.738 11.699-55.883-4.5508-34.117-38.988-55.559-70.832-42.891-16.246 6.5-29.891 20.797-29.242 38.992 0.32812 11.371 7.4727 19.82 20.469 24.043 9.4219 3.25 18.195 0.32422 24.695-7.7969 3.8984-5.1992 6.1719-10.723 2.2734-16.246-3.8984-5.5234-8.7734-9.7461-16.57-5.8477-0.97266 5.1953-1.625 10.07-2.5977 14.945-12.348-0.97656-13.973-2.9258-13.648-11.371 0.65234-11.375 8.7734-19.496 20.797-21.445 19.168-3.25 36.387 9.4219 37.363 28.914 0.64844 8.4492-0.97656 17.223-3.5742 25.348-4.875 14.293-12.672 27.289-22.418 38.988-6.1758 7.4727-11.695 17.219-13.973 26.641-3.2461 13.648-3.2461 27.617-4.8711 41.59-0.32812 3.8984-1.3008 7.4727-0.65234 11.371 6.5 45.488 42.887 73.43 79.277 79.602 30.543 5.1992 60.434-0.64844 85.777-20.793 2.2734-1.9492 5.5234-2.6016 9.7461-4.2227 2.9258 11.371 3.8984 22.418 8.4492 31.516 4.5508 9.4219 11.695 19.168 25.02 19.496-1.625-12.672-5.5273-24.371-3.9023-35.418 1.3008-10.395 3.9023-22.418 15.273-31.191 0 8.125-0.65234 13.973 0.32422 19.496 1.625 10.07 3.8984 20.145 6.8242 29.891 1.9492 6.5 4.5469 13.32 8.4453 19.168 4.2266 6.1758 11.047 9.75 18.523 7.1484 4.5469-1.625 8.7695-5.8477 11.043-10.07 2.2734-4.2227-0.64844-8.4492-5.8477-9.4219-5.1953 1.625-10.723 3.5742-15.922 5.1992-7.4727-19.496-5.5195-26.32 7.4766-30.867 3.8984 4.2227 7.1484 9.0977 11.695 12.672 8.1211 6.1719 16.57 2.2734 24.691-0.97656 9.4258-3.5742 15.922-0.97266 22.746 6.1719 8.1211 8.4492 17.543 16.574 27.941 21.445 16.895 8.125 31.84-3.5742 30.543-22.418-0.32422-4.2227-2.9258-10.074-6.1758-12.02-5.1992-2.9258-10.395-0.32812-13.32 5.5234 1.9492 5.1953 3.8984 10.395 5.5234 15.27-9.0977 6.1719-17.219 3.25-22.418-1.625-10.074-9.4219-15.27-22.418-19.82-35.09 20.469-11.371 20.469-11.371 22.418-29.566 6.1758-5.5234 12.023-10.723 18.195-15.922 9.75-8.4492 15.598-19.168 18.195-31.84 2.9258-19.172-11.695-36.715-33.465-36.066zm-378.52-739.17c-20.473 19.492-32.816 42.238-31.516 71.477 0.64844 17.871 0 35.418 0 54.262-8.4492 3.8984-15.922 7.1484-24.695 10.723-4.875-18.52-12.996-32.816-22.742-46.461-2.6016-3.9023-3.8984-8.7734-5.1992-13.324-0.65234-1.9492-0.32422-4.2227-0.32422-6.4961 0-37.363-0.32812-38.016 32.164-58.16 15.922-9.7461 33.465-17.219 50.688-25.344 2.5977-1.2969 5.8477-0.64844 9.0977-0.97266 0.64844 0.97266 1.3008 2.2734 1.9492 3.25-2.9258 4.2227-6.1719 7.7969-9.4219 11.047zm-44.84 154.98c-3.8984-8.7734-0.64844-12.996 8.7734-16.895 2.9258 10.398 1.3008 15.594-8.7734 16.895zm-14.621-5.8477c-6.1719 6.8203-12.344 4.5469-19.168 3.5742-1.9492-6.1758-3.5742-10.723-5.8477-18.195-2.6016 7.4727-4.2266 12.672-6.8242 19.496-3.5742 0.32422-7.7969 0.97266-13.32 1.2969 3.8984-20.469 7.7969-38.34 20.793-53.934 15.922 12.672 10.398 35.09 24.367 47.762zm-135.81-174.8c-0.32812-3.25-0.97656-6.8242-1.625-11.047 3.2461-0.97656 5.5234-2.2773 8.1211-2.2773 16.895 0 33.465 0.65234 50.359 0.97656 41.266 0.32422 82.203 0 123.47 0.32422 10.395 0 20.469 0.32422 30.863 0.97656 3.25 0.32422 6.1758 2.5977 9.4219 3.8984v4.8711c-19.168 7.8008-38.988 14.621-57.508 24.043-18.844 9.4258-36.062 21.77-54.91 33.145-17.219-10.074-34.113-21.121-52.309-30.543-17.871-9.0977-36.715-16.246-55.883-24.367zm18.191 19.492c18.52-1.625 64.008 22.418 85.777 42.562 3.8984 39.965 4.2227 52.312-19.172 101.05h-23.391c-2.2734 6.5-4.5508 12.996-6.8242 19.82-8.1211-2.9219-6.8242-9.4219-6.8242-14.297-0.32422-22.094-0.32422-44.512-0.64844-66.605 0-9.0977-0.32422-18.52-1.3008-27.617-2.2734-20.469-8.7695-38.988-27.617-54.91zm-278.77-32.816c24.695-12.668 51.336-16.242 78.629-14.621 35.742 1.9531 69.531 10.723 100.07 29.566 8.1211 5.1992 15.922 11.051 23.395 17.223 4.5469 3.5742 8.1211 8.4453 4.2227 17.219-4.875-3.8984-8.7734-7.1484-12.672-10.395-7.1484-6.8242-14.621-12.348-24.367-15.273-6.1758-1.625-11.699-5.5234-16.895-9.4219-10.723-8.1211-22.094-12.996-36.066-12.348-6.5 0.32813-12.996-0.64844-19.172-2.2734-30.539-7.7969-60.105-4.875-89.023 7.1484-4.2266 1.625-8.7734 2.5977-13.32 3.5742-2.9258-6.8242 1.625-8.4492 5.1953-10.398zm70.832 5.5234c-3.8984 2.6016-5.5234 4.2266-7.1484 4.875-17.867 3.5742-35.414 7.1484-53.285 10.723-0.64844 0-1.625-1.3008-2.2734-1.9492 8.7734-12.672 37.688-19.496 62.707-13.648zm-113.07 25.344c5.8477 8.4492-0.32812 13.973-2.6016 19.82-0.97266 2.5977-4.5469 4.2227-6.8242 6.5-0.97266-0.97656-2.2734-1.9531-3.2461-3.25 1.6211-8.7734 3.2461-17.223 12.672-23.07zm-52.637 154.01c-1.3008 10.07-2.9258 20.145-4.875 33.141-2.9219-4.2227-4.8711-6.1719-4.8711-8.1211-0.65234-11.699-1.9492-23.719-1.3008-35.414 0.64844-7.8008 3.8984-15.598 6.8242-23.07 4.2227-10.723 12.02-20.469 10.07-33.465-0.64844-3.8984 2.9219-9.4219 6.1719-12.672 14.297-15.922 26.32-34.117 45.812-45.164 3.5781-1.9492 6.1758-6.1719 9.75-8.4453 3.25-2.2773 7.1445-3.25 12.348-5.8516 2.2734 11.699-4.5508 14.945-8.7734 19.172-12.672 13.32-26.969 25.016-38.016 39.641-18.195 23.715-28.918 50.684-33.141 80.25zm91.301-116.97c9.4219 12.996 15.594 27.293 12.344 44.188-1.625 8.125-6.1719 15.598-14.945 17.223-8.4453 1.9492-16.246-1.9492-21.117-8.7734-4.875-6.4961-8.4492-13.645-12.672-20.793 7.7969-15.922 18.52-25.344 36.391-31.844zm32.488 51.012c-3.8984 19.172-17.219 30.543-36.062 31.191-15.598 0.64844-39.316-15.594-44.516-30.543-0.64844-1.6211 0.32813-3.8984 0.97656-7.7969 3.5742 2.6016 6.1719 3.8984 8.4492 5.8477 5.5234 4.875 10.719 10.398 16.57 15.273 8.7695 7.4727 18.844 10.723 29.891 4.5469 11.695-6.1719 17.871-16.895 16.57-29.566-1.3008-13.32-4.5508-26.641-9.75-38.988-6.8203-16.246-18.844-28.918-32.164-39.965-14.945-12.348-31.84-18.52-51.012-14.293-7.4727 1.6211-14.293 6.4961-21.441 10.07-2.6016 1.3008-4.875 3.5742-9.0977 6.1719-0.32812-13.969 7.7969-20.145 16.895-22.742 9.7461-2.9258 20.145-4.875 30.215-3.8984 38.016 4.2227 63.035 25.992 77.656 60.434 7.4727 17.867 10.719 35.738 6.8203 54.258zm84.477-89.352c-15.918-2.2734-32.164-0.97266-48.41-0.64844-15.922 0.32422-30.867 9.4219-46.461 7.1484-3.25-8.1211 0.32422-11.371 5.5234-12.348 14.293-2.5977 28.59-4.8711 42.887-6.1719 17.547-1.625 35.414-0.97656 52.961-3.25 10.07-1.2969 18.844 0.32812 25.668 6.5 10.395 9.0977 22.742 14.293 35.09 19.168 11.047 4.2266 18.52 12.023 20.793 25.02-13.969-7.1484-27.617-15.598-42.238-21.445s-30.215-11.371-45.812-13.973zm29.242 286.25c-2.9258 8.4492-6.8242 16.898-10.395 25.344-18.195 9.7461-36.066 20.145-59.461 20.145 0-11.047 3.5742-16.246 12.996-17.543 6.8242-0.97656 13.324-2.9258 21.445-4.875-2.6016-9.75-4.5508-18.195-7.1484-28.27 10.723-1.9453 19.82-2.2734 28.266-5.1953 8.4492-2.9258 15.922-8.125 24.371-12.996 5.8477 12.668-7.1484 15.594-10.074 23.391zm4.875 36.391c-11.047 25.02-73.105 43.863-90.977 28.594 2.9258-5.8516 8.4492-3.8984 12.672-3.5742 18.195 0.32422 34.441-6.1758 50.363-14.621 6.4961-3.5742 13.32-7.1484 20.141-10.074 2.2773-0.97266 4.875-0.32422 7.8008-0.32422zm-38.016-92.598c-2.9219 12.02-8.1211 18.195-17.219 21.77-2.6016-10.723-0.65234-13.324 17.219-21.77zm4.5508-46.461c14.621-1.9531 18.844 1.9453 23.066 15.594 4.2227 14.297 6.8242 29.242 16.57 41.262 0.97656 0.97656 0.32422 2.9258 0.64844 5.5234-17.219 10.074-30.215 31.844-58.156 19.172 3.5742-5.8477 6.4961-11.047 9.4219-16.57 4.875-8.4492 10.07-16.57 13.648-25.344 1.9453-4.875 0.32422-11.047 0.32422-16.57-9.4219-1.3008-11.699 4.5469-14.621 9.4219-10.074 17.547-17.223 21.77-38.34 21.445-7.4727-10.074-0.32422-20.469 0.64844-30.543 0.97656-10.07 1.625-19.82 2.5977-30.867 4.2266 0.97656 7.8008 0.65234 10.074 2.2773 10.723 6.1719 22.094 6.8203 34.117 5.1992zm-23.395-15.598c-14.621 1.9492-43.539-2.6016-50.035-7.1484 12.344-8.1211 30.215-5.8477 50.035 7.1484zm-124.77 40.613c-2.5977-9.0977-1.625-17.219 5.8477-25.016 3.25-3.5781 2.6016-11.051 4.2266-18.199 13.645-2.5977 26.316 5.5234 40.613 3.9023 12.344-1.625 25.992 5.1992 38.34 8.1211 6.8203 16.57 1.6211 43.215-10.074 54.586-9.0977 0.64844-15.27-4.2227-19.82-11.371-3.25-5.5234-5.5234-11.699-8.4453-17.547-2.6016-4.875-5.5273-9.7461-9.0977-16.246-3.25 3.8984-6.1758 5.5234-6.5 7.4727-1.3008 11.699-3.5742 23.719-2.5977 35.09 0.97266 11.375-2.9258 19.82-9.0977 28.27-13.973 0.64844-22.422-7.8008-29.566-17.223-9.4219-11.695-0.003906-21.441 6.1719-31.84zm45.488 23.395c-6.1758-5.1992-7.1484-10.074-0.97656-16.246 4.2266 5.5234 9.4219 10.07 0.97656 16.246zm-42.238 82.527c-5.5234-8.4492-10.074-17.547-20.469-22.094-2.6016-0.97656-4.5508-6.5-4.5508-9.75 0.65234-10.395 2.5977-20.793 4.2227-32.488 13.648 8.4453 26.645 16.246 41.266 25.016-6.1719 6.8242-11.695 12.672-18.52 20.145 6.4961 3.25 11.371 5.5234 16.895 8.4492 5.8477 9.7461 1.625 17.543-4.5469 27.293-5.5234-6.5-10.723-11.047-14.297-16.57zm51.012 51.336c-22.094 25.668-47.762 48.41-63.684 79.277-5.1992 9.7461-9.4219 20.145-13.973 30.539-1.3008-0.32422-2.5977-0.64844-3.8984-0.64844 0-3.5742-0.64844-7.1484 0-10.395 4.2227-17.871 11.047-35.094 22.742-49.711 18.523-23.07 38.016-45.812 55.887-69.535 10.07-13.32 17.547-28.266 26.316-42.562 2.9258-4.8711 5.8516-10.07 9.4219-14.945 7.4766-9.7461 7.8008-16.895 0.32812-22.418-7.4766-5.5234-16.246-2.9258-22.746 7.1484-0.64844 0.97656-0.64844 1.9492-0.64844 3.25 0 0.97266 0 2.2734 0.32422 3.25 8.1211 11.043 7.1484 22.418 0 33.141-11.695 17.543-23.719 34.762-36.066 51.66-15.27 20.793-32.164 40.938-46.137 62.383-8.4453 12.996-13.32 28.266-18.844 42.887-5.1992 12.996-8.7734 26.641-13.32 39.965-0.97656 3.2461-3.5742 5.8477-8.4492 8.4453-0.32422-3.2461-1.2969-6.4961-1.2969-9.7461 4.5469-50.359 26.965-92.922 57.184-131.91 8.1211-10.07 15.594-20.793 23.715-30.863 13.324-16.898 18.523-36.391 16.574-57.836-0.65234-5.8477-0.97656-12.023-0.97656-17.871 0-19.168 12.023-28.918 30.867-25.016 10.07 1.9492 20.145 4.2227 30.215 6.1719 14.945 2.9258 21.445 11.047 19.82 26.316-1.3008 14.945-7.7969 28.27-17.219 39.641-15.273 16.246-31.516 32.164-46.137 49.387zm19.168 5.8477c0.64844-6.1758 5.5234-5.5234 9.7461-5.8477 9.75-0.32812 19.496 0 28.918-0.97656 26.641-2.2734 49.387-13.973 71.48-28.266 7.7969-4.875 14.621-12.672 26.969-13.32-12.348 35.738-103.32 65.957-137.11 48.41zm-74.402 341.48c18.844-74.73 54.582-140.69 104.62-199.17 22.094-25.992 46.137-50.359 67.582-76.676 19.172-23.395 38.664-46.465 52.312-73.754 1.3008-2.6016 3.5742-4.5508 5.5234-6.8242 1.2969 0.64844 2.5977 1.2969 3.5742 1.9492-1.3008 3.8984-1.9492 8.1211-3.5742 11.695-13.973 28.918-32.816 54.586-52.637 79.602-28.918 37.043-58.484 73.434-85.777 111.77-18.52 26.32-37.039 53.609-46.785 84.801-4.875 15.273-9.7461 31.195-12.348 47.113-2.2734 13.973-8.7734 22.746-20.469 28.918-4.2227 2.2734-8.1211 4.875-15.598 9.0977 1.9531-8.7734 2.6016-13.648 3.5781-18.52zm40.609 42.238c-0.32031-5.8516-2.5977-11.699-3.8984-17.871 1.3008-0.97656 2.6016-1.9492 4.2266-3.25 11.695 5.5234 23.719 11.047 35.414 16.57-3.25 9.4219-3.25 9.4258-20.469 7.8008-3.25 6.4961-1.3008 18.52-16.57 16.246 0.32422-6.5 1.625-13 1.2969-19.496zm188.77-356.75c-20.145 30.215-40.938 59.781-60.434 90-34.438 52.957-63.355 108.19-70.18 172.52-1.2969 12.348-6.4961 20.145-19.168 22.422-5.1992 0.97266-10.074 3.8984-14.945 6.1719-4.875 2.2734-9.75 4.5508-17.871 8.125 0.64844-7.4766 0.64844-11.699 1.625-15.598 11.371-51.336 34.113-97.797 65.305-140.04 29.895-40.289 60.762-79.93 90.977-119.89 5.8477-7.7969 10.398-16.242 15.922-24.367 3.2461-4.8711 6.8203-9.4219 11.695-15.594 2.9258 7.7969-0.32422 12.02-2.9258 16.246zm-219.96 340.18c2.5977-2.6016 3.2461-1.9492 12.996 1.625-9.75 10.719-21.121 16.895-33.469 22.418-0.64844-15.27 12.676-17.223 20.473-24.043zm0.32422 21.445c4.2227-4.5508 9.7461-8.4492 18.844-2.9258-9.7461 17.547-26.969 26.316-40.613 38.988-2.2734-18.195 11.695-25.992 21.77-36.062zm-37.367 82.523c0.97656-7.7969 1.9531-15.918 2.9258-23.715 13.645-5.1992 17.219-2.9258 24.367 13.969-7.7969 15.27-10.723 16.57-27.293 9.7461zm50.688 37.039c-6.5-3.5703-11.047-6.8203-16.246-8.7695-4.875-1.9492-10.398-2.2734-16.57-3.5742 5.1992-15.27 9.4219-17.223 28.594-12.348 3.8984 6.5 6.4961 13.648 4.2227 24.691zm4.2227-52.309c-7.4727-2.2734-13.969-4.2227-22.094-6.5 0.65234-7.1445 1.3008-13.645 1.9492-20.465 11.375 1.2969 20.469 2.2734 32.816 3.5703-5.1992 9.0977-8.7695 15.598-12.672 23.395zm28.27 16.895c-1.625 5.5234-0.65234 11.371-0.97656 17.871-10.07 3.25-16.895-1.9492-22.418-9.0977-4.2227-5.5234-2.2734-16.895 3.5742-22.742 7.1484-7.1484 15.27-9.4258 24.367-4.5508 4.2266 8.4492-2.9219 12.672-4.5469 18.52zm48.086 10.723c-1.625 3.8984-0.32422 9.4219-0.32422 14.297 0 7.7969 1.2969 15.918-6.1758 24.043-0.97266-4.875-2.5977-8.125-1.9492-10.723 3.5742-17.219-3.5742-31.516-10.719-45.812-5.1992-10.723-12.023-20.469-17.223-31.191-2.5977-5.5234-4.875-12.02-5.1992-18.52-0.32422-13.969 6.5-18.844 22.742-16.57 0.97656 2.9258 1.9531 6.5 2.9258 10.398-4.8711 2.9219-9.4219 5.5234-15.594 9.0977 3.8984 5.8477 7.1484 11.047 10.723 16.246 5.1953 6.8203 10.395 13.645 16.242 20.141 7.4727 8.7734 9.4258 17.871 4.5508 28.594zm-2.9258-121.84c8.125-3.8984 12.023-0.32422 14.949 5.5234 3.2461 6.4961 5.8477 13.645 0.97266 19.82-6.1719 8.4453-14.945 6.1719-23.719 4.2227-4.5469-12.672 9.0977-19.172 7.7969-29.566zm26.645 40.938c8.1211 8.4492 5.1992 17.547 0.97266 30.219-9.7461-5.8516-17.219-10.398-25.016-14.949-1.9492-6.4961-2.6016-12.672 4.5469-16.895 5.8477-3.25 15.598-2.5977 19.496 1.625zm-23.395 32.168c9.7461 9.4219 16.246 18.195 25.344 23.719 8.7734 5.1953 19.496 7.1445 29.566 10.07-4.5469 7.1484-13.32 8.4492-28.918 3.5742-16.246-4.875-26.965-18.52-25.992-37.363zm140.69-67.906c-3.25-6.1758-6.5-11.375-9.0977-16.898-4.5508-9.7461-9.0977-19.492-12.672-29.566-6.8242-18.844-0.65234-36.391 6.8242-53.285 1.9492-4.5469 7.7969-7.4727 12.02-11.047 0.97656 0.65234 1.9492 1.3008 2.9258 2.2734-0.97656 2.6016-1.3008 5.8516-2.9258 7.8008-14.297 17.219-14.945 36.062-9.0977 56.535 4.5508 15.918 14.945 28.59 23.719 42.234 17.547 26.969 26.645 55.887 19.496 89.027-4.5508 21.117-17.223 36.066-34.441 47.113-18.195 11.695-38.664 16.246-60.434 13.32-19.496-2.5977-38.016-7.7969-54.91-18.195-4.875-3.25-8.4492-6.8242-6.1719-14.297 8.4453-2.9219 12.996 2.9258 18.195 6.1719 17.871 11.375 36.715 17.871 58.156 16.898 45.812-1.9492 89.676-53.938 67.906-103.32-4.5469-10.074-10.07-18.848-21.117-23.395-18.844-7.1484-29.566-4.5508-45.812 12.02-6.5-18.844 10.395-27.289 47.438-23.391zm-65.957 47.109c6.1719-4.5469 10.07-1.625 15.27 2.6016 12.348 9.7461 25.02 8.4453 33.789-3.25 0.65234-0.97656 0.65234-4.875 0.97656-4.875h-16.57c-7.4727-16.246-4.2227-22.094 9.4219-23.719 13.973-1.6211 25.992 4.5508 31.191 17.547 10.074 25.344 7.7969 49.387-9.7461 70.832-15.922 19.492-58.16 27.289-80.902 15.27-1.3008-0.65234-1.625-2.6016-2.6016-4.875 9.4219-9.4219 23.07-16.246 25.668-30.867-3.8984-7.4727-8.7734-5.8477-13.969-2.9219-3.5742 2.2734-6.8242 5.5234-10.723 7.1484-9.4219 4.5469-17.547 1.2969-25.992-9.75 0.64844-1.625 1.3008-3.8984 1.9492-5.5234 1.2969-2.5977 2.5977-4.8711 2.9219-5.5234 28.918 4.875 32.816-0.32422 39.316-22.094zm8.7734-96.82c2.5977 15.918 0 20.469-12.996 24.367-1.9531-12.672 8.4453-14.621 12.996-24.367zm-16.246 77c-2.2773 4.5508-4.5508 9.1016-6.5 13.648-1.625 4.2227-2.5977 9.0977-4.2227 14.621-10.723 0-15.922-4.5508-17.223-12.996-1.2969-7.4727 0.32812-13.973 7.1484-18.195 6.5-4.5508 13.648-5.1992 20.797 2.9219zm-10.398-22.418c-3.25 4.5508-8.7734 7.7969-13.973 10.398-1.9492 0.97656-6.4961-0.64844-8.7695-2.2734-3.5742-3.25-7.1484-7.1484-8.4492-11.375-1.3008-4.5469-1.625-11.043 0.32422-14.945 2.9258-5.5234 9.0977-3.8984 14.297-1.9492 5.5234 1.9492 11.371 3.25 20.145 5.5234-0.97656 5.1992-0.97656 10.723-3.5742 14.621zm-0.32422-39.312c-10.723 1.9492-21.77 3.5742-32.168 6.4961-10.723 3.25-21.117 8.4492-31.516 12.023-10.07 3.5742-18.844 12.348-30.543 11.371-3.2461-6.4961-2.2734-11.047 2.9258-13.645 24.043-12.023 47.438-25.668 75.703-25.668 7.8008 0.32422 7.8008 0.32422 15.598 9.4219zm-7.1484-21.445c-10.723 8.125-24.043 3.8984-35.09 8.4492-12.023 4.8711-24.367 8.7695-36.391 13.32-11.047 4.2227-20.145 13.973-33.789 14.621 4.2227-13.32 19.168-22.418 55.883-34.766 27.617-9.0977 38.34-9.7461 49.387-1.625zm77.004-261.88c-13.648 24.691-27.293 49.059-41.59 73.102-22.418 38.016-37.363 78.953-47.109 121.84-3.5742 15.594-5.5273 31.84-8.4492 49.387-5.8477 0.97266-12.348 2.2734-20.793 3.8984 0-8.4492-0.97656-15.273 0-22.094 6.1719-35.742 15.594-70.832 32.164-103.32 12.023-23.395 26.645-45.488 40.613-67.91 13.973-22.418 28.27-44.512 42.562-66.93 1.9531-2.9258 4.2266-5.5234 7.8008-10.07 1.9492 10.395-2.2773 16.246-5.1992 22.094zm-0.97656-118.27c-8.4453 8.4492-18.844 11.371-32.164 6.8242 1.9492-3.25 2.9258-6.5 5.1992-8.125 21.77-15.918 34.766-38.336 46.137-61.73 3.2461-6.1719 6.8242-12.348 10.07-18.52 4.5508-8.4492 11.375-10.723 23.07-5.8477 1.9492 29.242-10.723 53.285-24.043 76.676-2.9258 0.97656-5.1992 2.2773-7.1484 1.9492-8.7734-0.97266-14.945 2.6016-21.121 8.7734zm76.031-27.293c-4.5508 25.344-12.023 50.363-17.871 75.703-8.7734 38.344-13.32 76.68-8.7734 116 1.625 12.668 4.875 25.344 7.4727 38.016 0.65234 2.9219 0.97656 5.8477 1.625 9.4219-27.293-7.8008-37.363-40.941-30.215-96.176-10.074-14.297-10.074-14.297-0.65234-50.035-12.996-12.023-8.1211-25.344-1.6211-39.312 9.4219-19.496 18.844-38.992 26.641-59.137 4.5469-12.02 6.1719-25.016 9.0977-37.688 1.3008-5.8477 3.25-12.023 4.875-17.871 10.395 0.32422 11.695 6.8242 11.695 12.348-0.32422 16.57 0.64844 32.816-2.2734 48.734zm2.5977-81.875c-14.945 1.9492-29.566 3.8984-44.512 5.8477-2.9258-6.5 0.97656-9.4219 4.875-10.398 13.32-4.2227 26.641-8.1211 39.312 0.32812 0.32422 1.2969 0.32422 2.5977 0.32422 4.2227zm0-14.621c-13.32 5.8477-25.992 0.32422-38.012 3.25 7.7969-13.324 24.043-14.297 38.012-3.25zm-22.094-22.418c0.32422-1.625 4.2266-3.9023 5.8477-3.5742 5.1992 1.625 5.8477 5.5234 2.2773 10.07-5.1992 0.97656-8.7734-0.64844-8.125-6.4961zm24.043-1.625c-5.8477-4.2266-11.695-11.371-17.543-11.371-6.1758 0-12.672 6.1719-19.496 10.395-5.5234-1.3008-6.1719-7.1484-7.7969-12.02-1.9492-7.1484-3.8984-14.621-5.5234-22.098-3.25-15.594-10.723-29.238-20.469-41.586-9.0977-11.371-20.145-18.52-34.766-22.418-22.422-6.1758-42.566-3.8984-61.41 10.07-0.97266 0.97656-2.9219 0.65234-5.1992 1.3008-0.97266-2.5977-1.9453-3.8984-1.625-4.5508 9.75-17.867 29.57-27.613 49.715-25.016 10.395 1.3008 21.117 1.3008 31.516 1.9492 0.32422-1.3008 0.97266-2.2734 1.3008-3.5742 6.1719 4.875 12.02 10.398 18.52 14.945 5.8477 4.5469 12.344 8.125 20.793 13.973 5.8477 11.695 16.895 24.043 17.871 41.262 0.32422 4.2227 5.8477 7.7969 8.7695 11.699 12.023-7.8008 13.324-11.699 8.125-19.82-1.9492-3.25-4.5508-5.8477-7.4727-8.4492-12.348-10.723-16.246-24.691-17.223-39.965-0.32422-4.5469-1.625-9.4219-3.8984-13.32-5.5234-8.7734-10.395-17.543-9.0977-28.59 0.32813-3.8984-1.9492-8.125-3.25-12.348-3.5703-12.023-2.5977-23.719 4.5508-35.418 0.64844 2.2773 1.9492 4.5508 1.9492 6.5-1.3008 22.418 7.1484 42.562 16.246 62.059 8.7734 19.168 18.52 38.016 27.293 56.859 7.7969 16.246 10.723 34.117 12.02 51.984 1.3008 6.1758 2.6016 13.32-3.8984 17.547zm8.7734 18.195c-4.5469-5.8516-4.5469-9.4219 2.2734-13.648 5.5234 6.5 3.5742 9.75-2.2734 13.648zm3.8984 689.78c17.547-13.645 24.695-33.141 25.992-53.934 2.2734-39.316 4.2266-78.953 2.9258-118.27-2.6016-68.23-1.625-136.14-2.9258-204.37-0.97266-64.332-2.2734-128.66-3.5742-193-0.64844-23.719-1.2969-47.438-1.9492-71.48 0-2.9219 0.97656-5.8477 1.625-8.7734 1.3008 0 2.2734-0.32422 3.5742-0.32422 1.625 4.875 3.25 9.4219 5.1992 15.273 6.8242-0.65234 12.996-0.97656 20.145-1.625 2.9219 6.8203 5.8477 13.645 9.0977 20.469 2.9219 6.8242 5.1992 14.293 9.4219 20.145 12.672 18.52 8.7734 39.312 8.7734 59.781 0.64844 54.262 0.97266 108.2 0.97266 162.46 0.32422 63.355 0 126.71 0.32422 190.07 0.32812 39.965 0.65234 79.93 1.9531 120.22 0.32422 10.723-2.6016 18.844-10.723 25.344-20.797 17.219-42.891 32.812-66.609 46.137-2.2734 1.2969-5.5234 0.97266-11.371 1.9492 3.5742-5.5234 4.875-8.4492 7.1484-10.074zm42.891-657.62c0.32422 9.75 0.32422 9.75-9.75 14.297-1.2969-9.4219-0.32422-15.27 9.75-14.297zm51.332 43.215c-3.2461 3.8984-3.5742 10.07-5.8477 16.246-2.9219 0.64844-7.4727 1.2969-10.719 1.9492v-18.52c-9.75-6.5-14.297-14.949-8.7734-27.945-2.6016-1.9492-5.5234-3.5742-7.8008-5.8477-3.25-3.5742-3.8984-8.7734 0.65234-11.047 3.2461-1.625 8.7734-1.625 11.695 0 3.8984 2.2734 6.1719 7.1484 9.75 11.699 3.8984-10.398 9.4219-17.547 21.441-11.375 1.9492 9.0977 1.9492 9.0977-6.1719 18.195 4.875 9.4219 2.5977 18.195-4.2266 26.645zm100.4 630.32v9.4219c0 0.64844-3.8984 1.9492-5.8477 1.9492-13.973 0.32422-27.941 0.32422-41.914 0.64844-48.086 0.65234-96.172 0.97656-144.26 1.625-5.5234 0-12.023 2.6016-18.523-5.8477 18.523-10.398 36.066-19.168 52.637-29.566 16.895-10.723 32.168-23.07 49.711-35.742 33.465 23.395 69.207 44.188 108.2 57.512zm-12.02-18.52c1.2969 1.2969 1.6211 3.5742 3.2461 7.1484-4.5469-0.65234-8.1211 0-10.395-1.3008-25.668-14.945-51.012-30.543-76.355-45.812-6.5-3.8984-6.8242-10.398-6.8242-16.895-0.32422-40.613-0.64844-81.227-1.2969-121.84-0.32812-36.387-0.97656-72.453-1.3008-108.84-0.97266-64.332-1.625-128.66-2.5977-193-0.32812-27.617-0.65234-55.234-0.97656-82.852 0-7.1484 1.9492-12.996 5.8477-19.496 9.75-16.57 17.547-34.113 27.617-53.934 5.8477 3.5742 12.348 7.1484 18.848 11.047 0.64844 22.742 1.6211 44.84 1.6211 66.93 0.65234 125.09 0.32812 249.86 2.2734 374.95 0.65234 38.34-0.32422 76.676 7.4766 114.69 5.1953 25.992 14.293 49.387 32.816 69.207zm-60.758-655.02h17.543v15.598c-16.246-3.9023-15.922-2.6016-17.543-15.598zm29.566-9.7461c-48.738 1.2969-97.148 2.2734-146.54 3.5742 0.64844-9.4219 6.4961-10.398 11.371-11.047 43.539-4.2227 87.398-5.1992 130.94 0.32422 1.625 0.32422 3.25 1.9492 4.875 3.25 0 1.2969-0.32422 2.5977-0.64844 3.8984zm-0.97656-13.648c-45.164-0.97266-90-1.625-134.84 3.8984-2.2734 0.32812-4.5508-1.6211-9.1016-3.2461 3.5781-2.9258 5.5273-5.8477 8.125-6.5 29.242-7.7969 119.24-6.8203 138.09 1.9492-1.2969 2.2734-1.625 3.8984-2.2734 3.8984zm372.02 595.56c-18.191-7.4766-29.238-24.371-45.484-33.793-1.625-0.97266-1.625-4.5469-2.2734-6.4961 6.1719-4.875 9.7461-0.65234 13.32 1.9492 13.32 10.398 28.266 20.145 34.438 38.34zm-55.23-23.719c21.766 2.2734 45.16 22.418 48.734 39.312-5.8477 5.1992-11.695 2.2773-15.594-1.9492-10.723-11.371-26.969-18.52-33.141-37.363zm7.1445 20.793c-0.64844 10.074-0.64844 10.074-22.094 20.469-5.1953 4.5508 1.9492 16.895-11.371 16.57-4.5469-8.1211 1.3008-14.945 2.9258-23.066 10.07-4.5508 19.816-9.0977 30.539-13.973zm-136.46-319.06c37.691 42.566 74.406 85.453 104.62 133.86 25.668 41.266 46.785 84.152 56.211 131.91 0.64844 2.6016 0.97266 5.1992 1.625 8.7734-15.922 1.9492-21.77-13.648-33.793-15.598-1.625-7.1484-3.2461-12.672-4.2227-18.52-7.7969-44.512-26.969-84.152-51.984-121.19-24.047-35.414-52.637-66.93-79.93-99.746-28.59-34.441-57.184-69.207-75.055-111.12-1.625-3.9023-2.9258-8.125-4.2227-12.023-0.32422-0.65234 0.64844-1.9492 2.5977-6.1758 3.5742 3.25 6.8242 4.875 8.125 7.4766 17.543 39.961 47.762 70.504 76.027 102.34zm-35.742-106.57c-28.59-15.27-45.812-29.891-50.359-42.562 7.1484-2.9219 10.723 3.25 15.273 6.1758 14.945 9.4219 29.566 19.816 45.16 28.59 23.395 12.996 49.062 19.496 76.027 19.168 6.1758 0 13-1.6211 17.547 7.8008-38.34 9.0977-71.48-2.2773-103.65-19.172zm204.05 42.891c19.492 26.965 32.816 56.859 39.312 90 0.32422 1.9492 0.32422 4.2227 0.32422 6.4961 0 0.65234-1.2969 1.625-2.9219 3.5742-1.3008-2.5977-3.25-4.2227-3.5742-6.4961-10.398-40.941-32.816-75.055-62.059-104.62-20.469-20.797-40.613-41.914-54.91-67.906-3.5742-6.5-7.4727-13.32-9.4219-20.469-1.3008-5.1992-0.97656-11.699 0.64844-16.898 3.5742-10.719 3.25-15.594-3.8984-19.168-6.8203-3.25-12.02-0.32422-18.195 11.371 10.398 19.82 19.496 39.312 30.219 57.832 15.922 27.293 40.613 47.438 61.082 71.156 15.27 17.871 28.594 36.715 35.414 59.461 1.9492 6.4961 3.8984 12.996 0.97656 21.117-2.2734-1.9492-4.2266-2.5977-4.5508-3.8984-6.4961-25.668-23.719-44.836-41.586-62.707-18.848-19.172-39.316-37.039-59.137-55.234-18.844-17.219-35.414-36.391-44.512-60.758-4.2227-11.371-6.8242-24.043-7.4727-36.066-0.64844-15.922 5.1992-21.77 20.469-26.641 4.5508-1.3008 9.4258-2.2773 13.973-3.8984 12.672-4.875 24.367-3.9023 35.09 4.5469 11.047 8.4492 16.246 19.82 18.195 33.141 0.64844 4.875 0.97266 9.7461 0.32422 14.621-2.9258 23.07 5.8477 42.562 18.52 60.434 12.672 17.219 25.344 34.117 37.691 51.012zm-153.03-78.305c14.293-1.3008 19.168 3.25 19.816 20.469-17.871-6.8242-37.688-7.1484-53.285-21.441-0.32422-4.5508-0.64844-9.75-1.3008-14.297-3.5703-5.8477-6.4961-10.723-10.07-16.57 12.996-3.25 24.367-2.2734 41.59 3.25-4.875 8.4453-9.75 16.242-14.949 24.367 5.5273 6.4961 12.023 4.8711 18.199 4.2227zm-9.1016-89.676c9.0977-4.2227 13.648-2.2734 16.57 6.1719-9.4219 5.5234-12.992 1.3008-16.57-6.1719zm96.824 3.25c0-9.0977 0-9.0977 6.5-12.348 2.9219 6.1758 0.64844 9.0977-6.5 12.348zm53.938 60.109c-1.3008 1.2969-2.6016 3.8984-2.6016 5.8477-0.32422 16.895-12.348 19.496-25.668 21.77-8.7734-17.547 12.348-17.547 14.297-30.543-4.2266-3.8984-9.4219-8.7734-15.598-14.621 8.7734-9.0977 21.121-10.07 30.543-18.195 6.5 13.973 11.371 25.344-0.97266 35.742zm-74.406-124.77c2.9258 1.9492 6.4961 3.5742 10.074 5.5234 4.5469-3.25 9.0938-6.1758 14.293-10.074 4.5508 1.9492 9.4219 4.2266 14.297 6.5 5.1992-0.64844 10.398-1.3008 16.895-2.2734 1.9492 9.4219 3.8984 18.191 6.5 29.566 2.2734 1.2969 5.8477 3.5742 9.4219 6.1719 0.32422 5.5234 0.97266 11.047 1.625 18.52 2.2734 1.3008 6.1719 3.5742 7.4727 4.5508 2.9219 12.996-14.945 28.914-36.391 34.762-8.7734-7.7969-11.371-16.895-6.8242-28.59 3.9023-9.7461 7.8008-19.82 6.5-30.867-10.723-0.32422-17.871 5.1992-24.695 10.074-11.047 8.1211-22.418 10.07-36.062 3.25-2.6016-8.7734-5.8477-18.523-8.4492-28.27-1.625-7.1484-1.625-14.297 5.5234-18.844 6.5-3.5742 13.32-4.5508 19.82 0zm-13.32-13.648c-12.348 9.0977-25.668 13.973-42.562 13.324 7.1484-10.398 16.895-13.324 42.562-13.324zm-89.676 60.434c0.64844-8.1211-7.1484-16.246 0-22.094 10.723-1.9492 19.82-3.8984 25.344-4.8711 10.395-2.2773 17.543-3.5742 24.367-5.8516 8.4492-2.5977 13.32-1.2969 15.594 6.1758 3.25 10.723 4.875 21.77 7.1484 32.492-20.145 11.695-35.738-6.5-52.309-1.625-4.875 9.4219-0.32422 16.895 4.5469 21.77 10.398 10.395 9.75 21.766 6.8242 36.062-9.4219-0.97656-18.52-0.97656-26.969-2.9258-10.07-2.2734-16.57-12.992-15.918-23.391 0.32422-3.5742 1.9492-7.8008 0.64844-11.047-4.5508-12.348-0.32422-20.145 10.723-24.695zm-14.945 98.773c24.367 27.293 54.91 33.789 86.75 37.039 1.9492 7.1484-2.2734 8.4492-6.8242 7.7969-13.32-1.9492-27.293-2.2734-39.637-7.1484-17.547-6.4961-34.117-15.918-50.688-24.691-2.2734-0.97656-3.5742-3.5742-5.5234-5.8477 3.8984-7.7969 10.723-6.8242 15.922-7.1484zm100.72-303.46c-40.289-6.5-78.629-0.64844-113.72 21.441-9.0977 5.8516-17.871 12.348-31.52 6.1758 5.1992-15.273 15.273-25.344 29.895-28.594 14.945-3.25 28.918-7.4727 42.238-15.594 5.5234-3.5742 13.645-5.1992 20.145-4.5508 30.215 2.6016 60.434 6.5 91.625 10.074 0.32422 3.25 0.64844 6.1719 0.97266 9.0977-17.219 6.1719-17.219 5.5234-39.637 1.9492zm123.46 59.457c8.4453 7.7969 15.922 15.273 13.32 29.242-0.97266 5.1992 3.8984 12.023 7.1484 17.547 10.723 17.867 14.297 37.039 11.695 57.508-0.64844 4.2227-1.9492 8.1211-5.8477 12.348-3.8984-14.297-6.4961-29.242-11.695-43.215-5.1992-14.621-11.699-28.918-19.82-42.238-7.7969-13.32-17.219-25.992-27.617-37.363-10.398-11.371-23.07-20.469-34.766-30.543 0.97656-7.7969 3.25-12.996 12.996-12.996 2.9258 12.672 13.973 17.219 23.395 24.367 11.047 7.4727 21.117 16.246 31.191 25.344zm-38.016-0.97266c-3.25 9.7461-5.8477 19.492-9.4219 29.242-2.2734 6.4961-7.4727 11.047-14.945 10.07-8.1211-0.97656-16.895-2.2734-19.82-11.371-6.1719-18.52-9.0977-36.715 8.7734-52.312 14.297 4.2266 25.344 12.672 35.414 24.371zm11.371-36.391c-14.945-0.97656-20.145-10.398-13.645-23.719 10.07 4.875 11.371 14.297 13.645 23.719zm-22.418-46.137c16.895-9.0977 35.414-9.4219 53.609-7.1484 18.848 2.5977 28.918 12.996 28.594 29.242 0 1.3008-1.3008 2.9219-2.6016 6.4961-2.9219-2.9219-6.1719-4.5469-7.4727-7.1484-6.1719-13.32-16.566-18.52-31.188-18.52-28.594 0-51.34 11.047-66.934 35.418-9.4219 14.621-17.871 29.566-20.145 47.109-1.9492 14.945 2.2734 27.617 12.672 38.34 10.723 11.371 24.043 12.023 35.738 1.625 3.8984-3.5742 7.4766-7.7969 10.398-12.348 2.5977-3.8984 4.5508-8.4453 6.5-12.348 6.8203-1.6211 9.4219 1.3008 7.7969 6.8242-4.875 17.547-22.094 37.043-44.188 36.715-20.469-0.32422-38.988-16.57-41.59-38.012-2.2734-18.52 0.32422-36.719 8.7734-53.613 4.875-10.07 10.395-19.816 15.594-29.891 11.375-7.7969 22.422-16.246 34.441-22.742zm-193 0c34.441-17.223 70.504-25.992 109.5-23.395 19.816 1.3008 37.688 8.4453 55.883 15.922 2.2734 0.97266 3.5742 4.2227 5.5234 6.4961-0.32422 0.97656-0.97266 1.9492-1.3008 2.9258-4.2227-0.97656-8.7695-0.97656-12.996-2.6016-44.188-17.219-87.074-12.344-130.94 3.9023-23.719 8.7695-44.188 19.168-58.484 40.285-4.5469 6.8242-9.4219 12.996-14.621 19.172-2.2734 2.9219-6.1719 4.2227-12.344 8.4453 0.97266-6.8203 0.64844-10.07 1.6211-12.668 12.996-25.344 32.168-45.488 58.16-58.484zm-105.59 101.37c10.719-24.695 22.094-49.387 33.465-73.754 6.8203-14.945 12.672-29.891 12.996-46.465 0-1.2969 1.625-2.5977 2.9219-4.8711 6.1758 4.2227 5.5234 10.07 4.875 15.594-1.3008 10.723-2.9219 21.121-1.3008 32.168 0.97656 6.4961-3.2461 14.621-6.1719 21.117-3.25 7.1484-8.4492 13.973-12.996 21.121 7.1484 17.219-0.65234 29.891-11.695 42.238-4.5508 5.1992-8.125 11.371-11.047 17.543-2.2773 4.875-0.32812 9.75 5.1953 12.023 4.875 1.9492 10.398-0.97656 12.672-7.1484 0.65234-1.9492 1.625-4.2227 1.3008-6.1719-2.2734-18.195 8.4492-32.168 20.145-42.238 9.7461-8.4492 20.793-18.848 36.066-19.172 1.625 0 3.5742 0.32422 4.8711-0.64844 13-9.0977 28.27-4.2227 42.238-6.1758 9.4219-1.2969 18.195 2.2773 25.344 8.4492 1.9492 1.625 2.6016 5.1992 4.5469 10.07-5.8477-1.2969-9.4219-1.9453-12.668-2.9219-13-4.5469-25.02-3.5742-38.016 1.3008-38.34 14.945-60.758 43.535-73.105 81.551-2.2734 6.5-4.2227 12.996-6.8203 22.094-4.875-7.7969-8.125-12.344-11.051-16.895-10.719 2.5977-10.719 2.5977-23.391 20.145-7.1484-5.1992-7.4727-12.996-7.8008-20.145-0.97266-20.469 1.3008-40.289 9.4258-58.809zm22.418 77.004c-3.25 0.64844-5.8477 1.9492-7.1484 0.97266-5.8477-3.2461-5.1992-7.1484 1.9492-12.996 1.9492 4.875 3.25 7.8008 5.1992 12.023zm-32.168 12.996c-4.8711-3.5742-13.969-4.5508-9.0977-14.621 10.398 3.25 10.723 3.25 9.0977 14.621zm41.266-1.625c-4.5508 7.4727-11.699 3.5742-17.223 6.1719 13.648 3.5742 28.27 3.5742 38.664 17.871-4.5469 0.65234-7.7969 1.9492-9.7461 0.97656-13.973-6.5-27.941-7.4727-42.238-1.9492-0.97266 0.32422-2.2734 0.32422-3.25 0-0.97266-0.32812-1.9492-0.65234-2.9219-1.3008-4.2266-6.5 3.25-7.7969 5.1992-11.047-3.25-3.25-6.1758-6.1719-9.0977-9.0977 12.996-4.875 25.992-6.8242 40.613-1.625zm-6.8242 28.594c-4.2227 1.9492-6.1719 3.2461-7.7969 3.5742-2.2773 0.32422-4.875 0-9.4219 0 3.5742-9.0977 8.1211-8.7734 17.219-3.5742zm27.617 205.99c-3.25 6.8203-3.5742 15.594-2.5977 23.395 2.5977 24.043-2.6016 46.137-14.297 67.254-0.65234 1.3008-1.625 2.9258-2.5977 4.2227-0.65234 0.65234-1.625 0.97656-3.9023 2.2773-0.32422-3.25-1.625-6.1758-0.97266-8.7734 12.344-44.188 7.4727-88.051-3.5742-131.27-9.4219-37.688-19.82-75.379-29.566-113.07-1.9492-7.1484-2.6016-14.945-2.6016-22.418 0-6.8242 3.5742-11.371 13.973-8.4492 1.625 4.875 4.2227 10.074 4.875 15.27 4.2227 32.816 18.191 62.059 30.863 91.953 4.5508 11.043 8.7734 21.766 7.1484 34.438-0.64844 4.875 2.2773 10.398 3.5742 15.598 3.5742 9.7461 4.5508 19.168-0.32422 29.566zm2.9258-120.87c-3.8984 0.64844-9.75-2.2734-12.672-5.5234-15.273-15.922-23.719-35.414-25.992-57.508-0.32812-1.625 0.32422-3.25 0.64844-4.875 0.32422-1.625 1.3008-2.9258 1.9492-4.2227 12.996-5.5234 17.871-4.5508 24.043 5.8477 1.625 2.5977 2.9258 5.5234 4.5508 8.7734 11.695 25.992 28.266 48.086 50.359 66.281 1.3008 0.97266 2.5977 2.2734 3.25 3.5742 0.64844 0.64844 0.64844 1.9492 1.3008 5.1953-10.398 2.6016-19.172 0.32812-25.344-7.1445-6.1758-7.1484-11.699-12.023-22.094-10.398zm5.1953 32.492c6.1758 3.2461 9.4258 7.7969 9.4258 14.945-12.348 0.32422-13.973-2.2734-9.4258-14.945zm8.7734 62.707c-2.2734-5.1992-4.2227-10.398-6.4961-15.598 1.2969-0.64844 2.9219-1.2969 4.2227-1.9492 5.5234 9.7461 11.047 19.172 16.246 28.918 19.82 37.039 46.785 68.555 73.105 101.05 29.891 37.039 60.758 73.43 81.875 116.32 10.398 20.797 17.871 42.891 25.992 64.66 2.9258 7.7969 2.6016 16.57 4.2266 28.266-17.871-8.4492-32.168-15.273-46.465-22.094-3.5703-14.945-7.4727-28.918-10.07-43.215-6.1719-33.465-22.418-63.031-39.312-91.949-15.922-27.617-34.117-53.934-52.637-79.926-18.52-26.969-36.391-54.586-50.688-84.477zm197.87 331.41c-10.723 3.8984-17.543-2.9219-25.02-5.8477-8.7695-3.25-17.219-6.8242-25.668-9.7461-8.1211-2.9258-16.246-5.1992-24.691-7.8008-7.7969-2.5977-17.223 1.3008-23.719-5.1953 0.97266-7.4727 5.8477-7.1484 9.7461-6.5 10.723 1.625 21.445 3.25 31.516 6.8242 14.949 4.8711 29.246 11.047 43.539 17.219 5.1992 1.9492 11.047 3.8984 14.297 11.047zm-137.44-204.37c-16.57-27.293-33.465-54.262-50.035-81.551-3.8984-6.1758-8.4492-12.348-6.1719-24.371 4.5469 6.8242 7.1445 11.371 10.07 15.598 22.742 34.113 45.812 68.23 68.23 102.67 28.594 44.188 47.762 91.949 56.535 143.93 0.32422 1.9492 0 4.2227-0.32422 6.8242-11.371 3.8984-19.172-7.1484-30.543-3.5742-1.625-16.246-2.5977-28.918-4.2227-41.914-6.1719-41.914-21.445-81.227-43.539-117.62zm37.691 184.22c31.84 1.625 61.406 12.023 89.023 27.293 1.625 0.97656 2.2773 3.25 3.5742 5.5234-6.1719 7.4727-12.996 4.5508-19.496 2.2734-11.695-4.2227-23.066-9.0977-35.09-12.672-15.27-4.5469-30.867-9.7461-48.41-3.2461-1.9492-15.922 0.32422-19.82 10.398-19.172zm52.309 71.156c-7.4727 4.875-21.441 1.3008-25.992-6.1719-4.2227-7.4727-0.64844-21.77 6.4961-25.668 1.625-0.97656 4.2266 0 7.8008 0 1.625 5.5234 2.9219 9.4219 4.2227 14.621 1.9492 0.97266 5.1992 1.9492 7.4727 3.8984 5.1992 4.2227 4.875 10.07 0 13.32zm-93.25-55.559c8.7734 4.2227 15.598 7.4727 25.02 12.02-14.621 4.5508-17.219 3.25-25.02-12.02zm29.242 85.449c-4.2227-7.7969-8.7695-15.27-13.645-24.043 11.047-6.8242 20.145-6.1719 28.918-1.625 3.8984 19.172 1.625 23.395-15.273 25.668zm12.023-38.012c-9.7461 1.9492-16.246-1.9531-19.168-12.348 7.1445-6.5 12.996-12.023 20.469-19.172 8.4453 0 10.07 0.97656 11.371 9.75 0.97266 11.371-3.8984 19.816-12.672 21.77zm18.195 43.211c-4.5508-16.895-1.625-21.441 15.918-24.367 3.25 4.8711 6.8242 10.723 10.074 16.246-7.1484 9.7461-16.57 7.4727-25.992 8.1211zm-6.1758 62.707c-30.867 23.07-78.301 23.07-109.17-0.32422-24.367-18.52-33.465-44.512-29.242-74.402 1.625-12.023 4.5508-24.043 4.5508-37.043 4.2227-4.8711 7.7969-10.07 12.344-14.945 11.047-11.695 17.871-25.668 23.07-40.613 5.5234-15.594 4.5469-30.867-4.5508-45.164-1.2969-2.2734-2.2734-4.5469-3.8984-7.7969 11.695 4.2266 16.895 10.723 18.52 23.719 1.9492 14.621 0.65234 29.242-5.8477 42.887-5.5234 11.051-11.695 21.77-18.195 33.793 13.648-3.8984 27.617-9.7461 40.613 4.875-3.8984 0.64844-7.1484 1.9492-9.4219 1.2969-17.543-6.1719-29.566 2.9258-38.664 15.922-14.621 20.793-12.996 43.215-2.5977 64.656 18.52 38.664 61.406 50.363 99.422 35.09 6.4961-2.5977 12.348-6.4961 18.844-9.4219 1.9492-0.97266 4.875 0 9.0977 0-2.2734 3.5742-3.25 6.1758-4.875 7.4727zm25.344-19.816c-13.32-0.97656-25.668 8.4453-41.59 3.5703 3.25-2.5977 4.875-4.8711 6.8242-5.1953 15.273-2.2773 27.617-9.75 35.742-22.746 8.7695-13.32 16.57-27.293 25.344-41.914 5.5234-0.32422 6.8203 4.5508 5.1953 9.75-1.625 5.5234-4.5469 11.047-7.4727 16.246-7.4727 13.32-15.594 26.641-24.043 40.289zm48.414-42.891c-1.9492 7.1484-3.5742 14.945-6.8242 21.445-9.4219 18.844-19.496 37.039-24.043 57.832-0.32422 0.97656-2.2773 1.9492-4.2227 3.5742-0.97656-2.2734-2.6016-4.2227-2.6016-5.8477 0.32422-12.023-2.2734-25.344 1.9492-35.738 7.4727-18.195 18.844-34.441 28.918-51.988 8.1211 1.9492 7.7969 6.5 6.8242 10.723zm-1.625-33.141c-6.8242 1.625-12.348 0-13.973-8.1211-1.3008-6.8242 2.5977-11.699 11.047-12.672 7.4727-0.97656 13.32-2.9258 18.195-8.7734 2.2734-2.6016 6.8242-3.5742 10.395-5.1992 1.3008 0.97656 2.6016 1.9492 3.5781 2.9258-1.3008 7.1484-3.25 14.293-3.25 21.441-0.32422 6.8242 1.2969 13.648 2.2734 22.098-6.1719 0.32031-10.398 0.64844-17.219 0.97266 1.6211-10.074 2.9219-17.871 4.2227-25.992-0.97656-0.32812-1.625-0.97656-2.6016-1.3008-4.2227 4.5508-8.1211 9.4219-12.668 14.621zm32.492 89.676c-4.5508 8.7734-12.348 11.047-24.047 9.7461 0.65234-6.8242 1.625-13.32 2.2773-21.117-1.625-3.8984-3.8984-9.0977-6.5-14.297 10.07-5.5234 18.195-3.25 23.395 3.25 5.1953 5.8477 9.0977 13.969 4.875 22.418zm-0.65234-45.812c18.844-11.047 18.844-11.047 26.969-10.723 7.7969 9.0977 1.625 17.871-0.32812 26.316-20.465 3.8984-26.641 0.32812-26.641-15.594zm43.539 64.656c-11.047 1.9492-20.469 3.5742-29.566 4.875-3.25-12.023-2.2773-16.57 5.1992-21.121 6.1719-3.8984 12.996-6.4961 19.492-1.9492 6.4961 4.2266 8.4492 10.723 4.875 18.195zm16.242-26.641c0.32812 1.2969-5.1953 3.8984-8.1211 5.8477-3.5742-5.8477-6.1719-10.723-9.4219-14.945-4.2227-5.5234-6.5-11.047-2.9258-17.871 3.9023-7.1484 10.074-9.0977 21.121-7.4727-2.5977 7.1484-4.5508 12.348-6.5 17.543 1.9492 5.5234 4.5508 11.051 5.8477 16.898zm44.84-50.363c-4.2227 10.074-10.074 18.848-19.82 24.695-2.2734 1.2969-5.5234 0.97266-11.695 1.6211 12.344-14.617 22.094-25.988 33.789-39.961-0.97266 6.1719-0.64844 10.07-2.2734 13.645z"/>
</svg>
